<svg width="50" height="50" viewBox="0 0 50 50" fill="none" xmlns="http://www.w3.org/2000/svg">
<g clip-path="url(#clip0_905_72)">
<path d="M25.054 25.9778C23.3299 25.9778 21.9272 27.3804 21.9272 29.1045C21.9272 30.8286 23.3299 32.2313 25.054 32.2313C26.778 32.2312 28.1807 30.8286 28.1807 29.1045C28.1808 27.3804 26.7781 25.9778 25.054 25.9778ZM25.054 30.748C24.1478 30.7479 23.4105 30.0107 23.4105 29.1045C23.4105 28.4653 23.7781 27.9117 24.3123 27.64V29.1045C24.3123 29.5141 24.6443 29.8462 25.054 29.8462H26.5186C26.247 30.3803 25.6933 30.748 25.054 30.748ZM25.7957 28.3629V27.6401C26.107 27.7986 26.3601 28.0516 26.5186 28.3629H25.7957ZM26.8632 1.34466C26.8047 1.1647 26.6797 1.0139 26.5136 0.923128C26.3476 0.832354 26.1532 0.808476 25.9701 0.856383L25.8044 0.899742L25.7944 0.728746C25.7832 0.540023 25.7003 0.362727 25.5626 0.233087C25.425 0.103447 25.2431 0.03125 25.0541 0.03125C24.865 0.03125 24.6831 0.103447 24.5455 0.233087C24.4078 0.362727 24.3249 0.540023 24.3137 0.728746L24.3037 0.899742L24.138 0.856383C23.955 0.808556 23.7606 0.832482 23.5946 0.923265C23.4286 1.01405 23.3036 1.16482 23.2452 1.34474C23.1867 1.52466 23.1992 1.72011 23.2802 1.8911C23.3611 2.0621 23.5043 2.19571 23.6805 2.26459L23.8399 2.32689L23.7475 2.47103C23.6456 2.63033 23.6084 2.82252 23.6436 3.00831C23.6787 3.1941 23.7834 3.35946 23.9364 3.47061C24.0893 3.58175 24.279 3.63027 24.4665 3.60627C24.6541 3.58226 24.8254 3.48753 24.9454 3.34144L25.0541 3.20892L25.1627 3.34144C25.2323 3.42643 25.3198 3.4949 25.4191 3.54187C25.5184 3.58884 25.6269 3.61314 25.7367 3.61302C25.8698 3.61299 26.0005 3.57713 26.1149 3.50921C26.2294 3.4413 26.3235 3.34383 26.3873 3.22703C26.4511 3.11023 26.4823 2.97841 26.4777 2.84539C26.473 2.71237 26.4326 2.58307 26.3607 2.47103L26.2683 2.32689L26.4277 2.26459C26.604 2.19574 26.7472 2.06213 26.8282 1.89111C26.9091 1.7201 26.9217 1.52461 26.8632 1.34466Z" fill="#F36600"/>
<path d="M49.2579 48.4858H31.9014V34.6037H32.3294C32.5261 34.6037 32.7148 34.5256 32.8539 34.3865C32.993 34.2474 33.0711 34.0587 33.0711 33.862C33.0711 33.6653 32.993 33.4767 32.8539 33.3376C32.7148 33.1985 32.5261 33.1203 32.3294 33.1203H30.041V25.5801C30.2315 25.5634 30.4081 25.4738 30.5341 25.33C30.66 25.1861 30.7255 24.9992 30.717 24.8082C30.7084 24.6172 30.6264 24.4369 30.488 24.305C30.3497 24.173 30.1657 24.0996 29.9745 24.1001H28.9916V15.7309C28.9916 15.3213 28.6596 14.9892 28.2499 14.9892H27.7838L25.7815 4.84795C25.7483 4.67945 25.6575 4.52772 25.5248 4.41867C25.3921 4.30961 25.2257 4.25 25.0539 4.25C24.8821 4.25 24.7157 4.30961 24.583 4.41867C24.4503 4.52772 24.3596 4.67945 24.3263 4.84795L22.3239 14.9892H21.8578C21.6611 14.9892 21.4724 15.0673 21.3334 15.2064C21.1943 15.3455 21.1161 15.5342 21.1161 15.7309V24.1001H20.1332C19.942 24.0996 19.7581 24.173 19.6197 24.305C19.4814 24.4369 19.3993 24.6172 19.3908 24.8082C19.3822 24.9992 19.4477 25.1861 19.5737 25.33C19.6996 25.4738 19.8762 25.5634 20.0667 25.5801V26.9051C20.0667 27.1018 20.1448 27.2904 20.2839 27.4295C20.423 27.5686 20.6117 27.6468 20.8084 27.6468C21.0051 27.6468 21.1938 27.5686 21.3329 27.4295C21.472 27.2904 21.5501 27.1018 21.5501 26.9051V25.5834H28.5576V33.1202H21.5501V29.3773C21.5501 29.1806 21.472 28.992 21.3329 28.8529C21.1938 28.7138 21.0051 28.6356 20.8084 28.6356C20.6117 28.6356 20.423 28.7138 20.2839 28.8529C20.1448 28.992 20.0667 29.1806 20.0667 29.3773V33.1202H17.7307C17.534 33.1202 17.3453 33.1984 17.2062 33.3375C17.0671 33.4766 16.989 33.6652 16.989 33.8619C16.989 34.0586 17.0671 34.2473 17.2062 34.3864C17.3453 34.5255 17.534 34.6036 17.7307 34.6036H18.1587V48.4858H0.802246C0.605535 48.4858 0.416881 48.564 0.277786 48.7031C0.13869 48.8422 0.0605469 49.0308 0.0605469 49.2275C0.0605469 49.4243 0.13869 49.6129 0.277786 49.752C0.416881 49.8911 0.605535 49.9692 0.802246 49.9692H49.2578C49.6674 49.9692 49.9995 49.6372 49.9995 49.2275C49.9995 49.1301 49.9804 49.0337 49.9431 48.9437C49.9059 48.8537 49.8512 48.7719 49.7824 48.7031C49.7135 48.6342 49.6317 48.5796 49.5417 48.5423C49.4518 48.505 49.3553 48.4858 49.2579 48.4858ZM25.0539 8.82051L26.2718 14.9891H23.8358L25.0539 8.82051ZM22.5996 16.4725H27.1702L27.1734 16.4726L27.1764 16.4725H27.5081V20.9994H26.9092V17.4409C26.9069 17.2457 26.8278 17.0592 26.689 16.922C26.5501 16.7847 26.3628 16.7077 26.1675 16.7077C25.9723 16.7077 25.7849 16.7847 25.6461 16.922C25.5072 17.0592 25.4281 17.2457 25.4259 17.4409V20.9994H24.6818V17.4409C24.6818 17.2442 24.6037 17.0556 24.4646 16.9165C24.3255 16.7774 24.1368 16.6992 23.9401 16.6992C23.7434 16.6992 23.5548 16.7774 23.4157 16.9165C23.2766 17.0556 23.1984 17.2442 23.1984 17.4409V20.9994H22.5995L22.5996 16.4725ZM27.5083 24.1001H22.5996V22.4829H27.5083V24.1001ZM23.3427 48.4858V45.9011C23.3428 45.5933 23.4251 45.2912 23.581 45.0258C23.7368 44.7604 23.9607 44.5415 24.2295 44.3915C24.2722 44.3677 24.3159 44.3465 24.3599 44.3266V48.4858H23.3427ZM26.7996 48.4858H25.8433V44.3561C25.8647 44.3667 25.8861 44.3772 25.9071 44.3888L25.9125 44.3917C26.1814 44.5416 26.4053 44.7605 26.5613 45.0259C26.7172 45.2913 26.7995 45.5935 26.7996 45.9014V48.4858ZM30.418 48.4858H28.2829V45.9014C28.2827 45.3305 28.1304 44.77 27.8417 44.2775C27.553 43.785 27.1383 43.3783 26.6402 43.0992L26.6336 43.0955C25.6548 42.5502 24.4861 42.5504 23.5075 43.0959C23.008 43.3745 22.592 43.7814 22.3023 44.2745C22.0125 44.7676 21.8596 45.3291 21.8594 45.9011V48.4858H19.6422V40.3608H30.418V48.4858ZM30.4181 38.8775H29.4171V36.6101C29.4171 36.4134 29.3389 36.2247 29.1999 36.0856C29.0608 35.9465 28.8721 35.8684 28.6754 35.8684C28.4787 35.8684 28.29 35.9465 28.1509 36.0856C28.0118 36.2247 27.9337 36.4134 27.9337 36.6101V38.8775H26.9072V36.6101C26.9072 36.4134 26.8291 36.2247 26.69 36.0856C26.5509 35.9465 26.3622 35.8684 26.1655 35.8684C25.9688 35.8684 25.7802 35.9465 25.6411 36.0856C25.502 36.2247 25.4238 36.4134 25.4238 36.6101V38.8775H24.3974V36.6101C24.3974 36.4134 24.3192 36.2247 24.1801 36.0856C24.041 35.9465 23.8524 35.8684 23.6557 35.8684C23.459 35.8684 23.2703 35.9465 23.1312 36.0856C22.9921 36.2247 22.914 36.4134 22.914 36.6101V38.8775H21.8875V36.6101C21.8875 36.4134 21.8094 36.2247 21.6703 36.0856C21.5312 35.9465 21.3425 35.8684 21.1458 35.8684C20.9491 35.8684 20.7604 35.9465 20.6213 36.0856C20.4822 36.2247 20.4041 36.4134 20.4041 36.6101V38.8775H19.6418V34.6036H30.4179V38.8775H30.4181Z" fill="#F36600"/>
<path d="M37.6885 43.7656H36.2052C36.0085 43.7656 35.8198 43.8438 35.6807 43.9829C35.5416 44.122 35.4635 44.3106 35.4635 44.5073C35.4635 44.704 35.5416 44.8927 35.6807 45.0318C35.8198 45.1709 36.0085 45.249 36.2052 45.249H37.6885C37.8852 45.249 38.0738 45.1709 38.2129 45.0318C38.352 44.8927 38.4302 44.704 38.4302 44.5073C38.4302 44.3106 38.352 44.122 38.2129 43.9829C38.0738 43.8438 37.8852 43.7656 37.6885 43.7656ZM42.2374 45.249H40.7541C40.5574 45.249 40.3687 45.3272 40.2296 45.4663C40.0905 45.6054 40.0124 45.794 40.0124 45.9907C40.0124 46.1874 40.0905 46.3761 40.2296 46.5152C40.3687 46.6543 40.5574 46.7324 40.7541 46.7324H42.2374C42.4341 46.7324 42.6228 46.6543 42.7619 46.5152C42.901 46.3761 42.9791 46.1874 42.9791 45.9907C42.9791 45.794 42.901 45.6054 42.7619 45.4663C42.6228 45.3272 42.4341 45.249 42.2374 45.249ZM6.73623 43.1723H5.25293C5.05622 43.1723 4.86756 43.2504 4.72847 43.3895C4.58937 43.5286 4.51123 43.7173 4.51123 43.914C4.51123 44.1107 4.58937 44.2993 4.72847 44.4384C4.86756 44.5775 5.05622 44.6557 5.25293 44.6557H6.73623C6.93294 44.6557 7.1216 44.5775 7.26069 44.4384C7.39979 44.2993 7.47793 44.1107 7.47793 43.914C7.47793 43.7173 7.39979 43.5286 7.26069 43.3895C7.1216 43.2504 6.93294 43.1723 6.73623 43.1723ZM11.9773 45.0512H10.494C10.2973 45.0512 10.1087 45.1293 9.96958 45.2684C9.83049 45.4075 9.75234 45.5962 9.75234 45.7929C9.75234 45.9896 9.83049 46.1782 9.96958 46.3173C10.1087 46.4564 10.2973 46.5346 10.494 46.5346H11.9773C12.1741 46.5346 12.3627 46.4564 12.5018 46.3173C12.6409 46.1782 12.719 45.9896 12.719 45.7929C12.719 45.5962 12.6409 45.4075 12.5018 45.2684C12.3627 45.1293 12.1741 45.0512 11.9773 45.0512ZM49.1596 38.7995H47.7139V33.8306C47.7139 33.421 47.3818 33.0889 46.9722 33.0889C46.0549 33.0889 45.2311 33.4972 44.6731 34.1416C44.1151 33.4972 43.2915 33.0889 42.3741 33.0889C42.2767 33.0889 42.1803 33.1081 42.0903 33.1453C42.0003 33.1826 41.9185 33.2372 41.8497 33.3061C41.7808 33.375 41.7262 33.4567 41.6889 33.5467C41.6516 33.6367 41.6324 33.7332 41.6324 33.8306V38.7996H40.4458V37.8818C40.4458 37.6851 40.3677 37.4965 40.2286 37.3574C40.0895 37.2183 39.9008 37.1401 39.7041 37.1401C39.5074 37.1401 39.3187 37.2183 39.1796 37.3574C39.0405 37.4965 38.9624 37.6851 38.9624 37.8818V39.5412C38.9624 39.9508 39.2944 40.2829 39.7041 40.2829H42.374C42.7836 40.2829 43.1157 39.9509 43.1157 39.5412V34.7604C43.6012 35.0245 43.9314 35.5392 43.9314 36.1296C43.9314 36.3263 44.0096 36.515 44.1487 36.654C44.2878 36.7931 44.4764 36.8713 44.6731 36.8713C44.8699 36.8713 45.0585 36.7931 45.1976 36.654C45.3367 36.515 45.4148 36.3263 45.4148 36.1296C45.4148 35.5392 45.745 35.0244 46.2306 34.7604V39.5412C46.2306 39.9508 46.5626 40.2829 46.9723 40.2829H49.1596C49.3563 40.2829 49.5449 40.2048 49.684 40.0657C49.8231 39.9266 49.9013 39.7379 49.9013 39.5412C49.9013 39.3445 49.8231 39.1558 49.684 39.0167C49.5449 38.8777 49.3563 38.7995 49.1596 38.7995Z" fill="#F36600"/>
<path d="M39.7042 33.0889C38.7869 33.0889 37.9632 33.4972 37.4051 34.1416C36.8471 33.4972 36.0233 33.0889 35.106 33.0889C34.9093 33.0889 34.7207 33.167 34.5816 33.3061C34.4425 33.4452 34.3643 33.6339 34.3643 33.8306V38.7996H33.4251C33.2284 38.7996 33.0397 38.8777 32.9007 39.0168C32.7616 39.1559 32.6834 39.3446 32.6834 39.5413C32.6834 39.738 32.7616 39.9266 32.9007 40.0657C33.0397 40.2048 33.2284 40.2829 33.4251 40.2829H35.106C35.5156 40.2829 35.8477 39.9509 35.8477 39.5412V34.7604C36.3333 35.0244 36.6635 35.5392 36.6635 36.1296C36.6635 36.3263 36.7416 36.515 36.8807 36.654C37.0198 36.7931 37.2085 36.8713 37.4052 36.8713C37.6019 36.8713 37.7905 36.7931 37.9296 36.654C38.0687 36.515 38.1469 36.3263 38.1469 36.1296C38.1469 35.5393 38.4771 35.0245 38.9626 34.7604V35.4096C38.9626 35.6063 39.0407 35.7949 39.1798 35.934C39.3189 36.0731 39.5076 36.1513 39.7043 36.1513C39.901 36.1513 40.0896 36.0731 40.2287 35.934C40.3678 35.7949 40.446 35.6063 40.446 35.4096V33.8306C40.4459 33.6339 40.3677 33.4452 40.2286 33.3062C40.0895 33.1671 39.9009 33.0889 39.7042 33.0889ZM16.4759 38.7995H15.5366V33.8306C15.5366 33.421 15.2046 33.0889 14.7949 33.0889C13.8776 33.0889 13.0539 33.4972 12.4958 34.1416C11.9378 33.4972 11.1141 33.0889 10.1968 33.0889C10.0994 33.0889 10.0029 33.1081 9.91293 33.1453C9.82294 33.1826 9.74118 33.2372 9.6723 33.3061C9.60343 33.375 9.5488 33.4567 9.51152 33.5467C9.47425 33.6367 9.45506 33.7332 9.45506 33.8306V38.7996H8.26854V33.8306C8.26854 33.421 7.93651 33.0889 7.52684 33.0889C6.60956 33.0889 5.78583 33.4972 5.22782 34.1416C4.66981 33.4972 3.84608 33.0889 2.92879 33.0889C2.83139 33.0889 2.73495 33.1081 2.64496 33.1453C2.55497 33.1826 2.47321 33.2372 2.40433 33.3061C2.33546 33.375 2.28083 33.4567 2.24355 33.5467C2.20628 33.6367 2.18709 33.7332 2.18709 33.8306V38.7996H0.741489C0.546266 38.8018 0.359798 38.881 0.222539 39.0198C0.0852802 39.1587 0.00830078 39.346 0.00830078 39.5413C0.00830078 39.7365 0.0852802 39.9239 0.222539 40.0627C0.359798 40.2015 0.546266 40.2807 0.741489 40.2829H2.92879C3.33836 40.2829 3.67049 39.9509 3.67049 39.5412V34.7604C4.15604 35.0244 4.48622 35.5392 4.48622 36.1296C4.48622 36.3263 4.56436 36.515 4.70345 36.654C4.84255 36.7931 5.0312 36.8713 5.22792 36.8713C5.42463 36.8713 5.61328 36.7931 5.75238 36.654C5.89147 36.515 5.96961 36.3263 5.96961 36.1296C5.96961 35.5392 6.29979 35.0244 6.78534 34.7604V39.5412C6.78534 39.9508 7.11737 40.2829 7.52704 40.2829H10.197C10.6065 40.2829 10.9387 39.9509 10.9387 39.5412V34.7604C11.4241 35.0245 11.7544 35.5392 11.7544 36.1296C11.7544 36.3263 11.8325 36.515 11.9716 36.654C12.1107 36.7931 12.2994 36.8713 12.4961 36.8713C12.6928 36.8713 12.8814 36.7931 13.0205 36.654C13.1596 36.515 13.2378 36.3263 13.2378 36.1296C13.2378 35.5392 13.568 35.0244 14.0535 34.7604V39.5412C14.0535 39.9508 14.3855 40.2829 14.7952 40.2829H16.4762C16.6729 40.2829 16.8615 40.2047 17.0006 40.0656C17.1396 39.9264 17.2177 39.7378 17.2177 39.5411C17.2177 39.3444 17.1395 39.1557 17.0004 39.0166C16.8612 38.8776 16.6726 38.7995 16.4759 38.7995Z" fill="#F36600"/>
</g>
<defs>
<clipPath id="clip0_905_72">
<rect width="50" height="50" fill="white"/>
</clipPath>
</defs>
</svg>
