<svg width="170" height="51" viewBox="0 0 170 51" fill="none" xmlns="http://www.w3.org/2000/svg">
<path fill-rule="evenodd" clip-rule="evenodd" d="M49.7627 11.375H4.2627V29.1086C4.26283 30.8324 4.9477 32.4856 6.16665 33.7046C7.38561 34.9236 9.03883 35.6084 10.7627 35.6086H43.2627C44.9866 35.6084 46.6398 34.9236 47.8587 33.7046C49.0777 32.4856 49.7626 30.8324 49.7627 29.1086V11.375ZM32.2351 20.8354L26.2707 16.9692C25.7375 16.6239 25.1211 16.4288 24.4864 16.4044C23.8517 16.38 23.2221 16.5273 22.664 16.8306C22.106 17.134 21.6401 17.5822 21.3153 18.1281C20.9906 18.6741 20.8192 19.2974 20.819 19.9326V27.6645C20.8189 28.2998 20.9902 28.9233 21.3149 29.4694C21.6396 30.0154 22.1056 30.4638 22.6637 30.7671C23.2219 31.0705 23.8516 31.2177 24.4864 31.1931C25.1212 31.1685 25.7376 30.9731 26.2707 30.6275L32.2351 26.7613C32.7293 26.4409 33.1356 26.002 33.4169 25.4845C33.6982 24.967 33.8456 24.3873 33.8456 23.7983C33.8456 23.2093 33.6982 22.6296 33.4169 22.1121C33.1356 21.5946 32.7293 21.1557 32.2351 20.8354ZM16.1067 0H10.7627C9.03883 0.000137893 7.38561 0.685002 6.16665 1.90396C4.9477 3.12292 4.26283 4.77613 4.2627 6.5V8.125H11.2317L16.1067 0ZM23.6311 8.125H15.022L19.897 0H28.5061L23.6311 8.125ZM36.5464 8.125H27.4214L32.2964 0H41.4214L36.5464 8.125ZM45.0593 0.25324L40.3367 8.125H49.7627V6.5C49.7626 5.08945 49.3037 3.7172 48.4553 2.59035C47.6068 1.4635 46.4149 0.643197 45.0593 0.25324Z" fill="#F36600"/>
<path d="M37.7377 23.5832C37.7377 29.686 32.7904 34.6332 26.6877 34.6332C20.5849 34.6332 15.6377 29.686 15.6377 23.5832C15.6377 17.4805 20.5849 12.5332 26.6877 12.5332C32.7904 12.5332 37.7377 17.4805 37.7377 23.5832Z" fill="#F36600"/>
<path d="M12.6574 42.1944C11.9695 42.488 11.2145 41.9501 11.2673 41.2041L12.6318 21.9246C12.6869 21.1457 13.5736 20.7277 14.2095 21.1808L30.6215 32.8735C31.2575 33.3266 31.152 34.3012 30.4338 34.6077L12.6574 42.1944Z" fill="#F36600"/>
<path d="M10.135 28V20.245H7.06V17.5H16.75V20.245H13.675V28H10.135ZM21.1495 25.33H26.3995V28H17.6695V17.5H26.2045V20.17H21.1495V21.4H25.5895V23.95H21.1495V25.33ZM27.7622 28V17.5H31.3022V25.255H36.0422V28H27.7622ZM40.5 25.33H45.75V28H37.02V17.5H45.555V20.17H40.5V21.4H44.94V23.95H40.5V25.33Z" fill="white"/>
<path d="M65.58 14.6C69.782 14.6 72.422 16.778 72.422 20.298C72.422 23.796 69.782 25.974 65.58 25.974H62.896V30H58.54V14.6H65.58ZM65.316 22.542C67.12 22.542 68.022 21.706 68.022 20.298C68.022 18.868 67.12 18.032 65.316 18.032H62.896V22.542H65.316ZM83.6319 30L80.8379 25.908H78.4619V30H74.1059V14.6H81.1459C85.3479 14.6 87.9879 16.778 87.9879 20.298C87.9879 22.564 86.8879 24.236 84.9739 25.16L88.2959 30H83.6319ZM83.5879 20.298C83.5879 18.868 82.6859 18.032 80.8819 18.032H78.4619V22.542H80.8819C82.6859 22.542 83.5879 21.706 83.5879 20.298ZM97.717 30.308C92.789 30.308 89.159 26.92 89.159 22.3C89.159 17.68 92.789 14.292 97.717 14.292C102.645 14.292 106.275 17.68 106.275 22.3C106.275 26.92 102.645 30.308 97.717 30.308ZM97.717 26.7C100.049 26.7 101.875 24.962 101.875 22.3C101.875 19.638 100.049 17.9 97.717 17.9C95.385 17.9 93.559 19.638 93.559 22.3C93.559 24.962 95.385 26.7 97.717 26.7ZM115.156 14.6C119.358 14.6 121.998 16.778 121.998 20.298C121.998 23.796 119.358 25.974 115.156 25.974H112.472V30H108.116V14.6H115.156ZM114.892 22.542C116.696 22.542 117.598 21.706 117.598 20.298C117.598 18.868 116.696 18.032 114.892 18.032H112.472V22.542H114.892ZM130.638 30.308C126.084 30.308 123.4 27.734 123.4 23.136V14.6H127.756V23.004C127.756 25.644 128.856 26.7 130.682 26.7C132.486 26.7 133.586 25.644 133.586 23.004V14.6H137.876V23.136C137.876 27.734 135.192 30.308 130.638 30.308ZM145.799 30.308C143.269 30.308 140.761 29.626 139.309 28.614L140.739 25.402C142.103 26.304 144.039 26.92 145.821 26.92C147.625 26.92 148.329 26.414 148.329 25.666C148.329 23.224 139.573 25.006 139.573 19.286C139.573 16.536 141.817 14.292 146.393 14.292C148.395 14.292 150.463 14.754 151.981 15.634L150.639 18.868C149.165 18.076 147.713 17.68 146.371 17.68C144.545 17.68 143.885 18.296 143.885 19.066C143.885 21.42 152.619 19.66 152.619 25.336C152.619 28.02 150.375 30.308 145.799 30.308ZM164.531 30L160.131 24.412L158.503 26.15V30H154.191V14.6H158.503V21.002L164.465 14.6H169.261L162.969 21.42L169.591 30H164.531Z" fill="white"/>
</svg>
