<svg width="26" height="25" viewBox="0 0 26 25" fill="none" xmlns="http://www.w3.org/2000/svg">
<rect width="26" height="25" rx="12.5" fill="white"/>
<path d="M17.0651 5.9662C14.5876 5.51127 12.0148 5.51127 9.5373 5.9662C8.44149 6.19366 7.05982 7.46746 6.8216 8.4683C6.3928 10.4245 6.3928 12.4262 6.8216 14.3824C7.10746 15.3832 8.48914 16.657 9.5373 16.8845C9.58495 16.8845 9.63259 16.93 9.63259 16.9755V19.8415C9.63259 19.978 9.82317 20.069 9.91846 19.9325L11.3478 18.5222C11.3478 18.5222 12.4912 17.3849 12.6818 17.2029C12.6818 17.2029 12.7295 17.1574 12.7771 17.1574C14.2064 17.2029 15.6834 17.0664 17.1127 16.839C18.2085 16.6115 19.5902 15.3377 19.8284 14.3369C20.2572 12.3807 20.2572 10.379 19.8284 8.42281C19.5425 7.46746 18.1609 6.19366 17.0651 5.9662ZM17.1127 14.5188C16.8745 14.9738 16.5886 15.3377 16.1122 15.5652C15.9692 15.6107 15.8263 15.6562 15.6834 15.7017C15.4928 15.6562 15.3499 15.6107 15.2069 15.5652C13.6823 14.9738 12.253 14.1549 11.1096 12.9721C10.4902 12.2897 9.9661 11.5163 9.5373 10.6974C9.34673 10.288 9.15615 9.92407 9.01322 9.51464C8.87029 9.15069 9.10851 8.78675 9.34673 8.51379C9.58495 8.24084 9.87081 8.05887 10.2043 7.92239C10.4425 7.78591 10.6808 7.87689 10.8713 8.05887C11.2525 8.51379 11.6336 8.96872 11.9195 9.46914C12.1101 9.78759 12.0624 10.1515 11.7289 10.379C11.6336 10.4245 11.586 10.47 11.4907 10.561C11.4431 10.6065 11.3478 10.652 11.3001 10.7429C11.2048 10.8794 11.2048 11.0159 11.2525 11.1524C11.6336 12.1987 12.3483 13.0176 13.4441 13.4725C13.6347 13.5635 13.7776 13.609 14.0158 13.609C14.3493 13.5635 14.4923 13.1996 14.7305 13.0176C14.9687 12.8356 15.2546 12.8356 15.5404 12.9721C15.7787 13.1086 16.0169 13.2905 16.3027 13.4725C16.541 13.6545 16.7792 13.791 17.0174 13.9729C17.1603 14.0639 17.208 14.2914 17.1127 14.5188ZM15.1116 11.1069C15.0164 11.1069 15.064 11.1069 15.1116 11.1069C14.9211 11.1069 14.8734 11.0159 14.8258 10.8794C14.8258 10.7884 14.8258 10.652 14.7781 10.561C14.7305 10.379 14.6352 10.197 14.4446 10.0605C14.3493 10.0151 14.2541 9.96956 14.1588 9.92407C14.0158 9.87858 13.9206 9.87858 13.7776 9.87858C13.6347 9.83309 13.587 9.7421 13.587 9.60562C13.587 9.51464 13.73 9.42365 13.8253 9.42365C14.5876 9.46914 15.1593 9.87858 15.2546 10.7429C15.2546 10.7884 15.2546 10.8794 15.2546 10.9249C15.2546 11.0159 15.2069 11.1069 15.1116 11.1069ZM14.6352 9.1052C14.397 9.01421 14.1588 8.92323 13.8729 8.87774C13.7776 8.87774 13.6347 8.83224 13.5394 8.83224C13.3965 8.83224 13.3012 8.74126 13.3488 8.60478C13.3488 8.4683 13.4441 8.37732 13.587 8.42281C14.0635 8.4683 14.4923 8.55929 14.9211 8.74126C15.7787 9.15069 16.2551 9.83308 16.398 10.7429C16.398 10.7884 16.398 10.8339 16.398 10.8794C16.398 10.9704 16.398 11.0614 16.398 11.1979C16.398 11.2434 16.398 11.2889 16.398 11.3343C16.3504 11.5163 16.0169 11.5618 15.9692 11.3343C15.9692 11.2889 15.9216 11.1979 15.9216 11.1524C15.9216 10.7429 15.8263 10.3335 15.6357 9.96956C15.3499 9.56013 15.0164 9.28717 14.6352 9.1052ZM17.208 11.8348C17.0651 11.8348 16.9698 11.6983 16.9698 11.5618C16.9698 11.2889 16.9221 11.0159 16.8745 10.7429C16.6839 9.28717 15.4452 8.10436 13.9682 7.87689C13.73 7.8314 13.4918 7.8314 13.3012 7.78591C13.1582 7.78591 12.9677 7.78591 12.92 7.60394C12.8724 7.46746 13.0153 7.33098 13.1582 7.33098C13.2059 7.33098 13.2535 7.33098 13.2535 7.33098C13.3488 7.33098 15.2069 7.37647 13.2535 7.33098C15.2546 7.37647 16.9221 8.65027 17.2556 10.561C17.3033 10.8794 17.3509 11.1979 17.3509 11.5618C17.4462 11.6983 17.3509 11.8348 17.208 11.8348Z" fill="#321B20"/>
</svg>
