<svg width="26" height="25" viewBox="0 0 26 25" fill="none" xmlns="http://www.w3.org/2000/svg">
<rect width="26" height="25" rx="12.5" fill="white"/>
<path d="M13.6382 16.875C8.75248 16.875 5.96572 13.5905 5.84961 8.125H8.29696C8.37734 12.1365 10.1816 13.8357 11.6107 14.1861V8.125H13.9151V11.5847C15.3264 11.4358 16.8091 9.85923 17.3093 8.125H19.6137C19.4252 9.02442 19.0495 9.87603 18.5101 10.6266C17.9706 11.3771 17.279 12.0104 16.4786 12.4869C17.3721 12.9222 18.1613 13.5384 18.794 14.2948C19.4268 15.0512 19.8889 15.9306 20.1496 16.875H17.6129C17.3789 16.0548 16.9031 15.3205 16.2453 14.7643C15.5875 14.208 14.7769 13.8545 13.9151 13.7481V16.875H13.6382Z" fill="#321B20"/>
</svg>
