<svg width="26" height="25" viewBox="0 0 26 25" fill="none" xmlns="http://www.w3.org/2000/svg">
<rect width="26" height="25" rx="12.5" fill="white"/>
<path d="M18.1524 7.53906C16.8683 6.30859 15.1561 5.625 13.3488 5.625C9.59146 5.625 6.54756 8.54167 6.54756 12.1419C6.54756 13.2812 6.88049 14.4206 7.45122 15.3776L6.5 18.75L10.1146 17.8385C11.1134 18.3398 12.2073 18.6133 13.3488 18.6133C17.1061 18.6133 20.15 15.6966 20.15 12.0964C20.1024 10.4102 19.4366 8.76953 18.1524 7.53906ZM16.6305 14.4661C16.4878 14.8307 15.822 15.1953 15.489 15.2409C15.2037 15.2865 14.8232 15.2865 14.4427 15.1953C14.2049 15.1042 13.872 15.013 13.4915 14.8307C11.7793 14.1471 10.6854 12.5065 10.5902 12.3698C10.4951 12.2786 9.87683 11.5039 9.87683 10.6836C9.87683 9.86328 10.3049 9.4987 10.4476 9.31641C10.5902 9.13411 10.7805 9.13411 10.9232 9.13411C11.0183 9.13411 11.161 9.13411 11.2561 9.13411C11.3512 9.13411 11.4939 9.08854 11.6366 9.40755C11.7793 9.72656 12.1122 10.5469 12.1598 10.5924C12.2073 10.6836 12.2073 10.7747 12.1598 10.8659C12.1122 10.957 12.0646 11.0482 11.9695 11.1393C11.8744 11.2305 11.7793 11.3672 11.7317 11.4128C11.6366 11.5039 11.5415 11.5951 11.6366 11.7318C11.7317 11.9141 12.0646 12.4154 12.5878 12.8711C13.2537 13.418 13.7768 13.6003 13.9671 13.6914C14.1573 13.7826 14.2524 13.737 14.3476 13.6458C14.4427 13.5547 14.7756 13.1901 14.8707 13.0078C14.9659 12.8255 15.1085 12.8711 15.2512 12.9167C15.3939 12.9622 16.25 13.3724 16.3927 13.4635C16.5829 13.5547 16.678 13.6003 16.7256 13.6458C16.7732 13.7826 16.7732 14.1016 16.6305 14.4661Z" fill="#321B20"/>
</svg>
