<svg width="128" height="48" viewBox="0 0 128 48" fill="none" xmlns="http://www.w3.org/2000/svg">
<path d="M82.3223 24.3956C82.2973 12.7673 91.7969 3.29383 103.489 3.2735C109.149 3.25995 114.484 5.44873 118.492 9.42649C122.511 13.3997 124.719 18.6876 124.731 24.3256C124.749 35.9494 115.254 45.4161 103.564 45.4341C91.8628 45.4545 82.3382 36.0194 82.3223 24.3956Z" fill="url(#paint0_radial_902_1305)"/>
<path d="M118.714 39.037L112.084 32.4639C112.322 31.714 112.454 30.8963 112.454 30.0222L112.431 12.8643L107.896 12.871L107.915 30.0312C107.926 33.0015 104.856 33.329 103.539 33.329C102.225 33.329 99.1603 33.0196 99.1557 30.0447L99.1148 12.8936H94.5752L94.6184 30.0605C94.6252 34.7227 98.2128 37.8534 103.552 37.8421C105.849 37.8399 107.849 37.221 109.366 36.1367L115.21 41.9328C116.474 41.0926 117.65 40.119 118.714 39.037Z" fill="white"/>
<path fill-rule="evenodd" clip-rule="evenodd" d="M8.77456 21.7826C8.77456 22.1079 8.57916 22.2886 7.98388 22.2886C7.90208 22.2886 7.60444 22.2863 7.50901 22.2863L7.50219 21.2066L8.15201 21.1998C8.62233 21.1998 8.76774 21.437 8.76774 21.7171M8.74729 20.0659C8.74955 20.3099 8.61551 20.5222 8.15428 20.5222H7.50219V19.5215C7.58626 19.5148 7.85209 19.5148 7.94298 19.5148C8.54281 19.5148 8.74502 19.6638 8.74502 19.9778M9.73792 21.8052V21.7194C9.73792 21.3196 9.52662 21.0169 9.21762 20.8633C9.52435 20.7119 9.70384 20.3912 9.70384 20.0117V19.9101C9.70159 18.9885 8.96541 18.7061 7.868 18.7129C7.49311 18.7129 7.02733 18.749 6.83193 18.7761C6.60245 18.8078 6.52293 18.8936 6.52293 19.1534L6.53202 22.6568C6.53202 22.9165 6.61381 22.9933 6.84784 23.0317C7.0705 23.0769 7.52264 23.1018 7.90663 23.1018C8.91543 23.0995 9.73792 22.8126 9.73792 21.8052ZM5.98217 19.4741V18.8891C5.98217 18.8281 5.92537 18.7852 5.85948 18.7852L2.97166 18.7874C2.90577 18.7874 2.85352 18.8281 2.85352 18.8936V19.4786C2.85352 19.5374 2.90577 19.587 2.97166 19.587L3.92367 19.5825L3.93275 22.9391C3.93275 23.0001 3.99183 23.0453 4.0509 23.0453H4.79842C4.85976 23.0453 4.91657 22.9978 4.91657 22.9391L4.90521 19.5825L5.85948 19.578C5.92764 19.578 5.98217 19.5374 5.98217 19.4741ZM34.6377 31.0934V29.4964C34.6377 29.3022 34.4741 29.1463 34.2832 29.1463L30.7501 29.1509C29.9345 29.1554 29.6186 28.8753 29.6118 27.9785V26.1376L34.1469 26.1308C34.3287 26.1308 34.4945 25.975 34.4945 25.7943L34.4854 24.1905C34.4854 24.0143 34.3264 23.8584 34.1423 23.8584L29.6073 23.8675L29.6027 22.2908C29.6027 21.3941 29.9208 21.1117 30.7387 21.1117H34.2718C34.4672 21.1095 34.6172 20.9514 34.6172 20.7594L34.6149 19.1488C34.6149 18.923 34.5104 18.8281 34.2696 18.801C33.6584 18.7129 32.7859 18.5841 30.9092 18.5841C28.6439 18.5841 26.6672 19.1443 26.6763 22.2954L26.6831 27.9875C26.6877 31.1273 28.653 31.6875 30.9183 31.683C32.7927 31.683 33.6834 31.5429 34.2878 31.4503C34.5286 31.4255 34.6399 31.3193 34.6377 31.0934ZM47.3977 31.1679L47.3749 19.0404C47.3772 18.8529 47.2227 18.7106 47.0273 18.7106H44.7916C44.5962 18.7106 44.4462 18.8529 44.4462 19.0517L44.4553 23.5806L40.1702 23.5874L40.1611 19.054C40.1611 18.8642 40.0066 18.7174 39.8135 18.7174L37.5755 18.7219C37.3823 18.7219 37.2278 18.8665 37.2301 19.0585L37.2505 31.186C37.2505 31.3667 37.4073 31.5203 37.6027 31.5203L39.8407 31.5158C40.0293 31.5158 40.1861 31.3622 40.1815 31.1747L40.177 26.1195L44.4598 26.1105L44.4689 31.1702C44.4689 31.3577 44.6189 31.5067 44.8188 31.5022H47.05C47.2431 31.5068 47.3977 31.3509 47.3977 31.1679ZM66.9353 22.8104C66.9353 23.9962 66.2355 24.5722 64.6269 24.5722C64.4315 24.5722 63.3681 24.5632 63.1682 24.5429L63.1591 20.9943C63.3772 20.9627 64.3679 20.9333 64.6178 20.9333C66.1333 20.9243 66.933 21.4144 66.9353 22.6545M69.8686 22.8081V22.6568C69.8686 19.4131 67.2898 18.5209 64.586 18.5254C63.2886 18.5277 61.8958 18.6203 61.012 18.7513C60.4667 18.8371 60.2281 18.9885 60.2281 19.5712L60.2486 31.1634C60.2486 31.3464 60.4054 31.4864 60.5939 31.4864L62.8388 31.4797C63.0319 31.4797 63.1818 31.3283 63.1818 31.1431L63.1794 26.9282C63.6202 26.9462 64.2087 26.9801 64.629 26.9801C67.3032 26.9688 69.8686 26.0314 69.8686 22.8081ZM58.49 20.7752L58.4854 19.0133C58.4854 18.8258 58.3128 18.688 58.1151 18.688L49.4448 18.7039C49.2562 18.7039 49.0972 18.8349 49.0972 19.0223V20.7887C49.1085 20.9762 49.2585 21.1072 49.4516 21.1072L52.3326 21.0982L52.3463 31.1612C52.3463 31.3441 52.4985 31.4955 52.6894 31.4955H54.9273C55.1273 31.4887 55.275 31.3396 55.275 31.1544L55.2613 21.0914H58.1196C58.315 21.0937 58.49 20.9514 58.49 20.7752ZM25.1903 31.7078C25.1903 31.701 25.1903 31.6965 25.1903 31.6965C25.1903 31.6897 25.1903 31.6897 25.1903 31.683L25.1858 29.5235C25.1858 29.3383 25.0245 29.1938 24.8381 29.1938H23.818L23.8044 19.0924C23.8021 18.8936 23.6635 18.7513 23.4795 18.7513L21.1733 18.7535C20.9915 18.7535 20.8711 18.8959 20.8711 19.0969L20.8893 29.205L17.7561 29.1734C16.9381 29.178 16.5973 28.9091 16.5973 28.0101L16.5769 19.1104C16.5769 18.9207 16.4247 18.7603 16.2383 18.7603L13.9958 18.7671C13.8049 18.7671 13.6504 18.9252 13.6504 19.1195L13.6618 28.0169C13.6709 31.1408 15.6385 31.7101 17.9174 31.7101C18.6627 31.7078 21.5073 31.6717 22.8683 31.6039L22.8729 33.6413C22.8729 33.8853 22.9774 34.0615 23.1546 34.0615H24.5769C24.7541 34.0615 24.8973 33.9192 24.9632 33.6594C25.0836 33.1896 25.1813 32.4645 25.1836 31.7485H25.1881V31.7078L25.1903 31.7078Z" fill="black"/>
<defs>
<radialGradient id="paint0_radial_902_1305" cx="0" cy="0" r="1" gradientUnits="userSpaceOnUse" gradientTransform="translate(91.1375 11.6087) scale(34.0646 33.8656)">
<stop stop-color="#ED1C24"/>
<stop offset="1" stop-color="#C1272D"/>
</radialGradient>
</defs>
</svg>
