<svg width="50" height="50" viewBox="0 0 50 50" fill="none" xmlns="http://www.w3.org/2000/svg">
<path d="M7.93213 41.4062H42.0685" stroke="black" stroke-miterlimit="10" stroke-linecap="round" stroke-linejoin="round"/>
<mask id="mask0_4922_5310" style="mask-type:luminance" maskUnits="userSpaceOnUse" x="0" y="0" width="50" height="50">
<path d="M49.5 49.5V0.5H0.5V49.5H49.5Z" fill="white" stroke="white"/>
</mask>
<g mask="url(#mask0_4922_5310)">
<path d="M18.9413 29.1991H22.9584C24.086 29.1991 25 30.1132 25 31.2408V35.0236C25 36.6326 26.3044 37.937 27.9135 37.937C29.5226 37.937 30.8269 36.6326 30.8269 35.0236V33.9985" stroke="black" stroke-miterlimit="10" stroke-linecap="round" stroke-linejoin="round"/>
<path d="M8.04424 25.973H17.6678C18.3711 25.973 18.9411 26.5431 18.9411 27.2463V34.8031C18.9411 35.5064 18.3711 36.0764 17.6678 36.0764H2.14053C1.36289 36.0764 0.732422 35.446 0.732422 34.6683V25.973H4.62012" stroke="black" stroke-miterlimit="10" stroke-linecap="round" stroke-linejoin="round"/>
<path d="M18.9412 33.9987H47.8596C48.6372 33.9987 49.2676 33.3682 49.2676 32.5906V19.8766C49.2676 19.099 48.6372 18.4685 47.8596 18.4685H2.14053C1.36289 18.4685 0.732422 19.099 0.732422 19.8766V25.973" stroke="black" stroke-miterlimit="10" stroke-linecap="round" stroke-linejoin="round"/>
<path d="M4.27933 36.0762L2.45579 46.6248C2.34212 47.2823 2.84847 47.8837 3.51575 47.8837H5.05784C5.52454 47.8837 5.93812 47.5826 6.08148 47.1384L9.65198 36.0762" stroke="black" stroke-miterlimit="10" stroke-linecap="round" stroke-linejoin="round"/>
<path d="M46.2874 39.3557L45.3613 33.9986" stroke="black" stroke-miterlimit="10" stroke-linecap="round" stroke-linejoin="round"/>
<path d="M39.6769 33.9985L43.918 47.1385C43.9879 47.355 44.1246 47.5438 44.3086 47.6777C44.4925 47.8116 44.7141 47.8837 44.9417 47.8837H46.4837C47.151 47.8837 47.6574 47.2824 47.5437 46.6248L46.8715 42.7369" stroke="black" stroke-miterlimit="10" stroke-linecap="round" stroke-linejoin="round"/>
<path d="M8.40757 31.0247C8.40757 32.1722 7.4773 33.1024 6.32984 33.1024C5.18228 33.1024 4.25211 32.1722 4.25211 31.0247C4.25211 29.8772 5.18228 28.9469 6.32984 28.9469C7.4773 28.9469 8.40757 29.8772 8.40757 31.0247Z" stroke="black" stroke-miterlimit="10" stroke-linecap="round" stroke-linejoin="round"/>
<path d="M15.4209 31.0247C15.4209 32.1722 14.4908 33.1024 13.3432 33.1024C12.1956 33.1024 11.2655 32.1722 11.2655 31.0247C11.2655 29.8772 12.1956 28.9469 13.3432 28.9469C14.4908 28.9469 15.4209 29.8772 15.4209 31.0247Z" stroke="black" stroke-miterlimit="10" stroke-linecap="round" stroke-linejoin="round"/>
<path d="M40.8285 18.4684L40.7532 16.8454C40.7504 16.7831 40.7323 16.7224 40.7005 16.6686C40.6688 16.6149 40.6243 16.5698 40.5711 16.5371L38.4788 15.2547C38.2181 15.0949 38.2412 14.7089 38.5192 14.5813L40.0627 13.8728C40.1549 13.8305 40.2264 13.7533 40.2617 13.6582C40.2969 13.5632 40.293 13.458 40.2507 13.3658L39.1774 11.0275C39.1513 10.9707 39.1118 10.9212 39.0622 10.8833C39.0127 10.8454 38.9546 10.8202 38.893 10.8099L36.3537 10.3847C36.0656 10.3365 35.9359 9.99592 36.1189 9.76819L37.289 8.31213C37.3499 8.23629 37.3797 8.14006 37.3722 8.04304C37.3647 7.94603 37.3205 7.85553 37.2486 7.78997L35.3298 6.04143C35.2837 5.99939 35.2279 5.96929 35.1675 5.95375C35.1071 5.93821 35.0437 5.9377 34.983 5.95227L32.5968 6.52493C32.2994 6.59631 32.0428 6.30696 32.1491 6.02024L32.7396 4.42776C32.7748 4.33267 32.7708 4.22747 32.7285 4.13531C32.6862 4.04314 32.6091 3.97154 32.514 3.93626L30.1016 3.04182C30.0431 3.02012 29.9801 3.01308 29.9182 3.02132C29.8563 3.02956 29.7974 3.05283 29.7466 3.08909L27.6505 4.58391C27.4126 4.75364 27.0801 4.60452 27.0485 4.31409L26.8463 2.45706C26.8358 2.36033 26.7888 2.27125 26.7148 2.20798C26.6409 2.14471 26.5457 2.11201 26.4485 2.11653L23.8553 2.23684C23.793 2.23972 23.7323 2.25782 23.6785 2.28957C23.6248 2.32132 23.5797 2.36575 23.5471 2.41897L22.2647 4.51126C22.1049 4.772 21.7188 4.74885 21.5912 4.47092L20.8826 2.92727C20.8403 2.83514 20.7631 2.76359 20.6681 2.72835C20.573 2.69312 20.4678 2.69708 20.3757 2.73938L18.6904 3.51301C18.6431 3.5347 18.6007 3.56582 18.5659 3.60446C18.531 3.6431 18.5044 3.68845 18.4877 3.73772L17.4623 6.76233C17.3771 7.01389 17.0677 7.10393 16.8608 6.93762L15.322 5.701C15.2462 5.64006 15.1499 5.61033 15.0529 5.61786C14.9559 5.62539 14.8655 5.66962 14.7999 5.74153L13.5353 7.12922C13.5002 7.16768 13.4734 7.21289 13.4564 7.26207C13.4395 7.31125 13.4327 7.36337 13.4365 7.41526L13.667 10.4994C13.6878 10.7773 13.414 10.9833 13.1529 10.8865L11.4376 10.2505C11.3905 10.2331 11.3405 10.225 11.2903 10.2269C11.2401 10.2288 11.1908 10.2406 11.1452 10.2615C11.0996 10.2825 11.0585 10.3122 11.0244 10.349C10.9902 10.3858 10.9637 10.429 10.9462 10.4761L10.3015 12.2149C10.2834 12.2636 10.2755 12.3156 10.2782 12.3676C10.2809 12.4195 10.2941 12.4704 10.3171 12.517L11.7309 15.3808C11.8485 15.6189 11.6934 15.9014 11.4294 15.9301L9.46692 16.1438C9.37019 16.1543 9.28112 16.2013 9.21784 16.2752C9.15457 16.3492 9.12187 16.4444 9.12639 16.5416L9.2134 18.4171C9.21428 18.4345 9.21799 18.4514 9.22112 18.4684" stroke="black" stroke-miterlimit="10" stroke-linecap="round" stroke-linejoin="round"/>
<path d="M32.2764 18.4684C32.2938 18.1996 32.2978 17.9274 32.285 17.6521C32.0984 13.6285 28.6854 10.5182 24.6618 10.7049C20.6384 10.8916 17.5281 14.3046 17.7147 18.3281C17.7169 18.3752 17.7217 18.4215 17.7247 18.4684" stroke="black" stroke-miterlimit="10" stroke-linecap="round" stroke-linejoin="round"/>
<path d="M22.0136 18.4684C21.9956 18.3564 21.9839 18.2436 21.9784 18.1303C21.9011 16.4615 23.191 15.046 24.8597 14.9686C26.5284 14.8912 27.9439 16.1812 28.0214 17.8499C28.0311 18.0609 28.0189 18.2677 27.987 18.4684" stroke="black" stroke-miterlimit="10" stroke-linecap="round" stroke-linejoin="round"/>
</g>
</svg>
