<svg width="44" height="52" viewBox="0 0 44 52" fill="none" xmlns="http://www.w3.org/2000/svg">
<path d="M42.825 28.4783V25.6444C42.825 24.1938 41.6448 23.0138 40.1943 23.0138H37.1307C36.7261 23.0138 36.3982 23.3416 36.3982 23.7462C36.3982 24.1508 36.7261 24.4786 37.1307 24.4786H40.1943C40.8372 24.4786 41.3602 25.0016 41.3602 25.6444V28.4783C41.3602 29.1208 40.8378 29.6435 40.1955 29.6441H22.0003C21.358 29.6435 20.8356 29.1208 20.8356 28.4783V25.6444C20.8356 25.0017 21.3586 24.4786 22.0015 24.4786H34.2021C34.6067 24.4786 34.9346 24.1508 34.9346 23.7462C34.9346 23.3416 34.6067 23.0138 34.2021 23.0138H22.0016C20.551 23.0138 19.3709 24.1938 19.3709 25.6444V28.4783C19.3709 29.2238 19.6832 29.8974 20.1831 30.3766C19.6831 30.8558 19.3709 31.5293 19.3709 32.2748V35.1087C19.3709 35.8542 19.6832 36.5277 20.1832 37.0069C19.6832 37.4861 19.3709 38.1597 19.3709 38.9052V41.7391C19.3709 42.4846 19.6832 43.1581 20.1832 43.6373C19.6832 44.1165 19.3709 44.79 19.3709 45.5355V48.3694C19.3709 49.82 20.5511 51.0001 22.0016 51.0001H33.5312C33.9357 51.0001 34.2636 50.6723 34.2636 50.2677C34.2636 49.8631 33.9357 49.5353 33.5312 49.5353H22.0016C21.3587 49.5353 20.8357 49.0123 20.8357 48.3694V45.5355C20.8357 44.8927 21.3587 44.3697 22.0016 44.3697H40.1943C40.8372 44.3697 41.3602 44.8927 41.3602 45.5355V48.3694C41.3602 49.0123 40.8372 49.5353 40.1943 49.5353H36.4596C36.055 49.5353 35.7271 49.8631 35.7271 50.2677C35.7271 50.6723 36.055 51.0001 36.4596 51.0001H40.1943C41.6449 51.0001 42.825 49.8199 42.825 48.3694V45.5355C42.825 44.79 42.5127 44.1164 42.0127 43.6373C42.5127 43.1582 42.825 42.4847 42.825 41.7391V38.9052C42.825 38.1597 42.5127 37.486 42.0127 37.0069C42.5127 36.5278 42.825 35.8543 42.825 35.1087V32.2748C42.825 31.5293 42.5127 30.8558 42.0128 30.3766C42.5128 29.8974 42.825 29.2238 42.825 28.4783ZM41.3602 38.9051V41.739C41.3602 42.3817 40.8372 42.9048 40.1943 42.9048H22.0016C21.3587 42.9048 20.8357 42.3818 20.8357 41.739V38.9051C20.8357 38.2622 21.3587 37.7393 22.0016 37.7393H40.1943C40.8372 37.7393 41.3602 38.2622 41.3602 38.9051ZM41.3602 32.2748V35.1087C41.3602 35.7515 40.8372 36.2745 40.1943 36.2745H22.0016C21.3587 36.2745 20.8357 35.7516 20.8357 35.1087V32.2748C20.8357 31.6323 21.3581 31.1097 22.0004 31.109H40.1957C40.8378 31.1097 41.3602 31.6323 41.3602 32.2748ZM12.1126 1H9.12539C7.64267 1 6.43643 2.20635 6.43643 3.68896V10.1802C6.43643 10.5848 6.76426 10.9126 7.16885 10.9126C7.57344 10.9126 7.90127 10.5848 7.90127 10.1802V3.68896C7.90127 3.01396 8.45039 2.46484 9.12539 2.46484H12.1126C12.7876 2.46484 13.3367 3.01396 13.3367 3.68896V23.0139H7.90127V13.1086C7.90127 12.704 7.57344 12.3762 7.16885 12.3762C6.76426 12.3762 6.43643 12.704 6.43643 13.1086V21.9281L3.4834 20.0584C3.23872 19.9035 2.95696 19.8171 2.66751 19.8082C2.37806 19.7994 2.09153 19.8684 1.83783 20.008C1.58413 20.1476 1.37256 20.3528 1.22519 20.6021C1.07781 20.8513 1.00005 21.1356 1 21.4252V26.0672C1.00004 26.3568 1.0778 26.641 1.22516 26.8903C1.37252 27.1396 1.58408 27.3447 1.83777 27.4844C2.09145 27.624 2.37797 27.693 2.66741 27.6842C2.95685 27.6753 3.23862 27.589 3.4833 27.4341L6.43643 25.5642V48.3108C6.43643 49.7937 7.64277 50.9999 9.12539 50.9999H12.1126C13.5953 50.9999 14.8016 49.7936 14.8016 48.3108V3.68896C14.8016 2.20635 13.5953 1 12.1126 1ZM6.36523 23.8755L2.69961 26.1966C2.67653 26.2115 2.64983 26.2199 2.62236 26.2209C2.59489 26.2218 2.56766 26.2154 2.54358 26.2021C2.51951 26.1888 2.49947 26.1693 2.4856 26.1456C2.47174 26.1218 2.46457 26.0948 2.46484 26.0673V21.4253C2.46458 21.3978 2.47177 21.3708 2.48564 21.3471C2.49951 21.3233 2.51955 21.3038 2.54363 21.2906C2.5677 21.2773 2.59492 21.2708 2.62238 21.2718C2.64985 21.2728 2.67653 21.2812 2.69961 21.2961L6.36523 23.6171C6.42402 23.6544 6.43643 23.708 6.43643 23.7463C6.43643 23.7846 6.42402 23.8383 6.36523 23.8755ZM13.3367 48.3109C13.3367 48.9859 12.7876 49.5352 12.1126 49.5352H9.12539C8.45039 49.5352 7.90127 48.9859 7.90127 48.3109V24.4787H13.3367V48.3109Z" fill="black" stroke="#F2F2F5" stroke-width="0.4"/>
</svg>
