<svg width="41" height="52" viewBox="0 0 41 52" fill="none" xmlns="http://www.w3.org/2000/svg">
<path d="M20.6855 5.61853C16.5877 5.61853 12.7488 7.22839 9.8748 10.153L9.83174 10.197C9.69978 10.3363 9.62789 10.5219 9.63157 10.7137C9.63526 10.9056 9.71423 11.0883 9.85145 11.2224C9.98866 11.3565 10.1731 11.4313 10.365 11.4306C10.5568 11.4299 10.7407 11.3537 10.877 11.2186L10.9186 11.176C13.5143 8.53464 16.9829 7.08005 20.6855 7.08005C28.2357 7.08005 34.3783 13.2225 34.3783 20.7728C34.3783 28.3231 28.2357 34.4656 20.6855 34.4656C13.1354 34.4656 6.99277 28.323 6.99277 20.7728C6.99277 18.3062 7.65566 15.8885 8.90977 13.7811C9.00754 13.6146 9.03546 13.4162 8.98741 13.2292C8.93936 13.0422 8.81925 12.8818 8.65332 12.7831C8.4874 12.6843 8.28914 12.6553 8.10186 12.7023C7.91458 12.7492 7.7535 12.8684 7.65381 13.0338C6.26523 15.3672 5.53125 18.0433 5.53125 20.7729C5.53125 29.129 12.3294 35.9272 20.6854 35.9272C29.0415 35.9272 35.8396 29.129 35.8396 20.7729C35.8396 12.4169 29.0416 5.61853 20.6855 5.61853Z" fill="black"/>
<path d="M36.6364 45.6393H36.6374M20.6855 5.61853C16.5877 5.61853 12.7488 7.22839 9.87481 10.153L9.83174 10.197C9.69978 10.3363 9.62789 10.5219 9.63157 10.7137C9.63526 10.9056 9.71423 11.0883 9.85145 11.2224C9.98866 11.3565 10.1731 11.4313 10.365 11.4306C10.5568 11.4299 10.7407 11.3537 10.877 11.2186L10.9186 11.176C13.5143 8.53464 16.9829 7.08005 20.6855 7.08005C28.2357 7.08005 34.3783 13.2225 34.3783 20.7728C34.3783 28.3231 28.2357 34.4656 20.6855 34.4656C13.1354 34.4656 6.99277 28.323 6.99277 20.7728C6.99277 18.3062 7.65566 15.8885 8.90977 13.7811C9.00754 13.6146 9.03546 13.4162 8.98741 13.2292C8.93936 13.0422 8.81925 12.8818 8.65332 12.7831C8.4874 12.6843 8.28914 12.6553 8.10186 12.7023C7.91458 12.7492 7.7535 12.8684 7.65381 13.0338C6.26523 15.3672 5.53125 18.0433 5.53125 20.7729C5.53125 29.129 12.3294 35.9272 20.6854 35.9272C29.0415 35.9272 35.8396 29.129 35.8396 20.7729C35.8396 12.4169 29.0416 5.61853 20.6855 5.61853Z" stroke="#F2F2F5" stroke-width="0.4"/>
<path d="M39.1947 17.7316C38.7982 17.1413 38.4238 16.5837 38.2831 16.0574C38.133 15.4958 38.1778 14.8039 38.2254 14.0714C38.2963 12.9787 38.3696 11.8487 37.8114 10.8841C37.2446 9.90439 36.2207 9.40156 35.2305 8.91523C34.5794 8.59551 33.9644 8.29346 33.5646 7.89375C33.1649 7.49395 32.8629 6.879 32.5431 6.22783C32.0568 5.2377 31.554 4.21377 30.5742 3.64697C29.6096 3.08887 28.4797 3.16221 27.3869 3.23301C26.6544 3.28057 25.9626 3.32549 25.4008 3.17529C24.8745 3.03457 24.3169 2.66016 23.7266 2.26367C22.8448 1.67139 21.8451 1 20.6855 1C19.526 1 18.5263 1.67139 17.6442 2.26377C17.0539 2.66025 16.4964 3.03467 15.9701 3.17529C15.4085 3.32549 14.7166 3.28057 13.9841 3.23301C12.8913 3.16221 11.7615 3.08887 10.7968 3.64697C9.81709 4.21377 9.31426 5.2377 8.82793 6.22783C8.5082 6.879 8.20615 7.49404 7.80635 7.89375C7.40664 8.29346 6.7917 8.59551 6.14053 8.91523C5.15029 9.40147 4.12646 9.90439 3.55957 10.8841C3.00137 11.8487 3.07471 12.9787 3.14561 14.0715C3.19316 14.8039 3.23799 15.4958 3.08789 16.0574C2.94717 16.5837 2.57275 17.1413 2.17627 17.7316C1.58398 18.6137 0.912598 19.6133 0.912598 20.7729C0.912598 21.9324 1.58389 22.9321 2.17627 23.8142C2.57266 24.4045 2.94717 24.9621 3.08779 25.4884C3.23789 26.05 3.19307 26.7419 3.14551 27.4744C3.07461 28.5671 3.00127 29.697 3.55947 30.6617C4.12627 31.6414 5.1502 32.1443 6.14043 32.6306C6.7915 32.9503 7.40654 33.2523 7.80625 33.6521C8.17686 34.0227 8.46357 34.5789 8.7582 35.1768L3.45049 44.9414C3.22275 45.3604 3.2293 45.8569 3.46807 46.2696C3.70684 46.6824 4.13389 46.9356 4.61055 46.9472L8.68096 47.0457L10.9773 50.4079C11.2329 50.7821 11.6474 51 12.0966 51C12.12 51 12.1437 50.9994 12.1673 50.9982C12.6435 50.9741 13.0637 50.7096 13.2914 50.2906L18.8646 40.0376C19.4256 40.3312 20.0299 40.5458 20.6854 40.5458C21.3409 40.5458 21.9453 40.3312 22.5063 40.0376L28.0795 50.2907C28.3072 50.7097 28.7274 50.9742 29.2036 50.9983C29.2273 50.9995 29.2509 51.0001 29.2743 51.0001C29.7235 51.0001 30.138 50.7822 30.3936 50.408L32.6899 47.0458L36.7603 46.9473C37.2369 46.9357 37.6641 46.6824 37.9027 46.2697C38.1415 45.8569 38.148 45.3605 37.9203 44.9415L35.9794 41.3707C35.9336 41.2864 35.8716 41.2119 35.797 41.1515C35.7224 41.0911 35.6367 41.046 35.5446 41.0188C35.4526 40.9916 35.3561 40.9828 35.2606 40.9929C35.1652 41.003 35.0727 41.0318 34.9884 41.0776C34.8181 41.1702 34.6916 41.3266 34.6366 41.5125C34.5817 41.6983 34.6028 41.8984 34.6953 42.0687L36.5552 45.4902L32.6013 45.5859C32.386 45.5914 32.1751 45.6479 31.9859 45.7507C31.7967 45.8536 31.6346 45.9999 31.513 46.1775L29.2823 49.4435L23.7503 39.2661C24.3318 38.8756 24.8816 38.5092 25.4008 38.3704C25.9624 38.2203 26.6543 38.2651 27.3868 38.3127C28.4797 38.3836 29.6095 38.4569 30.5741 37.8987C31.0848 37.6033 31.4652 37.1832 31.7819 36.7089L33.0875 39.1108C33.1333 39.1952 33.1953 39.2696 33.2699 39.33C33.3445 39.3903 33.4303 39.4354 33.5223 39.4626C33.6143 39.4898 33.7108 39.4987 33.8063 39.4886C33.9017 39.4785 33.9942 39.4497 34.0785 39.4039C34.1628 39.3581 34.2373 39.2961 34.2976 39.2215C34.358 39.1469 34.4031 39.0611 34.4303 38.9691C34.4575 38.8771 34.4663 38.7806 34.4563 38.6852C34.4462 38.5897 34.4174 38.4972 34.3716 38.4129L32.6125 35.1767C32.9071 34.5788 33.1938 34.0227 33.5645 33.6521C33.9642 33.2523 34.5791 32.9503 35.2303 32.6306C36.2205 32.1443 37.2443 31.6414 37.8112 30.6617C38.3694 29.6971 38.2961 28.5671 38.2252 27.4743C38.1776 26.7419 38.1328 26.05 38.2829 25.4883C38.4236 24.962 38.798 24.4045 39.1944 23.8142C39.7867 22.9321 40.4581 21.9324 40.4581 20.7729C40.4584 19.6133 39.787 18.6136 39.1947 17.7316ZM12.0886 49.4435L9.85801 46.1776C9.73633 46 9.57423 45.8537 9.38503 45.7508C9.19582 45.648 8.98491 45.5915 8.76963 45.586L4.81582 45.4903L9.58896 36.7091C9.90566 37.1833 10.2861 37.6034 10.7968 37.8988C11.7615 38.4569 12.8916 38.3837 13.9841 38.3128C14.7166 38.2652 15.4085 38.2204 15.9701 38.3705C16.4894 38.5093 17.0392 38.8758 17.6206 39.2662L12.0886 49.4435ZM37.9813 22.9993C37.5356 23.6631 37.0747 24.3494 36.8712 25.1109C36.659 25.9047 36.7139 26.7508 36.767 27.5689C36.8264 28.4844 36.8824 29.349 36.5464 29.9298C36.2019 30.5252 35.4171 30.9106 34.5862 31.3187C33.8567 31.677 33.1024 32.0474 32.5312 32.6187C31.96 33.1898 31.5896 33.9442 31.2313 34.6737C30.8232 35.5046 30.4378 36.2893 29.8425 36.6338C29.2616 36.9698 28.3972 36.9137 27.4816 36.8544C26.6634 36.8013 25.8174 36.7465 25.0236 36.9586C24.2622 37.1622 23.5759 37.623 22.9121 38.0688C22.1345 38.5911 21.4 39.0844 20.6855 39.0844C19.9712 39.0844 19.2367 38.5911 18.4591 38.0688C17.7953 37.6231 17.1091 37.1622 16.3475 36.9586C15.9117 36.8421 15.4604 36.8062 15.0063 36.8062C14.6333 36.8062 14.2585 36.8305 13.8895 36.8545C12.9739 36.9138 12.1094 36.97 11.5286 36.6339C10.9332 36.2894 10.5478 35.5046 10.1397 34.6737C9.78154 33.9442 9.41104 33.1899 8.83975 32.6187C8.26856 32.0475 7.51426 31.677 6.78477 31.3187C5.95391 30.9107 5.16914 30.5253 4.82461 29.9298C4.48857 29.349 4.54463 28.4844 4.604 27.569C4.65713 26.7509 4.71201 25.9048 4.4998 25.111C4.29629 24.3495 3.83535 23.6631 3.38955 22.9994C2.86738 22.2218 2.37412 21.4873 2.37412 20.7729C2.37412 20.0586 2.86738 19.3241 3.38955 18.5465C3.83535 17.8827 4.29619 17.1964 4.4998 16.4349C4.71201 15.6411 4.65713 14.795 4.604 13.9769C4.54463 13.0614 4.48857 12.1968 4.82461 11.616C5.16914 11.0206 5.95391 10.6352 6.78477 10.2271C7.51426 9.86885 8.26856 9.49834 8.83975 8.92715C9.41094 8.35596 9.78145 7.60156 10.1397 6.87207C10.5478 6.04131 10.9332 5.25654 11.5286 4.91201C12.1094 4.57607 12.9739 4.63213 13.8895 4.69141C14.7076 4.74453 15.5536 4.79941 16.3475 4.58721C17.1089 4.38359 17.7952 3.92275 18.459 3.47695C19.2366 2.95469 19.9711 2.46143 20.6855 2.46143C21.3999 2.46143 22.1344 2.95469 22.912 3.47686C23.5758 3.92266 24.2621 4.38359 25.0236 4.58711C25.8174 4.79932 26.6636 4.74443 27.4817 4.69131C28.3972 4.63203 29.2618 4.57588 29.8425 4.91191C30.4379 5.25645 30.8233 6.04121 31.2313 6.87197C31.5896 7.60146 31.9601 8.35576 32.5313 8.92705C33.1025 9.49824 33.8569 9.86875 34.5863 10.227C35.4172 10.635 36.2019 11.0204 36.5464 11.6158C36.8824 12.1966 36.8264 13.0612 36.767 13.9766C36.7139 14.7947 36.659 15.6408 36.8712 16.4346C37.0747 17.1961 37.5356 17.8825 37.9814 18.5462C38.5036 19.3238 38.9969 20.0583 38.9969 20.7727C38.9969 21.4872 38.5036 22.2217 37.9813 22.9993Z" fill="black" stroke="#F2F2F5" stroke-width="0.4"/>
<path d="M30.7206 20.0882C31.2144 19.6069 31.3887 18.9005 31.1756 18.2448C30.9625 17.589 30.4063 17.12 29.7239 17.0208L24.7681 16.3007C24.714 16.2929 24.6627 16.272 24.6185 16.2399C24.5743 16.2078 24.5386 16.1654 24.5145 16.1165L22.2981 11.6257C21.993 11.0074 21.375 10.6233 20.6855 10.6233C19.9961 10.6233 19.3781 11.0074 19.073 11.6257L16.8566 16.1165C16.8325 16.1654 16.7968 16.2078 16.7526 16.2399C16.7084 16.272 16.6571 16.2929 16.603 16.3007L11.6473 17.0208C10.9649 17.12 10.4086 17.5889 10.1955 18.2448C9.98242 18.9005 10.1567 19.6069 10.6506 20.0882L14.2366 23.5837C14.2758 23.6218 14.305 23.6689 14.3219 23.7208C14.3388 23.7728 14.3428 23.8281 14.3335 23.8819L13.4869 28.8177C13.3703 29.4974 13.6445 30.1713 14.2023 30.5766C14.5176 30.8056 14.8863 30.9219 15.2576 30.9219C15.5434 30.9219 15.8307 30.853 16.0962 30.7134L20.5287 28.3831C20.5771 28.3577 20.6308 28.3444 20.6855 28.3444C20.7401 28.3444 20.7939 28.3577 20.8422 28.3831L25.2748 30.7134C25.8851 31.0342 26.6107 30.9818 27.1687 30.5766C27.7266 30.1713 28.0007 29.4973 27.8841 28.8177L27.0375 23.8819C27.0283 23.8281 27.0323 23.7728 27.0491 23.7209C27.066 23.669 27.0952 23.622 27.1343 23.5838L30.7206 20.0882ZM25.5972 24.129L26.4438 29.0648C26.4757 29.251 26.3606 29.3572 26.3098 29.3942C26.2588 29.4312 26.1224 29.5077 25.9551 29.4198L21.5224 27.0894C21.2643 26.9537 20.9771 26.8828 20.6855 26.8828C20.394 26.8828 20.1068 26.9537 19.8487 27.0894L15.4161 29.4199C15.249 29.5078 15.1124 29.4312 15.0614 29.3942C15.0105 29.3572 14.8955 29.251 14.9274 29.0648L15.774 24.1291C15.8234 23.8417 15.802 23.5466 15.7119 23.2693C15.6218 22.992 15.4657 22.7408 15.2568 22.5373L11.6708 19.0417C11.5355 18.9098 11.5661 18.7563 11.5855 18.6965C11.605 18.6367 11.6704 18.4945 11.8574 18.4673L16.8133 17.7472C17.1018 17.7053 17.3758 17.5939 17.6117 17.4225C17.8476 17.2511 18.0383 17.025 18.1673 16.7635L20.3836 12.2728C20.4672 12.1034 20.6227 12.0851 20.6856 12.0851C20.7486 12.0851 20.904 12.1034 20.9877 12.2728L23.204 16.7635C23.333 17.025 23.5237 17.2512 23.7596 17.4225C23.9954 17.5939 24.2695 17.7053 24.558 17.7472L29.5139 18.4673C29.7009 18.4945 29.7662 18.6367 29.7857 18.6965C29.8052 18.7564 29.8358 18.9099 29.7006 19.0417L26.1144 22.5374C25.9055 22.7408 25.7493 22.992 25.6592 23.2693C25.5691 23.5466 25.5478 23.8416 25.5972 24.129Z" fill="black" stroke="#F2F2F5" stroke-width="0.4"/>
</svg>
