<svg width="49" height="50" viewBox="0 0 49 50" fill="none" xmlns="http://www.w3.org/2000/svg">
<path d="M31.525 19.6871C31.3517 19.6183 31.1582 19.621 30.987 19.6948C30.8157 19.7686 30.6808 19.9074 30.6118 20.0806L26.9053 29.3997C26.8387 29.5725 26.8429 29.7646 26.917 29.9344C26.9912 30.1041 27.1293 30.2377 27.3014 30.3061C27.4736 30.3746 27.6657 30.3724 27.8362 30.3C28.0067 30.2276 28.1417 30.0908 28.2119 29.9195L31.9184 20.6003C31.9526 20.5145 31.9695 20.4228 31.9682 20.3305C31.9669 20.2382 31.9475 20.147 31.9109 20.0622C31.8744 19.9774 31.8215 19.9006 31.7553 19.8363C31.689 19.7719 31.6108 19.7212 31.525 19.6871ZM39.4867 19.9561C39.4228 19.8582 39.3355 19.7778 39.2327 19.7221C39.1299 19.6665 39.0148 19.6373 38.8979 19.6373H33.7713C33.5848 19.6373 33.406 19.7114 33.2741 19.8433C33.1423 19.9751 33.0682 20.154 33.0682 20.3405C33.0682 20.5269 33.1423 20.7058 33.2741 20.8376C33.406 20.9695 33.5848 21.0436 33.7713 21.0436H37.8208L34.1577 29.3766C34.1106 29.4836 34.0909 29.6007 34.1005 29.7172C34.11 29.8337 34.1485 29.946 34.2124 30.0439C34.2763 30.1419 34.3635 30.2223 34.4663 30.278C34.5691 30.3337 34.6842 30.3629 34.8011 30.3629C34.9376 30.3629 35.0713 30.3232 35.1857 30.2485C35.3 30.1739 35.3902 30.0676 35.4451 29.9425L39.5416 20.6234C39.5887 20.5164 39.6083 20.3993 39.5987 20.2828C39.5891 20.1663 39.5506 20.054 39.4867 19.9561ZM22.5378 29.6535C22.5363 29.7463 22.5532 29.8384 22.5874 29.9247C22.6217 30.0109 22.6727 30.0895 22.7375 30.1559C22.8023 30.2223 22.8796 30.2753 22.965 30.3117C23.0503 30.3481 23.142 30.3672 23.2348 30.368C23.3276 30.3688 23.4196 30.3513 23.5056 30.3163C23.5915 30.2814 23.6697 30.2298 23.7357 30.1645C23.8016 30.0992 23.8539 30.0215 23.8897 29.9359C23.9254 29.8502 23.9439 29.7584 23.944 29.6656C23.9461 29.4229 23.9528 28.6294 23.9601 27.6122H24.4532C24.8416 27.6122 25.1563 27.2974 25.1563 26.909C25.1563 26.5207 24.8416 26.2059 24.4532 26.2059H23.9694C23.9834 23.9024 23.9929 21.2638 23.9649 20.9279C23.9147 20.3266 23.5636 19.8394 23.0702 19.6865C22.8376 19.6145 22.2352 19.5226 21.6658 20.2212C21.141 20.865 18.5081 25.6222 17.9856 26.5693C17.9265 26.6763 17.8964 26.7969 17.8982 26.9192C17.9 27.0414 17.9336 27.1611 17.9957 27.2664C18.0579 27.3717 18.1464 27.4589 18.2526 27.5196C18.3588 27.5802 18.4789 27.6121 18.6012 27.6121H22.5536C22.5487 28.3359 22.5432 29.0337 22.5378 29.6535ZM19.7952 26.206C20.8059 24.3912 22.0604 22.1792 22.5724 21.3774C22.5823 22.1678 22.5754 24.1564 22.563 26.206H19.7952ZM15.4862 28.9355C14.2851 28.9505 12.9985 28.9586 12.1002 28.9557C12.6092 28.2856 13.4279 27.1904 14.6668 25.4203C15.2263 24.6208 15.5899 23.871 15.7474 23.1917C15.7528 23.1686 15.757 23.1455 15.7599 23.122L15.8051 22.7685C15.8088 22.739 15.8108 22.7091 15.8108 22.6793C15.8108 21.002 14.4462 19.6374 12.7689 19.6374C11.3186 19.6374 10.0633 20.669 9.78407 22.0905C9.74812 22.2735 9.78633 22.4632 9.89029 22.6181C9.99426 22.7729 10.1555 22.88 10.3385 22.916C10.5214 22.952 10.7112 22.9137 10.866 22.8098C11.0208 22.7058 11.128 22.5446 11.164 22.3616C11.314 21.5979 11.989 21.0437 12.769 21.0437C13.6573 21.0437 14.3823 21.7554 14.4041 22.6385L14.3698 22.9067C14.2484 23.4024 13.9609 23.9766 13.5148 24.614C12.063 26.6884 11.1964 27.8231 10.7308 28.4328C10.17 29.167 10.0008 29.3885 10.1271 29.7992C10.1988 30.0324 10.3768 30.2119 10.6152 30.2914C10.7076 30.3222 10.8337 30.3643 12.5915 30.3643C13.28 30.3643 14.2191 30.3578 15.5039 30.3417C15.5963 30.3405 15.6875 30.3212 15.7723 30.2848C15.8572 30.2484 15.934 30.1956 15.9985 30.1295C16.063 30.0634 16.1138 29.9852 16.148 29.8995C16.1823 29.8138 16.1993 29.7221 16.1982 29.6298C16.1933 29.2414 15.8758 28.9295 15.4862 28.9355Z" fill="black" stroke="#F2F2F5" stroke-width="0.4"/>
<path d="M42.564 8.99173L41.9655 4.80205C41.9375 4.60114 41.8537 4.41211 41.7237 4.2564C41.5937 4.10069 41.4226 3.98452 41.2299 3.92108C41.0377 3.85634 40.8312 3.84673 40.6339 3.89334C40.4365 3.93995 40.2561 4.04092 40.1132 4.1848L38.7489 5.54914C34.4423 2.42906 29.1446 0.820309 23.8012 1.01625C18.3385 1.21593 13.0646 3.29699 8.95065 6.87598C8.88052 6.93646 8.82303 7.01018 8.78148 7.09293C8.73993 7.17568 8.71513 7.26583 8.7085 7.35819C8.70188 7.45055 8.71357 7.54331 8.74289 7.63114C8.77222 7.71897 8.8186 7.80015 8.87938 7.87C8.94017 7.93986 9.01415 7.99702 9.09708 8.03821C9.18002 8.0794 9.27027 8.1038 9.36266 8.11001C9.45505 8.11622 9.54775 8.10412 9.63546 8.07441C9.72316 8.04469 9.80412 7.99795 9.87371 7.93686C17.8056 1.0364 29.6882 0.574216 38.128 6.83755C38.5675 7.1637 39.1666 7.12039 39.5522 6.73461L40.6625 5.62433L41.4292 10.992L36.0617 10.2252L36.7701 9.51692C36.883 9.4042 36.9698 9.26804 37.0243 9.11807C37.0787 8.96811 37.0996 8.80799 37.0853 8.64907C37.0714 8.4898 37.0227 8.33553 36.9426 8.19718C36.8624 8.05882 36.7529 7.93977 36.6217 7.84845C32.6498 5.07758 27.7899 3.77408 22.9376 4.17908C18.0271 4.58849 13.4011 6.73573 9.91168 10.2252C6.09306 14.0438 3.92172 19.1192 3.7975 24.5162C3.688 29.2731 5.176 33.8519 8.01484 37.5975L7.72609 37.5563C7.38268 37.5068 7.04519 37.6197 6.79994 37.8649C6.64894 38.0149 6.54542 38.2061 6.50228 38.4145C0.270729 29.9967 0.613573 18.2479 7.62053 10.1903C7.68112 10.1206 7.72739 10.0397 7.75671 9.95216C7.78602 9.8646 7.7978 9.77212 7.79138 9.68001C7.78496 9.5879 7.76045 9.49795 7.71926 9.41531C7.67808 9.33267 7.62102 9.25894 7.55134 9.19835C7.48167 9.13775 7.40074 9.09147 7.31318 9.06215C7.22562 9.03282 7.13314 9.02104 7.04103 9.02746C6.94891 9.03389 6.85896 9.0584 6.77632 9.09959C6.69367 9.14078 6.61996 9.19785 6.55937 9.26754C2.70447 13.7006 0.61901 19.387 0.687166 25.2793C0.754572 31.1077 2.92751 36.6851 6.80847 41.012L7.4064 45.1977C7.46518 45.6096 7.747 45.9473 8.14168 46.0788C8.53637 46.2103 8.96443 46.1094 9.25862 45.8152L10.6228 44.4509C14.7101 47.413 19.6417 48.9999 24.6907 48.9998C25.2457 48.9998 25.8024 48.9806 26.3591 48.942C32.1292 48.5417 37.562 46.066 41.6568 41.9711C46.0539 37.5738 48.5482 31.7292 48.68 25.5142C48.8099 19.3924 46.6385 13.5346 42.564 8.99173ZM40.6624 40.9768C32.8029 48.8365 20.1556 49.7762 11.2438 43.1624C10.8044 42.8363 10.2053 42.8796 9.81962 43.2654L8.70953 44.3755L7.94275 39.0079L13.3103 39.7747L12.6024 40.4825C12.4895 40.5952 12.4027 40.7314 12.3482 40.8813C12.2938 41.0313 12.2729 41.1914 12.2871 41.3503C12.301 41.5096 12.3498 41.6638 12.4299 41.8022C12.5101 41.9405 12.6196 42.0595 12.7508 42.1509C20.5243 47.5735 30.9944 47.0701 38.2122 40.9266C38.3542 40.8057 38.4424 40.6334 38.4574 40.4475C38.4723 40.2616 38.4128 40.0774 38.292 39.9354C38.1711 39.7934 37.9988 39.7052 37.8129 39.6903C37.627 39.6753 37.4428 39.7348 37.3008 39.8557C30.6647 45.5041 21.0807 46.0402 13.8647 41.2089L14.7499 40.3237C14.8938 40.1807 14.9948 40.0003 15.0414 39.8029C15.088 39.6055 15.0783 39.3989 15.0135 39.2067C14.9501 39.0141 14.8339 38.8431 14.6781 38.7131C14.5224 38.5832 14.3334 38.4995 14.1325 38.4715L10.0724 37.8914C3.2605 30.1862 3.60663 18.5191 10.906 11.2195C17.5059 4.61943 27.7941 3.6238 35.5078 8.79036L34.6221 9.6761C34.3279 9.97029 34.2269 10.3984 34.3584 10.793C34.49 11.1877 34.8277 11.4694 35.2394 11.5283L39.2999 12.1084C45.6852 19.3346 45.8053 30.2537 39.5427 37.6135C39.4829 37.6839 39.4375 37.7653 39.4091 37.8532C39.3807 37.941 39.3699 38.0336 39.3774 38.1257C39.3848 38.2177 39.4102 38.3074 39.4523 38.3896C39.4944 38.4717 39.5523 38.5448 39.6226 38.6047C39.7495 38.713 39.911 38.7724 40.0778 38.7723C40.1798 38.7724 40.2805 38.7504 40.3731 38.7076C40.4656 38.6649 40.5477 38.6025 40.6137 38.5248C46.9836 31.039 47.1955 20.1187 41.3566 12.4023L41.6459 12.4436C41.9895 12.4924 42.3268 12.38 42.572 12.1348C42.7228 11.985 42.8262 11.7942 42.8694 11.5861C49.462 20.4793 48.6649 32.9742 40.6624 40.9768Z" fill="black" stroke="#F2F2F5" stroke-width="0.4"/>
<path d="M23.8829 13.2776H25.4892C26.2905 13.2776 26.9423 12.6258 26.9423 11.8245V8.66492C26.9423 7.86364 26.2905 7.21179 25.4892 7.21179H23.8829C23.0816 7.21179 22.4297 7.86364 22.4297 8.66492V11.8245C22.4297 12.6258 23.0816 13.2776 23.8829 13.2776ZM23.836 8.66492C23.836 8.65248 23.8409 8.64056 23.8497 8.63177C23.8585 8.62298 23.8704 8.61804 23.8829 8.61804H25.4892C25.5016 8.61804 25.5135 8.62298 25.5223 8.63177C25.5311 8.64056 25.536 8.65248 25.536 8.66492V11.8245C25.536 11.8369 25.5311 11.8488 25.5223 11.8576C25.5135 11.8664 25.5016 11.8714 25.4892 11.8714H23.8829C23.8704 11.8714 23.8585 11.8664 23.8497 11.8576C23.8409 11.8488 23.836 11.8369 23.836 11.8245V8.66492ZM25.4891 36.7224H23.8828C23.0815 36.7224 22.4296 37.3743 22.4296 38.1755V41.3351C22.4296 42.1364 23.0815 42.7882 23.8828 42.7882H25.4891C26.2904 42.7882 26.9422 42.1364 26.9422 41.3351V38.1755C26.9422 37.3743 26.2904 36.7224 25.4891 36.7224ZM25.536 41.3351C25.536 41.3475 25.531 41.3595 25.5222 41.3682C25.5134 41.377 25.5015 41.382 25.4891 41.382H23.8828C23.8703 41.382 23.8584 41.377 23.8496 41.3682C23.8408 41.3595 23.8359 41.3475 23.8359 41.3351V38.1755C23.8359 38.1631 23.8408 38.1512 23.8496 38.1424C23.8584 38.1336 23.8703 38.1287 23.8828 38.1287H25.4891C25.5015 38.1287 25.5134 38.1336 25.5222 38.1424C25.531 38.1512 25.536 38.1631 25.536 38.1755V41.3351ZM13.7552 15.0635C13.8925 15.2009 14.0725 15.2695 14.2524 15.2695C14.4323 15.2695 14.6123 15.2009 14.7496 15.0635C14.8814 14.9317 14.9555 14.7529 14.9555 14.5664C14.9555 14.3799 14.8814 14.2011 14.7496 14.0692L13.1022 12.4219C12.8277 12.1472 12.3825 12.1473 12.1079 12.4219C11.8333 12.6964 11.8333 13.1416 12.1079 13.4162L13.7552 15.0635ZM13.7551 34.9367L12.1078 36.584C12.0094 36.6824 11.9425 36.8077 11.9154 36.944C11.8882 37.0804 11.9022 37.2218 11.9554 37.3503C12.0086 37.4787 12.0987 37.5885 12.2143 37.6658C12.3299 37.7431 12.4659 37.7843 12.6049 37.7843C12.6973 37.7844 12.7887 37.7663 12.8741 37.731C12.9594 37.6956 13.0369 37.6438 13.1021 37.5784L14.7495 35.931C14.879 35.7986 14.9511 35.6206 14.9501 35.4354C14.9491 35.2502 14.8751 35.0729 14.7442 34.9419C14.6132 34.811 14.4359 34.737 14.2507 34.736C14.0656 34.735 13.8875 34.8071 13.7551 34.9367ZM35.6165 34.9369C35.5512 34.8716 35.4737 34.8198 35.3884 34.7844C35.3031 34.7491 35.2117 34.7309 35.1193 34.7309C35.027 34.7309 34.9355 34.7491 34.8502 34.7844C34.7649 34.8198 34.6874 34.8716 34.6221 34.9369C34.5568 35.0021 34.505 35.0796 34.4696 35.1649C34.4343 35.2502 34.4161 35.3417 34.4161 35.434C34.4161 35.5263 34.4343 35.6178 34.4696 35.7031C34.5049 35.7884 34.5567 35.8659 34.622 35.9312L36.2694 37.5786C36.3346 37.644 36.4121 37.6959 36.4975 37.7313C36.5828 37.7666 36.6743 37.7847 36.7666 37.7846C36.859 37.7847 36.9505 37.7666 37.0358 37.7312C37.1211 37.6959 37.1986 37.644 37.2638 37.5786C37.3291 37.5133 37.3809 37.4358 37.4163 37.3505C37.4516 37.2652 37.4698 37.1738 37.4698 37.0814C37.4698 36.9891 37.4516 36.8977 37.4163 36.8124C37.381 36.727 37.3292 36.6495 37.2639 36.5842L35.6165 34.9369ZM35.1195 15.2697C35.2118 15.2698 35.3033 15.2517 35.3886 15.2163C35.474 15.181 35.5515 15.1291 35.6167 15.0637L37.264 13.4163C37.3293 13.351 37.3811 13.2734 37.4164 13.1881C37.4517 13.1028 37.4699 13.0114 37.4699 12.919C37.4699 12.8267 37.4517 12.7353 37.4163 12.65C37.381 12.5646 37.3292 12.4871 37.2639 12.4219C37.132 12.29 36.9532 12.2159 36.7667 12.2159C36.5803 12.2159 36.4014 12.29 36.2696 12.4219L34.6223 14.0693C34.557 14.1346 34.5052 14.2121 34.4699 14.2975C34.4346 14.3828 34.4164 14.4742 34.4164 14.5665C34.4164 14.6589 34.4346 14.7503 34.4699 14.8356C34.5053 14.9209 34.5571 14.9984 34.6224 15.0637C34.6876 15.1291 34.765 15.181 34.8504 15.2164C34.9357 15.2517 35.0271 15.2698 35.1195 15.2697Z" fill="black" stroke="#F2F2F5" stroke-width="0.4"/>
</svg>
