<svg width="52" height="52" viewBox="0 0 52 52" fill="none" xmlns="http://www.w3.org/2000/svg">
<g clip-path="url(#clip0_4913_275)">
<path d="M26 0C11.6635 0 0 11.6635 0 26C0 40.3365 11.6635 52 26 52C40.3365 52 52 40.3365 52 26C52 11.6635 40.3365 0 26 0ZM26 48.75C13.4556 48.75 3.25 38.5444 3.25 26C3.25 13.4556 13.4556 3.25 26 3.25C38.5444 3.25 48.75 13.4556 48.75 26C48.75 38.5444 38.5444 48.75 26 48.75ZM36.6725 33.9451C36.3535 34.3735 35.8638 34.5998 35.3677 34.5998C35.0303 34.5998 34.6901 34.4952 34.3986 34.2782L25.0296 27.3035C24.8265 27.1522 24.6615 26.9556 24.5478 26.7293C24.4342 26.503 24.375 26.2532 24.375 26V11.1314C24.375 10.2338 25.1025 9.50635 26 9.50635C26.8975 9.50635 27.625 10.2338 27.625 11.1314V25.1838L36.3395 31.6712C37.0593 32.2071 37.2084 33.2252 36.6725 33.9451Z" fill="#C59E15"/>
</g>
<defs>
<clipPath id="clip0_4913_275">
<rect width="52" height="52" fill="white"/>
</clipPath>
</defs>
</svg>
