<svg width="45" height="52" viewBox="0 0 45 52" fill="none" xmlns="http://www.w3.org/2000/svg">
<path d="M43.3092 6.93689L22.8967 0.0649047C22.6396 -0.0216349 22.3611 -0.0216349 22.104 0.0649047L1.69153 6.93689C1.44505 7.01988 1.23083 7.17814 1.07907 7.38936C0.927324 7.60058 0.845697 7.8541 0.845703 8.11418V25.1761C0.845703 37.8133 9.85384 48.722 22.2652 51.1143C22.4204 51.1443 22.58 51.1443 22.7353 51.1143C35.1465 48.722 44.1548 37.8133 44.1548 25.1761V8.11418C44.1549 7.85411 44.0733 7.60058 43.9216 7.38935C43.7699 7.17812 43.5556 7.01986 43.3092 6.93689ZM41.6705 25.1761C41.6705 36.5452 33.6234 46.3696 22.5003 48.6283C11.3773 46.3696 3.33018 36.5452 3.33018 25.1761V9.00669L22.5003 2.5529L41.6705 9.00669V25.1761ZM20.1945 30.0778L33.2658 17.5628C33.7613 17.0884 34.5476 17.1054 35.0221 17.601C35.4965 18.0965 35.4794 18.8828 34.9839 19.3573L21.0712 32.678C20.8401 32.8997 20.5322 33.0233 20.212 33.0229C19.9008 33.0232 19.6009 32.9064 19.3719 32.6957L11.6127 25.5699C11.1074 25.1059 11.074 24.3201 11.5379 23.8147C12.002 23.3094 12.7879 23.2761 13.2931 23.74L20.1945 30.0778Z" fill="#C59E15"/>
</svg>
