<svg width="412" height="330" viewBox="0 0 412 330" fill="none" xmlns="http://www.w3.org/2000/svg">
<g clip-path="url(#clip0_907_20294)">
<path d="M388.533 3.50161C388.533 3.50161 381.36 -0.95482 372.051 1.17908C370.659 1.4974 369.444 1.81571 368.37 2.13403C363.309 5.27004 360.796 9.32563 360.796 9.32563C360.796 9.32563 356.337 15.916 356.525 17.6608C356.714 19.4057 356.266 20.5374 354.72 22.0819C353.175 23.6263 351.287 25.7956 352.455 27.5404C353.623 29.2853 354.39 31.0301 354.39 31.0301C354.39 31.0301 354.39 41.4992 355.169 42.855C355.947 44.2108 358.732 45.4958 358.732 45.4958L360.667 55.1868L384.864 48.4432C384.864 48.4432 382.28 39.8133 384.215 38.2571C386.15 36.7009 393.948 28.1181 394.137 18.0381C394.361 7.95805 388.533 3.50161 388.533 3.50161Z" fill="white" stroke="#263238" stroke-miterlimit="10" stroke-linecap="round" stroke-linejoin="round"/>
<path d="M371.403 4.62169C371.603 6.01285 362.283 12.3556 362.283 14.7371C362.283 17.1186 362.684 20.0895 363.074 21.0798C363.475 22.0702 364.855 26.0314 364.855 26.0314L371.603 32.9636C371.603 32.9636 375.178 37.7266 378.352 38.3161C381.03 38.823 382.717 38.7523 384.251 38.2453C387.719 34.4727 394.019 26.1375 394.173 18.0264C394.361 7.94633 388.545 3.48989 388.545 3.48989C388.545 3.48989 381.372 -0.966538 372.064 1.16736C370.671 1.48568 369.456 1.80399 368.383 2.12231C368.383 2.12231 371.202 3.23052 371.403 4.62169Z" fill="#263238" stroke="#263238" stroke-miterlimit="10" stroke-linecap="round" stroke-linejoin="round"/>
<path d="M370.011 16.3169L374.601 18.4272C377.161 19.6061 378.305 22.6242 377.161 25.1944L373.562 33.2937C372.395 35.911 369.374 37.1371 366.708 36.0643L365.245 35.4748C362.567 34.3902 361.234 31.3603 362.26 28.6605L366.378 17.8023C366.932 16.3522 368.596 15.6684 370.011 16.3169Z" fill="white" stroke="#263238" stroke-miterlimit="10" stroke-linecap="round" stroke-linejoin="round"/>
<path d="M391.058 6.21344C391.058 6.21344 382.776 4.29175 374.6 18.4274L371.273 16.6707C371.273 16.6707 371.273 4.84585 380.582 0.589844L385.431 2.72374C385.431 2.72374 375.155 5.63575 373.598 15.1263C373.598 15.1263 379.414 5.63575 388.534 3.50185L391.058 6.21344Z" fill="white" stroke="#263238" stroke-miterlimit="10" stroke-linecap="round" stroke-linejoin="round"/>
<path d="M367.015 30.0398L349.955 42.0533C349.955 42.0533 352.09 43.02 350.734 43.9868C349.377 44.9535 348.598 45.543 347.82 44.7649C347.041 43.9868 346.652 42.631 347.43 41.2752C348.209 39.9312 365.08 28.2949 365.08 28.2949L367.015 30.0398Z" fill="#263238" stroke="#263238" stroke-miterlimit="10" stroke-linecap="round" stroke-linejoin="round"/>
<path d="M329.321 319.955C331.492 317.256 340.588 315.287 340.588 315.287L344.375 309.875C344.375 309.875 343.832 307.175 343.832 305.006C343.832 302.837 344.375 297.968 344.918 296.353C345.46 294.726 338.016 256.115 338.559 240.435C339.007 227.349 341.072 204.548 341.744 197.333C341.803 196.342 341.874 195.552 341.956 195.057C342.711 190.554 345.012 166.574 345.012 166.574L403.718 165.819L399.589 182.879L402.585 224.107L402.963 245.988C402.963 245.988 409.452 279.388 410.101 288.477C410.749 297.555 411.398 323.186 411.398 323.186C411.398 323.186 406.207 325.131 403.93 325.461C401.653 325.791 398.09 324.482 396.462 323.516C394.834 322.537 393.218 322.219 391.92 320.922C390.622 319.625 388.027 319.944 389.643 315.405C391.271 310.866 391.271 310.866 391.271 310.866C391.271 310.866 391.92 304.7 391.92 299.512C391.92 294.325 383.803 262.54 382.505 254.429C381.208 246.318 375.191 204.63 375.191 204.63L366.189 224.684L365.434 227.313L360.16 257.223L367.204 311.325V327.56C367.204 327.56 354.214 330.259 347.714 329.186C341.213 328.102 334.724 328.644 332.011 327.56C329.321 326.451 327.162 322.655 329.321 319.955Z" fill="#263238" stroke="#263238" stroke-miterlimit="10" stroke-linecap="round" stroke-linejoin="round"/>
<path d="M389.703 51.7445C389.703 51.7445 405.795 68.4149 406.963 75.7715C408.131 83.14 405.417 127.704 405.417 127.704C405.417 127.704 406.585 162.389 406.385 166.079C406.196 169.757 400.179 172.669 386.022 174.603C371.864 176.536 333.734 171.054 331.221 170.288C328.696 169.51 334.406 144.988 334.017 130.062C333.628 115.137 347.042 80.4284 351.112 72.6827C355.182 64.937 358.096 62.025 358.096 62.025C358.096 62.025 376.324 48.6439 389.703 51.7445Z" fill="#704B8C" stroke="#263238" stroke-miterlimit="10" stroke-linecap="round" stroke-linejoin="round"/>
<path d="M388.346 44.1875C388.346 44.1875 380.099 45.2368 378.353 46.2153C376.607 47.182 355.961 58.1463 355.961 58.1463L358.096 62.025C358.096 62.025 380.394 51.7564 382.718 51.5559C385.043 51.3673 389.703 51.7446 389.703 51.7446L388.346 44.1875Z" fill="#704B8C" stroke="#263238" stroke-miterlimit="10" stroke-linecap="round" stroke-linejoin="round"/>
<path d="M321.948 0.708008L321.759 12.7097L316.509 22.0706L315.754 1.2739L321.948 0.708008Z" fill="white" stroke="#263238" stroke-miterlimit="10" stroke-linecap="round" stroke-linejoin="round"/>
<path d="M321.947 0.708008L340.14 3.14844L339.573 15.1384L329.451 26.3855L309.383 25.0769L316.509 22.0706L327.009 23.391L327.198 8.39476L322.136 7.82887L321.947 0.708008Z" fill="#263238" stroke="#263238" stroke-miterlimit="10" stroke-linecap="round" stroke-linejoin="round"/>
<path d="M299.826 10.623H305.053V17.8264L299.826 17.6024V10.623Z" fill="#263238" stroke="#263238" stroke-miterlimit="10" stroke-linecap="round" stroke-linejoin="round"/>
<path d="M297.408 14.1127C297.408 16.0344 298.494 17.6024 299.839 17.6024C301.184 17.6024 302.269 16.0344 302.269 14.1127C302.269 12.1911 301.184 10.623 299.839 10.623C298.494 10.623 297.408 12.1911 297.408 14.1127Z" fill="white" stroke="#263238" stroke-miterlimit="10" stroke-linecap="round" stroke-linejoin="round"/>
<path d="M315.754 1.27344L305.443 4.64524L305.254 24.6992L309.383 25.0764L316.509 22.0701L315.754 1.27344Z" fill="white" stroke="#263238" stroke-miterlimit="10" stroke-linecap="round" stroke-linejoin="round"/>
<path d="M312.946 25.266L312.191 30.8896H305.997V35.9473H295.874V32.0096L295.685 30.5123L291.367 29.7578C291.367 29.7578 290.435 26.9519 291.556 25.4428C292.677 23.9456 294.553 23.7569 294.553 23.7569L296.818 23.5801L305.253 24.7001L312.946 25.266Z" fill="#263238" stroke="#263238" stroke-miterlimit="10" stroke-linecap="round" stroke-linejoin="round"/>
<path d="M296.817 23.5796C296.817 23.5796 298.693 23.9568 298.315 25.8314C297.938 27.7059 295.684 29.769 292.877 29.5804C290.069 29.3918 288.193 28.8259 291.567 25.4541C294.941 22.0705 296.817 23.5796 296.817 23.5796Z" fill="white" stroke="#263238" stroke-miterlimit="10" stroke-linecap="round" stroke-linejoin="round"/>
<path d="M302.244 35.8994V46.4274L300.062 50.3887L300.168 61.6477L291.296 61.1172L290.564 38.7171L292.44 36.2177L302.244 35.8994Z" fill="white" stroke="#263238" stroke-miterlimit="10" stroke-linecap="round" stroke-linejoin="round"/>
<path d="M302.245 35.8994L311.318 36.1116L311.849 46.6397L309.973 50.3887L309.654 61.742L300.169 61.6477L300.062 50.3887L302.245 46.4274V35.8994Z" fill="#263238" stroke="#263238" stroke-miterlimit="10" stroke-linecap="round" stroke-linejoin="round"/>
<path d="M290.564 38.7171L289.88 34.8383L287.108 30.3701L271.735 30.6884L271.57 33.2939L258.805 34.2135L259.572 70.3483L264.656 70.0418L274.496 76.9504L288.653 79.1079L300.652 77.4102L290.34 75.5711L290.494 70.1951H302.185V67.7311H298.646L294.186 61.5769L291.296 61.1171L290.564 38.7171Z" fill="#263238" stroke="#263238" stroke-miterlimit="10" stroke-linecap="round" stroke-linejoin="round"/>
<path d="M268.648 69.1133H295.57V67.5806H268.648V69.1133Z" fill="white" stroke="#263238" stroke-miterlimit="10" stroke-linecap="round" stroke-linejoin="round"/>
<path d="M290.564 38.7178L284.653 41.1346H271.888L268.195 45.5911V58.2058L271.888 60.658L268.809 63.122L268.655 67.5785H295.578L286.034 62.2025L291.295 61.1178L290.564 38.7178Z" fill="white" stroke="#263238" stroke-miterlimit="10" stroke-linecap="round" stroke-linejoin="round"/>
<path d="M273.725 56.8174H284.189V44.6742H273.725V56.8174Z" stroke="#263238" stroke-miterlimit="10" stroke-linecap="round" stroke-linejoin="round"/>
<path d="M276.189 52.2051H280.955V48.3617H276.189V52.2051Z" fill="white" stroke="#263238" stroke-miterlimit="10" stroke-linecap="round" stroke-linejoin="round"/>
<path d="M258.805 34.2139L208.192 37.1377L206.352 40.0615L207.118 65.5739L209.891 67.4249L252.044 69.2641L254.345 70.9617L259.572 70.3487L258.805 34.2139Z" fill="white" stroke="#263238" stroke-miterlimit="10" stroke-linecap="round" stroke-linejoin="round"/>
<path d="M300.652 77.4102L300.345 80.1807L287.887 82.1849L288.654 79.1078L300.652 77.4102Z" fill="white" stroke="#263238" stroke-miterlimit="10" stroke-linecap="round" stroke-linejoin="round"/>
<path d="M254.723 265.488V217.705L264.503 204.796L274.283 217.705V265.488H278.625L275.369 274.719H264.503H253.637L250.369 265.488H254.723Z" fill="#263238" stroke="#263238" stroke-width="5" stroke-miterlimit="10" stroke-linecap="round" stroke-linejoin="round"/>
<path d="M299.342 208.816V217.611C299.342 219.828 283.757 221.632 264.526 221.632C245.296 221.632 229.711 219.828 229.711 217.611V208.816H299.342Z" fill="#263238" stroke="#263238" stroke-miterlimit="10" stroke-linecap="round" stroke-linejoin="round"/>
<path d="M229.723 208.816C229.723 211.033 245.308 212.836 264.538 212.836C283.768 212.836 299.353 211.033 299.353 208.816C299.353 206.6 283.768 204.796 264.538 204.796C245.308 204.796 229.723 206.6 229.723 208.816Z" fill="white" stroke="#263238" stroke-miterlimit="10" stroke-linecap="round" stroke-linejoin="round"/>
<path d="M246.147 205.504V183.575H249.899V162.402H256.27V141.605H258.523V125.111L265.271 125.489L272.031 125.111V141.605H274.273V162.402H280.656V183.575H284.407V205.504H290.023V215.065H265.271H240.52V205.504H246.147Z" fill="#263238" stroke="#263238" stroke-miterlimit="10" stroke-linecap="round" stroke-linejoin="round"/>
<path d="M263.512 117.919C291.367 117.919 313.959 123.118 313.959 129.52C313.959 135.933 291.378 141.121 263.512 141.121C235.645 141.121 213.064 135.922 213.064 129.52C213.064 123.118 235.657 117.919 263.512 117.919ZM263.512 137.124C287.733 137.124 307.364 133.41 307.364 128.824C307.364 124.238 287.733 120.524 263.512 120.524C239.291 120.524 219.659 124.238 219.659 128.824C219.659 133.41 239.291 137.124 263.512 137.124Z" fill="white" stroke="#263238" stroke-miterlimit="10" stroke-linecap="round" stroke-linejoin="round"/>
<path d="M293.715 117.212V124.58C293.715 126.443 280.643 127.952 264.528 127.952C248.412 127.952 235.34 126.443 235.34 124.58V117.212H293.715Z" fill="#263238" stroke="#263238" stroke-miterlimit="10" stroke-linecap="round" stroke-linejoin="round"/>
<path d="M264.539 120.583C280.659 120.583 293.727 119.074 293.727 117.212C293.727 115.349 280.659 113.84 264.539 113.84C248.419 113.84 235.352 115.349 235.352 117.212C235.352 119.074 248.419 120.583 264.539 120.583Z" fill="white" stroke="#263238" stroke-miterlimit="10" stroke-linecap="round" stroke-linejoin="round"/>
<path d="M245.863 87.3491L242.406 94.3992L243.739 107.415L248.211 107.886V117.613H282.885L281.469 108.995H287.273L282.885 95.2009H274.26V89.5537H283.203L284.619 92.3714H296.228C296.228 92.3714 299.048 89.707 297.644 87.1958C296.228 84.6847 291.992 85.1563 291.992 85.1563L277.882 85.4038L245.863 87.3491Z" fill="#263238" stroke="#263238" stroke-miterlimit="10" stroke-linecap="round" stroke-linejoin="round"/>
<path d="M249.627 96.439L259.041 94.5527L261.082 110.079L256.375 111.023L256.528 117.601H248.211V107.887L243.739 107.415L242.406 94.3994L249.627 96.439Z" fill="white" stroke="#263238" stroke-miterlimit="10" stroke-linecap="round" stroke-linejoin="round"/>
<path d="M288.653 79.1081L287.887 82.1852L264.963 81.2538L257.271 82.1852L257.118 85.8753L241.58 84.4841L241.887 80.6408L246.807 80.9473L247.573 78.9549L255.112 78.3418L259.112 74.0386L259.572 70.3485L264.657 70.042L274.496 76.9506L288.653 79.1081Z" fill="white" stroke="#263238" stroke-miterlimit="10" stroke-linecap="round" stroke-linejoin="round"/>
<path d="M241.58 84.4842H238.041L238.501 87.1015L247.574 89.4005L277.882 85.4038L277.729 81.8787L264.964 81.2539L257.271 82.1853L257.118 85.8754L241.58 84.4842Z" fill="#263238" stroke="#263238" stroke-miterlimit="10" stroke-linecap="round" stroke-linejoin="round"/>
<path d="M257.118 85.8755L247.432 86.8776L247.574 89.4006L238.501 87.1016L238.041 84.4844H241.58L257.118 85.8755Z" fill="white" stroke="#263238" stroke-miterlimit="10" stroke-linecap="round" stroke-linejoin="round"/>
<path d="M237.629 99.6569C237.629 103.948 240.366 107.414 243.752 107.414C247.126 107.414 249.875 103.937 249.875 99.6569C249.875 95.3656 247.138 91.8994 243.752 91.8994C240.366 91.8877 237.629 95.3656 237.629 99.6569Z" fill="#263238" stroke="#263238" stroke-miterlimit="10" stroke-linecap="round" stroke-linejoin="round"/>
<path d="M238.1 99.3395C238.1 101.462 239.256 103.183 240.683 103.183C242.111 103.183 243.267 101.462 243.267 99.3395C243.267 97.2174 242.111 95.4961 240.683 95.4961C239.256 95.4961 238.1 97.2174 238.1 99.3395Z" fill="white" stroke="#263238" stroke-miterlimit="10" stroke-linecap="round" stroke-linejoin="round"/>
<path d="M249.627 96.4387C251.054 96.4387 252.21 94.718 252.21 92.5953C252.21 90.4727 251.054 88.752 249.627 88.752C248.2 88.752 247.043 90.4727 247.043 92.5953C247.043 94.718 248.2 96.4387 249.627 96.4387Z" fill="white" stroke="#263238" stroke-miterlimit="10" stroke-linecap="round" stroke-linejoin="round"/>
<path d="M267.889 109.525C268.538 109.525 269.175 109.301 269.706 108.841C270.851 107.839 270.957 106.106 269.954 104.963L258.711 92.1946C257.708 91.051 255.973 90.9449 254.829 91.947C253.685 92.9492 253.579 94.6822 254.581 95.8258L265.825 108.606C266.367 109.207 267.122 109.525 267.889 109.525Z" fill="white" stroke="#263238" stroke-miterlimit="10" stroke-linecap="round" stroke-linejoin="round"/>
<path d="M291.332 137.832C292.358 137.832 293.396 137.466 294.234 136.735C296.051 135.132 296.24 132.361 294.635 130.534L271.181 103.878C269.577 102.051 266.804 101.874 264.976 103.477C263.159 105.08 262.97 107.851 264.574 109.678L288.017 136.334C288.901 137.325 290.105 137.832 291.332 137.832Z" fill="#263238" stroke="#263238" stroke-miterlimit="10" stroke-linecap="round" stroke-linejoin="round"/>
<path d="M304.285 150.906C304.934 150.906 305.571 150.682 306.102 150.222C307.247 149.22 307.353 147.487 306.35 146.344L293.396 131.618C292.393 130.475 290.659 130.369 289.515 131.371C288.37 132.373 288.264 134.106 289.267 135.25L302.221 149.975C302.764 150.588 303.519 150.906 304.285 150.906Z" fill="white" stroke="#263238" stroke-miterlimit="10" stroke-linecap="round" stroke-linejoin="round"/>
<path d="M306.987 100.683C307.541 100.589 308.072 100.294 308.45 99.8227C309.287 98.7852 309.11 97.2644 308.072 96.4391L296.404 87.1018C295.366 86.2765 293.844 86.4416 293.018 87.4791C292.181 88.5165 292.358 90.0374 293.396 90.8627L305.064 100.2C305.63 100.648 306.326 100.801 306.987 100.683Z" fill="white" stroke="#263238" stroke-miterlimit="10" stroke-linecap="round" stroke-linejoin="round"/>
<path d="M331.573 121.574C332.458 121.421 333.308 120.949 333.909 120.183C335.243 118.521 334.971 116.092 333.308 114.771L308.981 95.307C307.317 93.9748 304.887 94.2459 303.565 95.9083C302.232 97.5706 302.504 99.9992 304.167 101.32L328.494 120.784C329.391 121.515 330.512 121.763 331.573 121.574Z" fill="#263238" stroke="#263238" stroke-miterlimit="10" stroke-linecap="round" stroke-linejoin="round"/>
<path d="M344.764 130.912C345.319 130.817 345.85 130.523 346.227 130.051C347.065 129.013 346.888 127.493 345.85 126.667L332.412 115.915C331.374 115.078 329.852 115.255 329.026 116.293C328.188 117.33 328.365 118.851 329.404 119.676L342.841 130.428C343.396 130.876 344.104 131.029 344.764 130.912Z" fill="white" stroke="#263238" stroke-miterlimit="10" stroke-linecap="round" stroke-linejoin="round"/>
<path d="M287.32 218.248L323.681 304.583" stroke="#263238" stroke-width="5" stroke-miterlimit="10" stroke-linecap="round" stroke-linejoin="round"/>
<path d="M240.518 215.064L204.617 303.25" stroke="#263238" stroke-width="5" stroke-miterlimit="10" stroke-linecap="round" stroke-linejoin="round"/>
<path d="M264.539 208.816V316.855" stroke="#263238" stroke-width="5" stroke-miterlimit="10" stroke-linecap="round" stroke-linejoin="round"/>
<path d="M265.459 297.815L333.155 307.483V313.649L268.68 307.483L268.409 326.535H260.079V307.483L196.949 313.118V307.212L265.459 297.815Z" fill="#263238" stroke="#263238" stroke-width="5" stroke-miterlimit="10" stroke-linecap="round" stroke-linejoin="round"/>
<path d="M261.932 280.909V283.42C239.363 283.574 221.324 287.087 221.324 291.39C221.324 295.799 240.212 299.372 263.513 299.372C286.814 299.372 305.702 295.799 305.702 291.39C305.702 287.217 288.772 283.798 267.194 283.444V280.933C292.276 281.369 312.037 286.179 312.037 292.062C312.037 298.228 290.306 303.227 263.501 303.227C236.696 303.227 214.965 298.228 214.965 292.062C214.988 286.026 235.871 281.098 261.932 280.909Z" fill="white" stroke="#263238" stroke-miterlimit="10" stroke-linecap="round" stroke-linejoin="round"/>
<path d="M323.328 315.853C323.328 317.268 324.473 318.412 325.888 318.412C327.304 318.412 328.448 317.268 328.448 315.853C328.448 314.439 327.304 313.295 325.888 313.295C324.473 313.295 323.328 314.439 323.328 315.853Z" fill="#263238"/>
<path d="M199.65 315.158C199.65 316.573 200.795 317.716 202.211 317.716C203.626 317.716 204.771 316.573 204.771 315.158C204.771 313.743 203.626 312.6 202.211 312.6C200.795 312.6 199.65 313.743 199.65 315.158Z" fill="#263238"/>
<path d="M316.59 137.784L310.774 138.562C310.774 138.562 309.028 138.173 308.06 138.173C307.093 138.173 303.023 137.784 301.666 137.006C300.309 136.228 299.92 138.362 301.277 139.329C302.633 140.295 304.957 141.262 304.957 141.262C304.957 141.262 299.719 145.907 299.33 147.275C298.941 148.631 299.519 150.187 300.109 150.765C300.687 151.342 303.601 156.577 304.957 157.544C306.314 158.51 309.995 158.899 310.585 158.51C311.163 158.121 311.552 157.544 312.331 156.966C313.11 156.388 317.959 150.765 317.959 150.765C317.959 150.765 315.045 143.219 316.59 137.784Z" fill="white" stroke="#263238" stroke-miterlimit="10" stroke-linecap="round" stroke-linejoin="round"/>
<path d="M304.957 141.274L306.75 140.143" stroke="#263238" stroke-miterlimit="10" stroke-linecap="round" stroke-linejoin="round"/>
<path d="M377.867 87.7965C377.867 87.7965 373.219 124.615 370.883 130.038C368.559 135.461 364.288 142.252 360.796 144.186C357.304 146.119 320.07 151.931 320.07 151.931C320.07 151.931 317.156 150.576 316.389 146.897C315.61 143.219 316.578 137.784 316.578 137.784L322.595 134.495C322.595 134.495 323.373 132.361 324.73 131.005C326.087 129.649 328.8 128.293 329.768 127.716C330.735 127.138 334.416 121.904 336.552 120.937C338.687 119.97 341.4 119.192 342.946 117.647C344.491 116.103 347.984 111.258 347.984 111.258C347.984 111.258 346.438 104.667 347.405 101.378C348.373 98.0887 349.73 81.996 351.287 77.1506C352.844 72.3051 356.325 66.3042 360.595 63.7812" fill="#704B8C"/>
<path d="M377.867 87.7965C377.867 87.7965 373.219 124.615 370.883 130.038C368.559 135.461 364.288 142.252 360.796 144.186C357.304 146.119 320.07 151.931 320.07 151.931C320.07 151.931 317.156 150.576 316.389 146.897C315.61 143.219 316.578 137.784 316.578 137.784L322.595 134.495C322.595 134.495 323.373 132.361 324.73 131.005C326.087 129.649 328.8 128.293 329.768 127.716C330.735 127.138 334.416 121.904 336.552 120.937C338.687 119.97 341.4 119.192 342.946 117.647C344.491 116.103 347.984 111.258 347.984 111.258C347.984 111.258 346.438 104.667 347.405 101.378C348.373 98.0887 349.73 81.996 351.287 77.1506C352.844 72.3051 356.325 66.3042 360.595 63.7812" stroke="#263238" stroke-miterlimit="10" stroke-linecap="round" stroke-linejoin="round"/>
<path d="M349.564 113.368C349.564 113.368 352.667 119.18 359.062 121.114" stroke="#263238" stroke-miterlimit="10" stroke-linecap="round" stroke-linejoin="round"/>
<path d="M347.43 116.28C347.43 116.28 350.143 122.093 354.803 126.749" stroke="#263238" stroke-miterlimit="10" stroke-linecap="round" stroke-linejoin="round"/>
</g>
<g clip-path="url(#clip1_907_20294)">
<path d="M119.261 53.5H98.9133C94.1054 53.5 90.2129 57.3686 90.2129 62.1469V70.6438C90.2129 75.422 94.1054 79.2906 98.9133 79.2906H99.6878L96.7307 86.7179L104.767 79.2906H119.261C124.069 79.2906 127.962 75.422 127.962 70.6438V62.1469C127.962 57.3686 124.069 53.5 119.261 53.5Z" fill="white" stroke="#263238" stroke-miterlimit="10" stroke-linecap="round" stroke-linejoin="round"/>
<path d="M99.9386 69.2441C100.961 69.2441 101.789 68.4206 101.789 67.4048C101.789 66.3889 100.961 65.5654 99.9386 65.5654C98.9165 65.5654 98.0879 66.3889 98.0879 67.4048C98.0879 68.4206 98.9165 69.2441 99.9386 69.2441Z" fill="#263238"/>
<path d="M109.444 69.2441C110.467 69.2441 111.295 68.4206 111.295 67.4048C111.295 66.3889 110.467 65.5654 109.444 65.5654C108.422 65.5654 107.594 66.3889 107.594 67.4048C107.594 68.4206 108.422 69.2441 109.444 69.2441Z" fill="#263238"/>
<path d="M120.869 67.4048C120.869 68.4144 120.045 69.2441 119.019 69.2441C118.003 69.2441 117.168 68.4244 117.168 67.4048C117.168 66.3951 117.993 65.5654 119.019 65.5654C120.045 65.5754 120.869 66.3951 120.869 67.4048Z" fill="#263238"/>
<path d="M102.573 265.853H95.2207V272.27H102.573V265.853Z" fill="#CCCCCC" stroke="#263238" stroke-miterlimit="10" stroke-linecap="round" stroke-linejoin="round"/>
<path d="M102.562 265.853H97.9355V272.27H102.562V265.853Z" fill="#CCCCCC" stroke="#263238" stroke-miterlimit="10" stroke-linecap="round" stroke-linejoin="round"/>
<path d="M116.101 265.453H113.365V272.331H116.101V265.453Z" fill="#CCCCCC" stroke="#263238" stroke-miterlimit="10" stroke-linecap="round" stroke-linejoin="round"/>
<path d="M96.5487 151.284H6.78839C3.31828 151.284 0.501953 154.083 0.501953 157.532V201.266H102.835V157.532C102.835 154.083 100.019 151.284 96.5487 151.284Z" fill="#CCCCCC" stroke="#263238" stroke-miterlimit="10" stroke-linecap="round" stroke-linejoin="round"/>
<path d="M120.216 200.616H0.501953V250.608H120.216V200.616Z" fill="#878787" stroke="#263238" stroke-miterlimit="10" stroke-linecap="round" stroke-linejoin="round"/>
<path d="M120.216 237.902H0.501953V250.608H120.216V237.902Z" stroke="#263238" stroke-miterlimit="10" stroke-linecap="round" stroke-linejoin="round"/>
<path d="M120.217 200.616H10.4805V250.608H120.217V200.616Z" fill="#CCCCCC" stroke="#263238" stroke-miterlimit="10" stroke-linecap="round" stroke-linejoin="round"/>
<path d="M120.217 237.902H10.4805V250.608H120.217V237.902Z" stroke="#263238" stroke-miterlimit="10" stroke-linecap="round" stroke-linejoin="round"/>
<path d="M0.501953 250.458V272.33H4.99801V266.092H7.45224V272.33H10.4697V250.458H0.501953Z" fill="#CCCCCC" stroke="#263238" stroke-miterlimit="10" stroke-linecap="round" stroke-linejoin="round"/>
<path d="M10.4805 250.458V272.33H14.5943V266.092H116.103V272.33H120.217V250.458H10.4805Z" fill="white" stroke="#263238" stroke-miterlimit="10" stroke-linecap="round" stroke-linejoin="round"/>
<path d="M119.823 201.266H96.9609V177.555C96.9609 175.116 98.9525 173.137 101.407 173.137H117.007C118.566 173.137 119.823 174.386 119.823 175.936V201.266Z" fill="#878787" stroke="#263238" stroke-miterlimit="10" stroke-linecap="round" stroke-linejoin="round"/>
<path d="M119.823 201.266H108.396V177.535C108.396 175.106 110.378 173.137 112.822 173.137H117.006C118.565 173.137 119.823 174.386 119.823 175.936V201.266Z" fill="#CCCCCC" stroke="#263238" stroke-miterlimit="10" stroke-linecap="round" stroke-linejoin="round"/>
<path d="M23.3645 201.266H0.501953V177.555C0.501953 175.116 2.4935 173.137 4.94772 173.137H20.5481C22.1072 173.137 23.3645 174.386 23.3645 175.936V201.266Z" fill="#878787" stroke="#263238" stroke-miterlimit="10" stroke-linecap="round" stroke-linejoin="round"/>
<path d="M23.364 201.266H11.9277V177.535C11.9277 175.106 13.9092 173.137 16.3534 173.137H20.5376C22.0967 173.137 23.354 174.386 23.354 175.936V201.266H23.364Z" fill="#CCCCCC" stroke="#263238" stroke-miterlimit="10" stroke-linecap="round" stroke-linejoin="round"/>
<path d="M4.99701 266.092H2.88477V272.15H4.99701V266.092Z" fill="#CCCCCC" stroke="#263238" stroke-miterlimit="10" stroke-linecap="round" stroke-linejoin="round"/>
<path d="M130.373 236.923L130.816 244.8H131.842L132.576 238.822L130.373 236.923Z" fill="#F36600" stroke="#263238" stroke-miterlimit="10" stroke-linecap="round" stroke-linejoin="round"/>
<path d="M94.9889 167.888C94.9889 167.888 105.419 167.738 108.055 170.077C110.7 172.416 129.64 210.652 133.904 216.93C138.159 223.208 144.918 231.964 146.538 233.864C148.157 235.763 153.146 243.06 155.057 244.08C156.968 245.1 156.968 245.689 155.208 246.119C153.448 246.559 149.183 246.409 146.839 246.119C144.486 245.829 141.408 244.66 140.08 242.62C138.763 240.581 136.992 239.412 135.232 239.122C133.472 238.832 130.676 238.832 130.384 236.933C130.092 235.033 131.269 228.176 131.269 228.176C131.269 228.176 125.395 219.859 121.432 217.08C117.469 214.301 108.658 203.365 105.279 198.397C101.899 193.428 97.0508 184.971 95.1498 184.532C93.2387 184.092 88.3906 187.451 88.3906 187.451L88.974 168.188L94.9889 167.888Z" fill="white" stroke="#263238" stroke-miterlimit="10" stroke-linecap="round" stroke-linejoin="round"/>
<path d="M155.047 244.069C154.373 243.71 153.307 242.56 152.15 241.14C151.848 241.48 151.496 241.84 151.084 242.17C149.465 243.48 146.236 245.089 143.299 243.78C140.362 242.47 137.576 237.792 134.93 234.873C132.949 232.684 131.38 231.974 130.716 231.754C130.454 233.723 130.223 235.952 130.374 236.912C130.666 238.811 133.462 238.811 135.222 239.101C136.982 239.391 138.743 240.561 140.07 242.6C141.388 244.639 144.476 245.809 146.829 246.099C149.183 246.389 153.438 246.539 155.198 246.099C156.958 245.679 156.958 245.099 155.047 244.069Z" fill="#F36600" stroke="#263238" stroke-miterlimit="10" stroke-linecap="round" stroke-linejoin="round"/>
<path d="M84.709 262.463L85.8757 272.099H87.0526L87.7868 263.922L84.709 262.463Z" fill="#F36600" stroke="#263238" stroke-miterlimit="10" stroke-linecap="round" stroke-linejoin="round"/>
<path d="M87.2049 186.421C87.2049 186.421 94.5475 181.023 99.9789 184.082C105.41 187.151 103.359 206.994 100.864 220.279C98.3696 233.564 97.0419 256.766 97.0419 256.766C97.0419 256.766 99.9789 262.893 101.005 264.943C102.031 266.982 103.499 269.471 104.827 270.051C106.145 270.631 108.498 271.36 107.321 272.09C106.145 272.82 98.2187 272.38 97.1928 272.09C96.1668 271.8 93.6724 265.522 89.116 264.503C84.5596 263.483 83.5336 260.124 84.4187 257.355C85.3039 254.586 87.9391 253.857 88.5326 250.788C89.116 247.719 87.0641 198.097 86.3298 192.849C85.5855 187.591 87.2049 186.421 87.2049 186.421Z" fill="white" stroke="#263238" stroke-miterlimit="10" stroke-linecap="round" stroke-linejoin="round"/>
<path d="M104.826 270.05C104.273 269.81 103.69 269.221 103.126 268.481C101.98 269.66 100.23 271.26 99.3847 271.08C98.0671 270.79 96.4477 269.331 94.2449 266.702C92.0422 264.073 89.9903 263.493 88.9543 262.613C88.2301 262.003 86.5 257.795 85.5344 255.346C85.0718 255.915 84.6594 256.555 84.4079 257.365C83.5228 260.134 84.5588 263.493 89.1051 264.512C93.6615 265.532 96.156 271.81 97.182 272.1C98.2079 272.389 106.144 272.829 107.311 272.1C108.498 271.37 106.144 270.64 104.826 270.05Z" fill="#F36600" stroke="#263238" stroke-miterlimit="10" stroke-linecap="round" stroke-linejoin="round"/>
<path d="M72.9124 145.196C72.9124 145.196 86.6722 148.235 89.8506 148.585C93.0291 148.934 96.5595 148.815 96.5595 148.815C96.5595 148.815 98.4404 146.006 99.0339 145.656C99.6172 145.306 103.62 144.606 103.62 144.606C103.62 144.606 105.501 142.737 106.095 143.087C106.678 143.436 106.215 144.376 105.743 145.306C105.27 146.245 103.037 147.645 102.685 147.765C102.333 147.885 111.858 150.684 111.858 150.684C111.858 150.684 113.98 150.804 113.618 151.623C113.266 152.443 110.329 156.302 108.438 156.652C106.557 157.002 104.325 156.532 99.9693 156.532C95.614 156.532 92.325 155.242 85.9681 155.242C79.6113 155.242 64.4434 155.942 64.4434 155.942C64.4434 155.942 65.4995 152.313 65.9722 150.794C66.445 149.284 72.9124 145.196 72.9124 145.196Z" fill="white" stroke="#263238" stroke-miterlimit="10" stroke-linecap="round" stroke-linejoin="round"/>
<path d="M105.13 153.972C105.08 154.842 105.693 156.252 106.679 156.651C107.856 157.121 108.56 156.302 107.976 155.602C107.483 155.012 107.202 154.092 106.558 153.632C105.603 152.953 105.17 153.303 105.13 153.972Z" stroke="#263238" stroke-miterlimit="10" stroke-linecap="round" stroke-linejoin="round"/>
<path d="M108.438 156.651C108.438 156.651 110.198 156.771 110.44 155.832C110.671 154.892 108.438 150.334 107.855 150.924C107.271 151.513 108.438 156.651 108.438 156.651Z" fill="white" stroke="#263238" stroke-miterlimit="10" stroke-linecap="round" stroke-linejoin="round"/>
<path d="M112.672 153.262C112.672 153.262 113.97 148.004 113.145 147.534C112.32 147.065 111.023 152.333 111.385 153.382C111.737 154.432 112.672 153.262 112.672 153.262Z" fill="white" stroke="#263238" stroke-miterlimit="10" stroke-linecap="round" stroke-linejoin="round"/>
<path d="M110.44 155.832C110.44 155.832 112.914 154.312 112.673 153.263C112.441 152.213 110.792 148.824 110.319 149.874C109.856 150.924 110.44 155.832 110.44 155.832Z" fill="white" stroke="#263238" stroke-miterlimit="10" stroke-linecap="round" stroke-linejoin="round"/>
<path d="M96.791 152.563C96.791 152.563 98.7926 151.394 99.9694 151.624C101.146 151.854 103.379 153.263 103.379 153.263" stroke="#263238" stroke-miterlimit="10" stroke-linecap="round" stroke-linejoin="round"/>
<path d="M51.9607 107.03C51.9607 107.03 35.3645 114.038 32.7192 117.826C30.0739 121.625 30.5164 160.441 30.5164 160.441C30.5164 160.441 22.1479 174.456 25.96 188.321C29.7822 202.186 45.3424 203.935 47.5451 204.085C49.7479 204.235 52.3932 204.085 52.3932 204.085V228.606C52.3932 228.606 52.3932 230.505 54.8877 230.795C57.3822 231.085 62.0794 230.506 62.0794 230.506C62.0794 230.506 61.496 237.953 66.7766 241.302C72.0572 244.65 74.8534 242.321 77.6396 243.781C80.4257 245.24 81.8942 246.12 85.7164 246.26C89.5385 246.41 94.6783 243.781 94.6783 243.781L94.97 167.888C94.97 167.888 84.8413 167.888 80.8683 168.908C80.8683 168.908 75.4368 168.328 74.7025 168.328C73.9683 168.328 70.4479 164.1 69.7136 162.64C68.9794 161.181 68.2451 161.331 67.8026 159.141C67.36 156.952 67.8026 150.095 67.8026 150.095C67.8026 150.095 74.4109 146.596 74.9942 143.087C75.5776 139.579 74.7025 134.041 72.6406 127.913C70.5887 121.785 68.5268 113.608 66.6157 111.279C64.7348 108.93 55.7728 105.861 51.9607 107.03Z" fill="#F36600" stroke="#263238" stroke-miterlimit="10" stroke-linecap="round" stroke-linejoin="round"/>
<path d="M53.7207 203.355L62.6826 204.085L61.9484 227.147" stroke="#263238" stroke-miterlimit="10" stroke-linecap="round" stroke-linejoin="round"/>
<path d="M63.8496 205.104L65.3181 224.667" stroke="#263238" stroke-miterlimit="10" stroke-linecap="round" stroke-linejoin="round"/>
<path d="M50.9355 151.544C50.9355 151.544 62.1003 148.335 63.267 147.745" stroke="#263238" stroke-miterlimit="10" stroke-linecap="round" stroke-linejoin="round"/>
<path d="M65.7605 148.775L61.5059 150.085" stroke="#263238" stroke-miterlimit="10" stroke-linecap="round" stroke-linejoin="round"/>
<path d="M29.1992 177.235C29.1992 177.235 33.4539 171.107 38.7445 169.647" stroke="#263238" stroke-miterlimit="10" stroke-linecap="round" stroke-linejoin="round"/>
<path d="M31.4023 172.417C31.4023 172.417 32.8709 170.667 34.9228 169.938" stroke="#263238" stroke-miterlimit="10" stroke-linecap="round" stroke-linejoin="round"/>
<path d="M51.9592 130.532L47.7046 108.93C42.595 111.279 34.5081 115.287 32.7278 117.836C31.3397 119.836 30.7966 131.551 30.6055 142.188C33.1905 142.088 37.6362 141.668 41.2471 140.018C46.6686 137.529 51.9592 130.532 51.9592 130.532Z" fill="white" stroke="#263238" stroke-miterlimit="10" stroke-linecap="round" stroke-linejoin="round"/>
<path d="M53.1375 127.023L67.9734 135.2L72.2281 129.512L66.4345 111.049C64.1714 108.75 55.6621 105.911 51.9707 107.04C51.9707 107.04 50.3714 107.72 48.0781 108.76L53.1375 127.023Z" fill="white" stroke="#263238" stroke-miterlimit="10" stroke-linecap="round" stroke-linejoin="round"/>
<path d="M41.3881 112.428C41.3881 112.428 31.5511 114.177 27.2864 120.455C23.0217 126.733 21.7041 164.819 22.4383 165.548C23.1726 166.278 61.7964 172.556 62.6715 172.696C63.5566 172.846 69.4307 171.816 71.4826 171.086C73.5345 170.357 77.0649 168.747 77.0649 168.747H79.1168C79.1168 168.747 77.6483 166.408 76.4715 165.828C75.2947 165.249 72.3577 165.978 71.3317 166.118C70.3058 166.268 61.3438 168.457 61.3438 168.457L35.3632 157.961L39.9196 124.243" fill="white"/>
<path d="M41.3881 112.428C41.3881 112.428 31.5511 114.177 27.2864 120.455C23.0217 126.733 21.7041 164.819 22.4383 165.548C23.1726 166.278 61.7964 172.556 62.6715 172.696C63.5566 172.846 69.4307 171.816 71.4826 171.086C73.5345 170.357 77.0649 168.747 77.0649 168.747H79.1168C79.1168 168.747 77.6483 166.408 76.4715 165.828C75.2947 165.249 72.3577 165.978 71.3317 166.118C70.3058 166.268 61.3438 168.457 61.3438 168.457L35.3632 157.961L39.9196 124.243" stroke="#263238" stroke-miterlimit="10" stroke-linecap="round" stroke-linejoin="round"/>
<path d="M63.5566 110.239C63.5566 110.239 63.9992 116.367 65.6085 117.827C67.2279 119.286 70.8992 124.544 69.5715 127.023C68.2539 129.502 66.0511 127.463 66.0511 127.463C66.0511 127.463 65.4677 130.682 70.7584 131.112C76.049 131.552 77.2862 124.954 77.3667 122.055C77.5377 115.717 73.6954 113.008 71.4926 110.089C69.2899 107.171 68.1131 105.561 68.1131 105.561C68.1131 105.561 63.8483 104.991 63.5566 110.239Z" fill="#263238" stroke="#263238" stroke-miterlimit="10" stroke-linecap="round" stroke-linejoin="round"/>
<path d="M74.39 74.6323C74.39 74.6323 78.7251 73.7127 79.1576 75.632C79.58 77.5513 79.4895 80.1603 78.3429 81.5698C77.1962 82.9893 75.8082 83.6891 75.8082 83.6891C75.8082 83.6891 73.4043 76.2618 72.7002 75.7519C71.9961 75.2421 71.9961 75.2421 71.9961 75.2421L74.39 74.6323Z" fill="#263238" stroke="#263238" stroke-miterlimit="10" stroke-linecap="round" stroke-linejoin="round"/>
<path d="M63.1242 116.966C63.1242 114.657 66.0109 107.619 66.0109 107.619C66.0109 107.619 72.2068 108.289 73.444 107.699C74.6812 107.11 75.687 99.6323 75.687 99.6323C75.687 99.6323 78.6743 97.8529 79.0163 97.3931C79.3583 96.9333 76.904 92.335 76.5319 91.2753C76.1597 90.2157 77.7992 86.3071 77.2762 82.3286C76.7532 78.35 73.7055 75.1612 73.7055 75.1612C73.7055 75.1612 69.2094 73.9217 62.4704 73.9416C55.7313 73.9616 49.8673 78.9298 49.6058 85.7673C49.3443 92.6049 52.3719 99.4524 52.8949 100.182C53.4179 100.912 50.2395 108.709 49.7064 110.518" fill="white"/>
<path d="M63.1242 116.966C63.1242 114.657 66.0109 107.619 66.0109 107.619C66.0109 107.619 72.2068 108.289 73.444 107.699C74.6812 107.11 75.687 99.6323 75.687 99.6323C75.687 99.6323 78.6743 97.8529 79.0163 97.3931C79.3583 96.9333 76.904 92.335 76.5319 91.2753C76.1597 90.2157 77.7992 86.3071 77.2762 82.3286C76.7532 78.35 73.7055 75.1612 73.7055 75.1612C73.7055 75.1612 69.2094 73.9217 62.4704 73.9416C55.7313 73.9616 49.8673 78.9298 49.6058 85.7673C49.3443 92.6049 52.3719 99.4524 52.8949 100.182C53.4179 100.912 50.2395 108.709 49.7064 110.518" stroke="#263238" stroke-miterlimit="10" stroke-linecap="round" stroke-linejoin="round"/>
<path d="M57.3105 93.7348C57.3105 93.7348 61.9776 93.7848 63.5567 89.4864C65.1359 85.1879 65.4678 85.168 68.7166 83.0387C71.9554 80.9195 76.3609 75.0716 76.2302 73.5622C76.0994 72.0627 68.787 68.594 58.7388 69.6336C48.6905 70.6732 42.5751 78.1205 44.1241 86.7174C45.673 95.3143 45.5121 106.42 44.5666 108.19C43.6212 109.959 40.2215 109.889 37.4051 110.909C33.1404 112.458 32.4766 115.767 32.4766 115.767C32.4766 115.767 38.3204 113.558 39.3263 114.867C40.3321 116.167 50.5212 123.164 54.7658 121.055C59.0003 118.946 58.2761 96.9637 58.427 95.934C58.5477 94.8844 57.3105 93.7348 57.3105 93.7348Z" fill="#263238" stroke="#263238" stroke-miterlimit="10" stroke-linecap="round" stroke-linejoin="round"/>
<path d="M61.2132 93.8453C61.2132 93.8453 57.3508 87.4376 54.454 88.4972C51.5572 89.5568 54.1019 96.0644 56.1035 97.0741C58.0951 98.0837 60.0564 96.8742 60.0564 96.8742" fill="white"/>
<path d="M61.2132 93.8453C61.2132 93.8453 57.3508 87.4376 54.454 88.4972C51.5572 89.5568 54.1019 96.0644 56.1035 97.0741C58.0951 98.0837 60.0564 96.8742 60.0564 96.8742" stroke="#263238" stroke-miterlimit="10" stroke-linecap="round" stroke-linejoin="round"/>
<path d="M75.2144 88.0268C75.2144 88.0268 73.7157 85.6176 71.2012 87.8368" stroke="#263238" stroke-miterlimit="10" stroke-linecap="round" stroke-linejoin="round"/>
<path d="M74.0481 91.7153C74.038 92.515 73.7463 93.1648 73.3842 93.1648C73.0221 93.1648 72.7304 92.505 72.7405 91.7053C72.7505 90.9056 73.0422 90.2559 73.4043 90.2559C73.7664 90.2559 74.0581 90.9056 74.0481 91.7153Z" fill="#263238"/>
<path d="M73.8015 101.667C71.7194 102.087 70.1113 100 70.1113 100C70.1113 100 70.2857 102.572 71.6636 102.742C73.0316 102.912 73.8015 101.667 73.8015 101.667Z" fill="#263238" stroke="#263238" stroke-miterlimit="10" stroke-linecap="round" stroke-linejoin="round"/>
</g>
<defs>
<clipPath id="clip0_907_20294">
<rect width="218" height="330" fill="white" transform="translate(194)"/>
</clipPath>
<clipPath id="clip1_907_20294">
<rect width="157" height="220" fill="white" transform="translate(0 53)"/>
</clipPath>
</defs>
</svg>
