<svg width="97" height="289" viewBox="0 0 97 289" fill="none" xmlns="http://www.w3.org/2000/svg">
<g clip-path="url(#clip0_902_1384)">
<path d="M71.3447 282.144C71.3447 282.144 72.806 276.242 74.0906 273.724C75.3751 271.206 81.1732 271.218 84.5907 274.817C88.0083 278.415 90.0824 285.018 90.0824 285.018C90.0824 285.018 94.6549 289.008 95.633 294.732C96.6112 300.456 96.9058 303.9 95.2323 303.698C93.5707 303.485 88.7036 296.05 84.6615 293.58C80.6193 291.122 78.9223 291.146 78.9223 291.146L71.3447 282.144Z" fill="white" stroke="#263238" stroke-miterlimit="10" stroke-linecap="round" stroke-linejoin="round"/>
<path d="M78.0615 271.979C80.2063 272.002 82.7401 272.881 84.5785 274.829C87.996 278.427 90.0702 285.03 90.0702 285.03C90.0702 285.03 94.6426 289.02 95.6208 294.744C96.5989 300.468 96.8935 303.912 95.2201 303.711C95.1494 303.699 95.0669 303.663 94.9844 303.627C94.9019 301.81 94.7369 299.459 94.3716 297.024C93.5702 291.811 88.2553 287.963 84.5785 280.672C82.2215 276.004 79.6289 273.309 78.0615 271.979Z" fill="white" stroke="#263238" stroke-miterlimit="10" stroke-linecap="round" stroke-linejoin="round"/>
<path d="M4.59606 224.262C4.59606 224.262 4.12467 228.288 7.07085 229.891C10.017 231.482 16.0744 233.228 16.0744 233.228L15.4144 217.314C15.4262 217.303 6.78802 219.963 4.59606 224.262Z" fill="#263238" stroke="#263238" stroke-miterlimit="10" stroke-linecap="round" stroke-linejoin="round"/>
<path d="M12.1504 216.4L13.1992 231.15C13.1992 231.15 4.5139 252.206 2.10981 275.28C-0.294268 298.355 0.731002 305.552 1.32024 308.544C1.90947 311.537 7.37758 316.133 11.6554 316.679C15.9333 317.225 18.6202 317.083 32.1491 313.2C45.6897 309.316 55.035 304.174 64.3803 299.032C73.7255 293.89 78.899 291.134 78.899 291.134C78.899 291.134 74.3619 283.011 71.3215 282.133C68.2928 281.254 64.7809 284.223 64.7809 284.223C64.7809 284.223 64.1564 283.415 61.8348 284.579C59.5132 285.743 57.2859 286.194 57.2859 286.194L28.484 290.327C28.484 290.327 56.9912 232.575 60.126 224.939C63.2607 217.303 59.4307 213.158 59.4307 213.158L12.1504 216.4Z" fill="#704B8C" stroke="#263238" stroke-miterlimit="10" stroke-linecap="round" stroke-linejoin="round"/>
<path d="M26.5516 236.505L20.9893 232.622" stroke="#263238" stroke-miterlimit="10" stroke-linecap="round" stroke-linejoin="round"/>
<path d="M38.0415 225.782C26.2332 229.392 23.7702 245.152 21.2012 252.135C18.6321 259.117 11.2431 294.947 11.1488 297.619C11.0545 300.291 15.9216 309.673 17.6422 311.359C19.3628 313.045 44.7353 338.186 47.1983 341.666C49.6613 345.145 59.584 354.694 59.584 354.694L61.8702 355.715C67.6683 353.779 68.2811 347.034 68.4815 345.359C68.6936 343.685 65.0639 341.761 63.4965 338.875C61.9292 336.001 53.1731 317.107 49.7909 311.311C46.4087 305.528 36.6627 300.386 35.2957 297.773C33.9287 295.16 33.4809 294.863 33.4809 294.863C33.4809 294.863 44.9238 276.836 54.4223 268.547C63.9208 260.258 70.9916 244.356 71.958 232.73C72.9243 221.103 68.1751 214.773 68.1751 214.773L42.6847 215.664" fill="#704B8C"/>
<path d="M38.0415 225.782C26.2332 229.392 23.7702 245.152 21.2012 252.135C18.6321 259.117 11.2431 294.947 11.1488 297.619C11.0545 300.291 15.9216 309.673 17.6422 311.359C19.3628 313.045 44.7353 338.186 47.1983 341.666C49.6613 345.145 59.584 354.694 59.584 354.694L61.8702 355.715C67.6683 353.779 68.2811 347.034 68.4815 345.359C68.6936 343.685 65.0639 341.761 63.4965 338.875C61.9292 336.001 53.1731 317.107 49.7909 311.311C46.4087 305.528 36.6627 300.386 35.2957 297.773C33.9287 295.16 33.4809 294.863 33.4809 294.863C33.4809 294.863 44.9238 276.836 54.4223 268.547C63.9208 260.258 70.9916 244.356 71.958 232.73C72.9243 221.103 68.1751 214.773 68.1751 214.773L42.6847 215.664" stroke="#263238" stroke-miterlimit="10" stroke-linecap="round" stroke-linejoin="round"/>
<path d="M46.7981 4.08496C46.7981 4.08496 46.5507 4.16809 46.1618 4.3106C44.8419 4.79751 41.825 5.93758 41.4361 6.38886C40.9411 6.97077 39.9512 8.12272 40.9411 10.3791C41.9311 12.6355 41.9311 12.6355 41.9311 12.6355L45.9261 7.81395L46.7981 4.08496Z" stroke="#263238" stroke-miterlimit="10" stroke-linecap="round" stroke-linejoin="round"/>
<path d="M64.5337 157.912C64.5337 157.912 52.0419 178.279 51.8769 179.538C51.7237 180.796 70.0489 215.117 71.0153 217.576C71.0153 217.576 29.2856 219.725 18.9268 219.69C8.56806 219.654 4.6084 224.262 4.6084 224.262C4.6084 224.262 10.2768 209.417 10.2415 196.199C10.2061 182.982 3.64205 162.745 5.39797 153.803C7.1539 144.86 13.3173 129.446 13.3173 129.446C13.3173 129.446 13.1759 115.361 16.2399 104.447C19.3039 93.5334 22.5447 82.869 23.405 75.9455C24.2771 69.0219 30.2402 48.465 33.0803 42.6459C35.9204 36.8267 41.8599 18.1818 41.8599 18.1818C41.8599 18.1818 40.7993 14.8447 41.9188 12.6477C43.0384 10.4507 45.9138 7.82615 45.9138 7.82615C45.9138 7.82615 46.9391 3.0521 48.6243 1.35387C50.3213 -0.344363 51.1698 1.24699 50.8045 2.48207C50.4392 3.71714 50.4392 3.71714 50.4392 3.71714C50.4392 3.71714 53.5268 9.44125 54.0689 11.852C54.611 14.2628 46.6091 20.7113 46.6091 20.7113C46.6091 20.7113 43.7337 52.1108 42.8145 59.45C41.8952 66.7893 37.7234 76.4799 37.7234 76.4799L37.2167 82.1684L31.6661 114.72C31.6661 114.72 47.9526 119.779 52.4308 122.902C56.909 126.025 68.8351 135.443 70.2139 143.067C71.5692 150.715 64.5337 157.912 64.5337 157.912Z" fill="white" stroke="#263238" stroke-miterlimit="10" stroke-linecap="round" stroke-linejoin="round"/>
<path d="M50.4512 3.69336C50.4512 3.69336 49.8266 7.01857 49.7441 9.35809" stroke="#263238" stroke-miterlimit="10" stroke-linecap="round" stroke-linejoin="round"/>
<path d="M5.39791 153.803C7.15383 144.861 13.3172 129.446 13.3172 129.446C13.3172 129.446 13.1758 115.362 16.2398 104.448C16.5463 103.367 16.8409 102.298 17.1473 101.229L35.3782 92.9639L31.666 114.72C31.666 114.72 47.9525 119.779 52.4307 122.903C56.9089 126.026 68.835 135.443 70.2139 143.068C71.5809 150.704 64.5454 157.912 64.5454 157.912C64.5454 157.912 52.0536 178.279 51.8886 179.538C51.7354 180.797 70.0606 215.118 71.027 217.576C71.027 217.576 29.2973 219.726 18.9385 219.69C8.57978 219.654 4.62012 224.262 4.62012 224.262C4.62012 224.262 10.2886 209.418 10.2532 196.2C10.1943 182.97 3.64199 162.746 5.39791 153.803Z" fill="white" stroke="#263238" stroke-miterlimit="10" stroke-linecap="round" stroke-linejoin="round"/>
<path d="M39.3853 176.248C39.3853 176.248 19.3041 164.313 15.7451 162.365" stroke="#263238" stroke-miterlimit="10" stroke-linecap="round" stroke-linejoin="round"/>
<path d="M8.72168 159.337C8.72168 159.337 17.6427 167.507 21.6967 170.583" stroke="#263238" stroke-miterlimit="10" stroke-linecap="round" stroke-linejoin="round"/>
<path d="M50.3447 183.397C50.3447 183.397 38.1476 196.342 27.8359 199.287" stroke="#263238" stroke-miterlimit="10" stroke-linecap="round" stroke-linejoin="round"/>
<path d="M50.4627 189.169C50.4627 189.169 45.2185 195.534 43.3447 197.007" stroke="#263238" stroke-miterlimit="10" stroke-linecap="round" stroke-linejoin="round"/>
<path d="M44.429 74.1994C44.3111 75.1257 45.2775 71.1592 51.3819 70.9929C57.4864 70.8267 64.2273 73.095 67.692 76.527C71.1567 79.9591 82.8943 89.626 82.2815 105.741C81.6687 121.857 74.1264 119.79 73.1365 123.911C72.1466 128.032 76.3891 129.042 76.3891 129.042C76.3891 129.042 74.1736 134.267 62.4831 132.937C50.7927 131.607 53.8214 118.627 54.9998 116.738C56.1783 114.838 54.3753 98.1053 51.6294 93.83C48.8954 89.5547 44.6057 88.8541 44.6057 88.8541C44.6057 88.8541 33.6813 101.3 32.8092 109.518C31.9372 117.736 34.2588 119.137 34.082 123.044C33.9052 126.951 28.661 130.217 24.1239 129.006C19.5868 127.795 19.2097 125.871 19.2097 125.871C19.2097 125.871 24.937 123.769 23.8411 121.275C22.7451 118.781 16.3224 111.513 17.7955 102.274C19.2686 93.0225 22.5565 85.4339 30.8058 80.6598C39.0433 75.8976 42.8145 75.7432 42.8145 75.7432L44.429 74.1994Z" fill="#263238" stroke="#263238" stroke-miterlimit="10" stroke-linecap="round" stroke-linejoin="round"/>
<path d="M35.4139 121.156C35.4139 121.156 34.7303 127.83 33.8818 129.612C33.0333 131.393 29.7336 134.113 30.7471 134.718C31.7606 135.324 42.4258 132.426 47.8939 129.826C53.3738 127.225 52.3014 122.059 52.5842 120.99C52.8906 119.921 42.5908 124.897 35.4139 121.156Z" fill="white" stroke="#263238" stroke-miterlimit="10" stroke-linecap="round" stroke-linejoin="round"/>
<path d="M46.7617 82.9756C46.7617 82.9756 53.7971 92.8325 56.6726 97.2859C59.5481 101.739 63.1306 109.268 63.1306 109.268C63.1306 109.268 62.6121 113.449 60.9387 114.339C59.2652 115.23 56.9436 115.088 56.9436 115.088C56.9436 115.088 55.4941 120.408 48.4822 124.078C42.5192 127.189 38.147 126.845 34.1049 123.032C30.0627 119.22 27.8708 108.093 29.8506 100.955C31.8186 93.8181 40.5158 86.7402 41.871 85.8139C43.238 84.8876 46.7617 82.9756 46.7617 82.9756Z" fill="white" stroke="#263238" stroke-miterlimit="10" stroke-linecap="round" stroke-linejoin="round"/>
<path d="M45.2655 109.839C45.2655 109.839 42.2839 111.192 41.3058 110.278C40.3277 109.364 39.5381 108.164 39.5381 108.164" stroke="#263238" stroke-miterlimit="10" stroke-linecap="round" stroke-linejoin="round"/>
<path d="M46.1371 114.031C46.1371 114.031 44.6758 115.729 41.3407 114.993C38.0056 114.256 37.0039 110.979 37.0039 110.979" stroke="#263238" stroke-miterlimit="10" stroke-linecap="round" stroke-linejoin="round"/>
<path d="M54.0451 105.765C54.0451 105.765 51.8649 103.283 48.4355 104.424" stroke="#263238" stroke-miterlimit="10" stroke-linecap="round" stroke-linejoin="round"/>
<path d="M39.5256 102.024C39.5256 102.024 37.6283 98.4851 33.7275 99.7083" stroke="#263238" stroke-miterlimit="10" stroke-linecap="round" stroke-linejoin="round"/>
<path d="M56.4252 101.668C56.4252 101.668 53.6087 98.0099 48.8477 98.6631" stroke="#263238" stroke-miterlimit="10" stroke-linecap="round" stroke-linejoin="round"/>
<path d="M41.9177 96.6683C41.9177 96.6683 37.9698 93.3312 34.8115 96.0745" stroke="#263238" stroke-miterlimit="10" stroke-linecap="round" stroke-linejoin="round"/>
<path d="M61.4333 106.549C61.4333 106.549 59.4888 109.601 59.206 108.152C58.9231 106.703 59.1942 102.024 59.1942 102.024L61.4333 106.549Z" stroke="#263238" stroke-miterlimit="10" stroke-linecap="round" stroke-linejoin="round"/>
<path d="M84.9564 251.54L49.3547 257.027L44.252 221.851L81.527 219.772L84.9564 251.54Z" fill="white" stroke="#263238" stroke-miterlimit="10" stroke-linecap="round" stroke-linejoin="round"/>
<path d="M49.355 257.027L41.2354 222.314L44.2522 221.851L49.355 257.027Z" fill="white" stroke="#263238" stroke-miterlimit="10" stroke-linecap="round" stroke-linejoin="round"/>
<path d="M56.0604 146.179L68.6347 184.229C68.6347 184.229 68.9883 191.52 68.9058 197.268C68.8233 203.016 71.5927 212.956 71.9698 220.034C72.1937 224.096 72.5944 228.691 71.958 232.729C71.4866 235.746 68.6583 237.99 66.702 240.46C64.6044 243.109 64.8047 246.6 62.8249 249.153C62.0706 250.127 62.872 250.436 64.0976 250.804C65.3232 251.172 66.5488 249.842 66.5488 249.842C66.5488 249.842 65.9714 251.054 65.5354 252.906C65.0875 254.771 64.2508 256.362 64.2508 256.362C64.2508 256.362 66.0421 257.229 67.5034 257.419C68.9647 257.609 70.261 255.638 70.261 255.638C70.261 255.638 71.7223 255.828 72.3469 255.899C72.9715 255.982 74.1146 255.269 74.1146 255.269C74.1146 255.269 75.9648 255.721 77.1669 254.592C78.3689 253.464 78.9935 251.837 79.3117 249.32C79.6299 246.802 83.5424 220.652 84.9566 209.322C86.3825 197.993 84.1788 186.841 83.507 182.067C82.8353 177.293 81.3858 168.576 79.1703 150.822C76.9547 133.056 72.5355 129.517 72.5355 129.517C72.5355 129.517 68.2694 124.707 62.5185 125.04C56.7675 125.372 53.1143 132.581 53.1143 132.581" fill="white"/>
<path d="M56.0604 146.179L68.6347 184.229C68.6347 184.229 68.9883 191.52 68.9058 197.268C68.8233 203.016 71.5927 212.956 71.9698 220.034C72.1937 224.096 72.5944 228.691 71.958 232.729C71.4866 235.746 68.6583 237.99 66.702 240.46C64.6044 243.109 64.8047 246.6 62.8249 249.153C62.0706 250.127 62.872 250.436 64.0976 250.804C65.3232 251.172 66.5488 249.842 66.5488 249.842C66.5488 249.842 65.9714 251.054 65.5354 252.906C65.0875 254.771 64.2508 256.362 64.2508 256.362C64.2508 256.362 66.0421 257.229 67.5034 257.419C68.9647 257.609 70.261 255.638 70.261 255.638C70.261 255.638 71.7223 255.828 72.3469 255.899C72.9715 255.982 74.1146 255.269 74.1146 255.269C74.1146 255.269 75.9648 255.721 77.1669 254.593C78.3689 253.464 78.9935 251.837 79.3117 249.32C79.6299 246.802 83.5424 220.652 84.9566 209.322C86.3825 197.993 84.1788 186.841 83.507 182.067C82.8353 177.293 81.3858 168.576 79.1703 150.822C76.9547 133.056 72.5355 129.517 72.5355 129.517C72.5355 129.517 68.2694 124.707 62.5185 125.04C56.7675 125.372 53.1143 132.581 53.1143 132.581" stroke="#263238" stroke-miterlimit="10" stroke-linecap="round" stroke-linejoin="round"/>
<path d="M68.9056 197.268C68.9881 191.52 68.6345 184.228 68.6345 184.228L62.2236 164.835L80.6078 161.926C82.022 172.46 82.9883 178.421 83.5068 182.067C84.1786 186.841 86.3705 197.992 84.9563 209.322C83.5304 220.651 79.6179 246.802 79.3115 249.319C78.9933 251.837 78.3687 253.464 77.1667 254.592C75.9646 255.72 74.1144 255.269 74.1144 255.269C74.1144 255.269 72.9713 255.982 72.3467 255.899C71.7221 255.815 70.2608 255.637 70.2608 255.637C70.2608 255.637 68.9527 257.609 67.5032 257.419C66.0419 257.229 64.2506 256.362 64.2506 256.362C64.2506 256.362 65.0873 254.759 65.5351 252.906C65.983 251.041 66.5486 249.842 66.5486 249.842C66.5486 249.842 65.323 251.184 64.0974 250.804C62.8718 250.436 62.0704 250.115 62.8247 249.153C64.8163 246.6 64.6159 243.12 66.7018 240.46C68.6581 237.99 71.4864 235.734 71.9578 232.729C72.5942 228.691 72.1935 224.095 71.9696 220.034C71.5925 212.956 68.8231 203.016 68.9056 197.268Z" fill="white" stroke="#263238" stroke-miterlimit="10" stroke-linecap="round" stroke-linejoin="round"/>
<path d="M66.5488 249.842L68.3283 245.805" stroke="#263238" stroke-miterlimit="10" stroke-linecap="round" stroke-linejoin="round"/>
</g>
<defs>
<clipPath id="clip0_902_1384">
<rect width="97" height="385" fill="white"/>
</clipPath>
</defs>
</svg>
