<svg width="112" height="235" viewBox="0 0 112 235" fill="none" xmlns="http://www.w3.org/2000/svg">
<g clip-path="url(#clip0_902_1314)">
<path d="M40.3076 20.3186L39.9111 28.9354L35.1632 28.715L28.4874 28.4175L22.715 28.153L16.0503 27.8555L10.2779 27.5911L3.60222 27.2936L0.550781 27.1503L0.947358 18.5225L7.83238 18.842L14.7835 19.1505L20.2695 19.404L27.2206 19.7235L32.7066 19.977L39.6577 20.2855L40.3076 20.3186Z" fill="#263238" stroke="#263238" stroke-miterlimit="10" stroke-linecap="round" stroke-linejoin="round"/>
<path d="M10.2778 27.5918L14.7833 19.1513L7.83221 18.8428L3.60205 27.2943" fill="white"/>
<path d="M10.2778 27.5918L14.7833 19.1513L7.83221 18.8428L3.60205 27.2943" stroke="#263238" stroke-miterlimit="10" stroke-linecap="round" stroke-linejoin="round"/>
<path d="M22.715 28.1533L27.2205 19.7238L20.2694 19.4043L16.0503 27.8558" fill="white"/>
<path d="M22.715 28.1533L27.2205 19.7238L20.2694 19.4043L16.0503 27.8558" stroke="#263238" stroke-miterlimit="10" stroke-linecap="round" stroke-linejoin="round"/>
<path d="M35.163 28.7156L39.6576 20.2861L32.7064 19.9775L28.4873 28.4181" fill="white"/>
<path d="M35.163 28.7156L39.6576 20.2861L32.7064 19.9775L28.4873 28.4181" stroke="#263238" stroke-miterlimit="10" stroke-linecap="round" stroke-linejoin="round"/>
<path d="M40.1661 29.3712L0.809082 31.3262L1.90679 53.4367L41.2639 51.4817L40.1661 29.3712Z" fill="#263238" stroke="#263238" stroke-miterlimit="10" stroke-linecap="round" stroke-linejoin="round"/>
<path d="M40.517 36.6935L35.0751 36.969L29.6442 37.2445L24.2794 37.5089L18.8925 37.7844L13.5057 38.0599L8.15189 38.3243L1.16773 38.677L0.804199 31.3273L4.64879 31.14L10.5093 30.8425L15.4115 30.6001L21.305 30.3136L26.1521 30.0711L32.0787 29.7736L40.1535 29.377L40.517 36.6935Z" fill="#263238" stroke="#263238" stroke-miterlimit="10" stroke-linecap="round" stroke-linejoin="round"/>
<path d="M13.5058 38.0592L10.5095 30.8418L4.64893 31.1393L8.15202 38.3237" fill="white"/>
<path d="M13.5058 38.0592L10.5095 30.8418L4.64893 31.1393L8.15202 38.3237" stroke="#263238" stroke-miterlimit="10" stroke-linecap="round" stroke-linejoin="round"/>
<path d="M24.2795 37.5089L18.8927 37.7843L15.4116 30.6L21.3052 30.3135L24.2795 37.5089Z" fill="white" stroke="#263238" stroke-miterlimit="10" stroke-linecap="round" stroke-linejoin="round"/>
<path d="M35.0748 36.9688L29.6439 37.2443L26.1519 30.0709L32.0785 29.7734L35.0748 36.9688Z" fill="white" stroke="#263238" stroke-miterlimit="10" stroke-linecap="round" stroke-linejoin="round"/>
<path d="M44.4165 17.6195C44.4165 17.6195 37.895 14.8868 36.9916 15.2835C36.0883 15.6912 24.6978 19.1842 24.6978 19.1842L31.704 19.4817C31.704 19.4817 27.3967 21.7186 26.4934 21.9059C25.6011 22.0822 27.9255 24.6276 29.4897 24.2639C31.054 23.8893 34.469 22.0491 34.469 22.0491C34.469 22.0491 37.5645 22.1924 39.3381 22.2695C41.1116 22.3466 43.1496 21.3329 43.1496 21.3329L71.8354 53.0014L76.9578 57.2216L88.6789 47.9988L61.0727 26.5779L44.4165 17.6195Z" fill="white" stroke="#263238" stroke-miterlimit="10" stroke-linecap="round" stroke-linejoin="round"/>
<path d="M48.7899 87.2486C48.7899 87.2486 33.1471 57.872 31.2634 55.525C29.3686 53.1779 27.5069 51.2827 25.9426 51.1284C24.3893 50.9852 19.6525 49.4425 17.6586 49.5417C15.6647 49.6409 14.6071 50.5775 15.7528 51.4149C16.8984 52.2413 19.8067 52.7702 19.8067 52.7702L9.19824 53.2992C9.19824 53.2992 11.8531 57.5965 13.4614 58.8527C15.0698 60.0979 25.8765 58.8968 25.8765 58.8968C25.8765 58.8968 35.6918 91.4468 36.5731 95.8323C37.4544 100.218 41.8718 104.438 42.5438 104.405C43.2047 104.372 52.4362 98.3667 52.4362 98.3667L48.7899 87.2486Z" fill="white" stroke="#263238" stroke-miterlimit="10" stroke-linecap="round" stroke-linejoin="round"/>
<path d="M62.0535 121.748C62.0535 121.748 61.9874 121.892 61.8552 122.178C60.7646 124.624 55.4659 137.076 54.1991 150.056C52.789 164.535 55.1685 175.653 55.1685 175.653L63.089 213.04C63.089 213.04 62.4831 225.205 64.4329 230.88C66.3828 236.544 71.6484 263.144 71.6484 263.144C71.6484 263.144 70.1393 263.375 70.1833 264.124C70.2164 264.885 69.6876 266.273 69.6876 266.273C69.6876 266.273 70.2604 265.634 72.8272 268.389C75.3939 271.143 80.6706 273.612 81.7281 273.556C82.7857 273.501 83.9974 273.446 83.9974 273.446L83.9644 266.626C83.9644 266.626 88.0183 268.851 90.4418 268.73C92.8653 268.609 94.3305 267.628 94.3305 267.628C94.3305 267.628 94.1101 260.201 94.2093 259.133C94.3084 258.064 96.1922 231.872 94.7931 224.963C93.3831 218.054 90.7282 204.225 90.7282 204.225C90.7282 204.225 103.551 166.419 104.906 160.138C106.261 153.847 106.9 139.103 105.864 133.693C104.84 128.283 102.592 122.046 102.592 122.046L99.7834 118.211C99.7834 118.211 88.0513 123.346 78.3903 121.241C68.7292 119.137 64.7304 118.123 64.7304 118.123L62.0535 121.748Z" fill="#704B8C" stroke="#263238" stroke-miterlimit="10" stroke-linecap="round" stroke-linejoin="round"/>
<path d="M100.411 152.018L84.4268 160.094C84.4268 160.094 80.5822 195.642 80.2958 196.104C80.0204 196.578 80.9016 208.214 80.9898 210.032C81.0779 211.851 80.5932 214.297 80.5932 214.297C80.5932 214.297 82.543 219.96 83.0718 227.53C83.6006 235.09 83.5345 252.092 83.5345 252.092L84.5039 265.546" stroke="#263238" stroke-miterlimit="10" stroke-linecap="round" stroke-linejoin="round"/>
<path d="M78.291 56.5161C78.291 56.5161 64.4329 63.1936 64.2786 64.5269C64.1244 65.8602 50.3984 84.0635 50.3984 84.0635C50.3984 84.0635 50.751 91.1377 52.0178 94.3993C53.2846 97.6609 54.0447 99.6223 54.0447 99.6223L64.3557 93.1211L66.0412 109.22L61.8221 122.509C61.8221 122.509 67.2309 128.889 74.7769 128.955C82.3119 129.021 93.0745 126.938 96.104 125.462C99.1334 123.985 102.581 122.035 102.581 122.035L98.7258 106.928C98.7258 106.928 110.91 79.9424 111.372 71.4909C111.835 63.0394 109.246 50.9736 107.417 49.9599C105.589 48.9461 104.917 48.7588 104.917 48.7588L78.291 56.5161Z" fill="white" stroke="#263238" stroke-miterlimit="10" stroke-linecap="round" stroke-linejoin="round"/>
<path d="M53.3508 80.8135C53.3508 80.8135 51.9077 87.5351 53.6373 90.995C55.3558 94.455 57.3827 99.4576 57.3827 99.4576L51.5442 102.411C51.5442 102.411 47.8318 99.0499 47.6005 94.3999C47.3691 89.7609 47.3691 85.3203 47.3691 85.3203C47.3691 85.3203 51.5112 79.5794 53.3508 80.8135Z" fill="white" stroke="#263238" stroke-miterlimit="10" stroke-linecap="round" stroke-linejoin="round"/>
<path d="M64.3774 93.1213L74.9749 87.9424" stroke="#263238" stroke-miterlimit="10" stroke-linecap="round" stroke-linejoin="round"/>
<path d="M70.7668 11.8898C70.7668 11.8898 68.7729 16.4186 68.8941 18.8537C69.0153 21.2889 68.4975 24.1979 68.5416 25.0795C68.5856 25.961 66.0189 27.8672 66.118 29.8507C66.2172 31.8451 68.0569 33.2996 68.0569 33.2996C68.0569 33.2996 68.9822 43.0073 70.4033 44.9356C71.8243 46.8639 77.4095 43.2607 77.4095 43.2607L81.0117 53.277L90.6507 51.0291C90.6507 51.0291 89.1195 33.5861 87.6323 25.9059C86.1452 18.2257 81.1109 10.7107 77.9933 10.4242C74.8868 10.1377 70.7668 11.8898 70.7668 11.8898Z" fill="white" stroke="#263238" stroke-miterlimit="10" stroke-linecap="round" stroke-linejoin="round"/>
<path d="M69.3457 34.9745C69.3457 34.9745 71.2625 34.8202 71.582 33.6963" stroke="#263238" stroke-miterlimit="10" stroke-linecap="round" stroke-linejoin="round"/>
<path d="M69.8198 21.5755C69.8198 21.5755 70.7782 20.143 72.0561 22.8537" stroke="#263238" stroke-miterlimit="10" stroke-linecap="round" stroke-linejoin="round"/>
<path d="M70.7009 27.6353C71.0964 27.6353 71.417 26.7424 71.417 25.6409C71.417 24.5394 71.0964 23.6465 70.7009 23.6465C70.3054 23.6465 69.9849 24.5394 69.9849 25.6409C69.9849 26.7424 70.3054 27.6353 70.7009 27.6353Z" fill="#263238"/>
<path d="M88.7672 48.6814C88.7672 48.6814 75.4819 53.3314 74.6337 54.257C73.7964 55.1826 73.9837 58.9401 73.9837 58.9401L92.766 53.3535L90.9704 48.3398L88.7672 48.6814Z" fill="white" stroke="#263238" stroke-miterlimit="10" stroke-linecap="round" stroke-linejoin="round"/>
<path d="M72.7609 2.9311C72.7609 2.9311 68.5968 3.8016 68.8612 9.11274C69.1256 14.4239 72.4084 18.0271 74.2921 20.3741C76.1869 22.7211 82.7744 26.1591 82.7744 26.1591C82.7744 26.1591 83.0829 36.7813 82.6423 41.4644C82.2016 46.1475 77.1012 50.3898 77.1012 50.3898C77.1012 50.3898 83.2812 54.2905 90.5738 53.9379C97.8664 53.5853 105.049 50.7754 106.778 50.0261C108.519 49.2768 109.929 46.5441 109.929 46.5441C109.929 46.5441 107.726 37.7841 107.682 36.9025C107.638 36.021 106.745 31.4041 106.745 31.4041L105.038 23.7349C105.038 23.7349 109.455 18.8645 105.831 12.8371C102.207 6.80977 95.1234 2.50136 85.9581 0.969728C76.7927 -0.594964 72.7609 2.9311 72.7609 2.9311Z" fill="#263238" stroke="#263238" stroke-miterlimit="10" stroke-linecap="round" stroke-linejoin="round"/>
<path d="M101.314 20.1317C101.314 20.1317 102.581 23.3934 102.78 27.3712C102.978 31.349 102.427 33.5969 102.427 33.5969C102.427 33.5969 107.572 34.4454 109.665 32.1314C111.769 29.8064 109.885 23.2501 107.109 20.7268C104.322 18.2034 101.392 17.2448 101.314 20.1317Z" fill="#263238" stroke="#263238" stroke-miterlimit="10" stroke-linecap="round" stroke-linejoin="round"/>
</g>
<defs>
<clipPath id="clip0_902_1314">
<rect width="112" height="279" fill="white"/>
</clipPath>
</defs>
</svg>
