<svg width="1575" height="455" viewBox="0 0 1575 455" fill="none" xmlns="http://www.w3.org/2000/svg">
<g clip-path="url(#clip0_58_6541)">
<rect width="1575" height="455" fill="#040513"/>
<mask id="mask0_58_6541" style="mask-type:luminance" maskUnits="userSpaceOnUse" x="-190" y="-816" width="1205" height="1289">
<path d="M1014.31 -816L-190 472.707V413.724L959.186 -816H1014.31Z" fill="white"/>
</mask>
<g mask="url(#mask0_58_6541)">
<path d="M1014.31 -816H-190V472.707H1014.31V-816Z" fill="#161720"/>
</g>
<mask id="mask1_58_6541" style="mask-type:luminance" maskUnits="userSpaceOnUse" x="-190" y="-816" width="708" height="1175">
<path d="M480.449 -816L-156.909 241.322L-190 358.206L517.822 -816H480.449Z" fill="white"/>
</mask>
<g mask="url(#mask1_58_6541)">
<path d="M517.822 -816H-190V358.206H517.822V-816Z" fill="#161720"/>
</g>
<mask id="mask2_58_6541" style="mask-type:luminance" maskUnits="userSpaceOnUse" x="-190" y="-816" width="333" height="1175">
<path d="M97.538 -816L-190 199.778V358.206L-156.909 241.322L142.386 -816H97.538Z" fill="white"/>
</mask>
<g mask="url(#mask2_58_6541)">
<path d="M142.386 -816H-190V358.206H142.386V-816Z" fill="#161720"/>
</g>
<mask id="mask3_58_6541" style="mask-type:luminance" maskUnits="userSpaceOnUse" x="-190" y="-816" width="1409" height="1508">
<path d="M1218.66 -816L-190 691.387V632.399L1163.54 -816H1218.66Z" fill="white"/>
</mask>
<g mask="url(#mask3_58_6541)">
<path d="M1218.66 -816H-190V691.387H1218.66V-816Z" fill="#161720"/>
</g>
<mask id="mask4_58_6541" style="mask-type:luminance" maskUnits="userSpaceOnUse" x="-190" y="-179" width="1680" height="1570">
<path d="M-190 -178.421L1489.13 1390.82H1434.94L-190 -127.78V-178.421Z" fill="white"/>
</mask>
<g mask="url(#mask4_58_6541)">
<path d="M1489.13 -178.421H-190V1390.82H1489.13V-178.421Z" fill="#161720"/>
</g>
<mask id="mask5_58_6541" style="mask-type:luminance" maskUnits="userSpaceOnUse" x="-190" y="441" width="1574" height="950">
<path d="M-190 476.321L1276.57 1360.42L1383.94 1390.82L-190 441.988V476.321Z" fill="white"/>
</mask>
<g mask="url(#mask5_58_6541)">
<path d="M1383.94 441.988H-190V1390.82H1383.94V441.988Z" fill="#161720"/>
</g>
<mask id="mask6_58_6541" style="mask-type:luminance" maskUnits="userSpaceOnUse" x="10" y="-179" width="1681" height="1570">
<path d="M10.8867 -178.421L1690.02 1390.82H1635.83L10.8867 -127.78V-178.421Z" fill="white"/>
</mask>
<g mask="url(#mask6_58_6541)">
<path d="M1690.02 -178.421H10.8867V1390.82H1690.02V-178.421Z" fill="#161720"/>
</g>
<mask id="mask7_58_6541" style="mask-type:luminance" maskUnits="userSpaceOnUse" x="1522" y="-117" width="1409" height="1508">
<path d="M1522.33 1390.82L2931 -116.564V-57.5816L1577.46 1390.82H1522.33Z" fill="white"/>
</mask>
<g mask="url(#mask7_58_6541)">
<path d="M2931 -116.564H1522.33V1390.82H2931V-116.564Z" fill="#161720"/>
</g>
<mask id="mask8_58_6541" style="mask-type:luminance" maskUnits="userSpaceOnUse" x="1251" y="-816" width="1680" height="1570">
<path d="M2931 753.244L1251.87 -816H1306.05L2931 702.598V753.244Z" fill="white"/>
</mask>
<g mask="url(#mask8_58_6541)">
<path d="M2931 -816H1251.87V753.244H2931V-816Z" fill="#161720"/>
</g>
<mask id="mask9_58_6541" style="mask-type:luminance" maskUnits="userSpaceOnUse" x="1357" y="-816" width="1574" height="949">
<path d="M2931 98.5019L1464.43 -785.601L1357.05 -816L2931 132.834V98.5019Z" fill="white"/>
</mask>
<g mask="url(#mask9_58_6541)">
<path d="M2931 -816H1357.05V132.834H2931V-816Z" fill="#161720"/>
</g>
<mask id="mask10_58_6541" style="mask-type:luminance" maskUnits="userSpaceOnUse" x="1050" y="-816" width="1681" height="1570">
<path d="M2730.11 753.244L1050.98 -816H1105.17L2730.11 702.598V753.244Z" fill="white"/>
</mask>
<g mask="url(#mask10_58_6541)">
<path d="M2730.12 -816H1050.98V753.244H2730.12V-816Z" fill="#040513"/>
</g>
</g>
<defs>
<clipPath id="clip0_58_6541">
<rect width="1575" height="455" fill="white"/>
</clipPath>
</defs>
</svg>
