<svg width="27" height="27" viewBox="0 0 27 27" fill="none" xmlns="http://www.w3.org/2000/svg">
<g clip-path="url(#clip0_4913_105)">
<path d="M13.5143 0.000244141C6.04589 0.000244141 0 6.04614 0 13.5146C0 20.983 6.04589 27.0289 13.5143 27.0289C20.9828 27.0289 27.0287 20.983 27.0287 13.5146C27.0287 6.04614 20.9532 0.000244141 13.5143 0.000244141ZM14.7294 20.5089C14.3738 20.8349 13.9293 20.983 13.3958 20.983C12.8623 20.983 12.4178 20.8349 12.0621 20.5089C11.7065 20.1828 11.5287 19.7679 11.5287 19.2937C11.5287 18.7899 11.7065 18.375 12.0621 18.0786C12.4178 17.7526 12.8623 17.6045 13.3958 17.6045C13.9293 17.6045 14.3738 17.7526 14.7294 18.0786C15.0851 18.4046 15.2629 18.8196 15.2629 19.2937C15.2629 19.7976 15.0851 20.2125 14.7294 20.5089ZM17.9006 11.5289C17.6931 11.9735 17.3078 12.4477 16.8337 12.9219L15.6778 13.9888C15.3518 14.3148 15.1147 14.6408 14.9962 14.9668C14.8776 15.2928 14.7887 15.7077 14.7887 16.2412H11.914C11.914 15.2632 12.0325 14.4926 12.24 13.9295C12.4474 13.3664 12.8327 12.8626 13.3069 12.4477C13.8107 12.0328 14.196 11.6475 14.4331 11.2918C14.6998 10.9362 14.8184 10.5509 14.8184 10.136C14.8184 9.12835 14.3738 8.62453 13.5143 8.62453C13.0994 8.62453 12.7734 8.77271 12.5363 9.06908C12.2992 9.36545 12.1511 9.75072 12.1511 10.2545H8.74283C8.74283 8.9209 9.18738 7.85397 10.0172 7.11306C10.847 6.37214 12.0325 5.98686 13.5143 5.98686C15.0258 5.98686 16.1816 6.3425 17.0115 7.02415C17.8413 7.70579 18.2562 8.71344 18.2562 9.98782C18.2562 10.5509 18.1377 11.0547 17.9006 11.5289Z" fill="black"/>
</g>
<defs>
<clipPath id="clip0_4913_105">
<rect width="27" height="27" fill="white"/>
</clipPath>
</defs>
</svg>
