<svg width="23" height="26" viewBox="0 0 23 26" fill="none" xmlns="http://www.w3.org/2000/svg">
<path d="M16.6855 13.2077C16.3527 13.2077 16.0155 13.2717 15.6998 13.3907C15.2608 12.5289 14.3655 11.9373 13.3348 11.9373C12.9674 11.9373 12.6173 12.0069 12.2991 12.1327C11.8516 11.2963 10.969 10.7259 9.95564 10.7259C9.70529 10.7256 9.45616 10.7607 9.21559 10.83L9.21613 10.0997L9.21792 7.60846C9.2184 6.92025 9.21857 6.61295 9.21607 6.45943H9.21858C9.21858 5.12629 8.00863 4 6.57648 4C5.11215 4 3.92083 5.19132 3.92083 6.65565V14.7512C2.94299 15.0783 2.07987 15.9808 2.04363 17.2693C1.9869 19.2848 2.15213 21.8352 3.94818 23.6825C5.46435 25.242 7.83725 26.0001 11.2024 26.0001C14.2291 26.0001 16.4675 25.1098 17.8556 23.354C18.8305 22.1208 19.3458 20.459 19.3458 18.5482L19.3411 15.8613C19.3411 14.399 18.1498 13.2077 16.6855 13.2077ZM11.2024 24.8057C4.07788 24.8057 3.12793 21.1943 3.23745 17.3029C3.26384 16.3643 4.07071 15.81 4.73033 15.81V17.5311C4.73033 17.7476 4.88045 17.7728 4.92524 17.7728C4.97002 17.7728 5.11513 17.7482 5.11513 17.5317V6.65565C5.11513 5.8486 5.76937 5.1943 6.57648 5.1943C7.31701 5.1943 8.02433 5.76655 8.02433 6.45955C8.02475 6.46223 8.02051 11.8255 8.01973 13.1451C8.01967 13.1478 8.01896 13.1504 8.01896 13.1531V13.4288C8.02035 13.491 8.04603 13.5502 8.09051 13.5937C8.13498 13.6372 8.19472 13.6615 8.25692 13.6615C8.31913 13.6615 8.37886 13.6372 8.42334 13.5937C8.46781 13.5502 8.49349 13.491 8.49489 13.4288V13.3575C8.50785 12.5617 9.15671 11.9204 9.9557 11.9204C10.7627 11.9204 11.417 12.5747 11.417 13.3818L11.4182 14.44C11.4175 14.4712 11.423 14.5023 11.4345 14.5313C11.4459 14.5603 11.4631 14.5868 11.4849 14.6091C11.5067 14.6315 11.5328 14.6492 11.5616 14.6613C11.5904 14.6734 11.6213 14.6797 11.6525 14.6797C11.6837 14.6797 11.7146 14.6734 11.7434 14.6613C11.7722 14.6492 11.7983 14.6315 11.8201 14.6091C11.8419 14.5868 11.8591 14.5603 11.8705 14.5313C11.882 14.5023 11.8875 14.4712 11.8868 14.44L11.8863 14.3794C11.8863 13.6446 12.6003 13.1318 13.3348 13.1318C14.142 13.1318 14.7932 13.786 14.7932 14.5931L14.7961 15.6642C14.7977 15.7236 14.8225 15.78 14.8651 15.8214C14.9077 15.8628 14.9647 15.8859 15.0241 15.8859C15.0835 15.8859 15.1405 15.8628 15.1831 15.8214C15.2257 15.78 15.2505 15.7236 15.2521 15.6642L15.2513 15.5827C15.2513 14.9145 15.9743 14.4021 16.6855 14.4021C17.4925 14.4021 18.1468 15.0564 18.1468 15.8635L18.1515 18.5483C18.1515 21.0451 17.1804 24.8057 11.2024 24.8057Z" fill="black"/>
<path d="M20.0683 3.31822H16.859C16.3847 3.31822 16.0001 2.9164 16 2.42061C16 1.92491 16.3845 1.52309 16.8589 1.52309H20.0682C19.7411 1.17189 19.7433 0.610404 20.076 0.262794C20.4115 -0.0875981 20.9554 -0.0875981 21.2908 0.262794L22.7484 1.78598C23.0838 2.13655 23.0838 2.70486 22.7484 3.05534L21.2908 4.57852C21.2111 4.66199 21.1164 4.72818 21.0122 4.77329C20.908 4.8184 20.7962 4.84155 20.6834 4.84141C20.5706 4.84154 20.4589 4.81839 20.3547 4.77328C20.2504 4.72816 20.1558 4.66198 20.0761 4.57852C19.7434 4.23091 19.7411 3.66943 20.0683 3.31822Z" fill="black"/>
<path d="M18.9319 6.68168H22.1412C22.6155 6.68168 23.0001 7.08351 23 7.5793C23 8.075 22.6155 8.47682 22.1411 8.47682H18.9318C19.2589 8.82802 19.2567 9.38951 18.924 9.73712C18.7564 9.91231 18.5365 10 18.3167 10C18.0969 10 17.8771 9.91231 17.7093 9.73712L16.2517 8.21393C15.9163 7.86336 15.9163 7.29505 16.2517 6.94457L17.7093 5.42139C18.0448 5.07099 18.5887 5.07099 18.9241 5.42139C19.2568 5.769 19.2591 6.33049 18.9319 6.68168Z" fill="black"/>
</svg>
