<?xml version="1.0" encoding="utf-8"?><svg viewBox="0 0 502.66 502.66" xmlns="http://www.w3.org/2000/svg" xmlns:xlink="http://www.w3.org/1999/xlink"><style>:root>svg{display:none}:root>svg:target{display:block}</style><svg viewBox="0 0 18 30" id="alarm" xmlns="http://www.w3.org/2000/svg"><path d="M17.596 11.85h-8.69L13.237 0 0 18.15h8.69L4.357 30l13.239-18.15z"/></svg><svg viewBox="0 0 50 50" id="bilding" xmlns="http://www.w3.org/2000/svg"><g clip-path="url(#ba)"><path d="M25.054 25.978a3.13 3.13 0 00-3.127 3.127 3.13 3.13 0 003.127 3.126 3.13 3.13 0 003.127-3.127 3.13 3.13 0 00-3.127-3.126zm0 4.77a1.645 1.645 0 01-1.643-1.643c0-.64.367-1.193.901-1.465v1.465c0 .41.332.741.742.741h1.465a1.644 1.644 0 01-1.465.902zm.742-2.385v-.723c.311.159.564.412.723.723h-.723zm1.067-27.018a.742.742 0 00-.893-.489L25.804.9l-.01-.171a.741.741 0 00-1.48 0l-.01.17-.166-.043a.742.742 0 00-.458 1.409l.16.062-.093.144a.741.741 0 001.198.87l.11-.132.108.132a.74.74 0 001.198-.87l-.093-.144.16-.062a.742.742 0 00.435-.92z"/><path d="M49.258 48.486H31.9V34.604h.428a.742.742 0 100-1.484H30.04v-7.54a.742.742 0 00-.067-1.48h-.982v-8.37a.742.742 0 00-.742-.74h-.466L25.782 4.847a.741.741 0 00-1.456 0l-2.002 10.141h-.466a.741.741 0 00-.742.742v8.37h-.983a.741.741 0 00-.066 1.48v1.324a.742.742 0 101.483 0v-1.322h7.008v7.537H21.55v-3.743a.742.742 0 10-1.483 0v3.743H17.73a.742.742 0 000 1.484h.428v13.882H.802a.742.742 0 000 1.483h48.456a.742.742 0 000-1.483zM25.054 8.82l1.218 6.168h-2.436l1.218-6.168zM22.6 16.473h4.908v4.526h-.599v-3.558a.742.742 0 00-1.483 0v3.558h-.744v-3.558a.742.742 0 10-1.484 0v3.558H22.6v-4.526zm4.908 7.627H22.6v-1.617h4.908V24.1zm-4.165 24.386V45.9a1.73 1.73 0 011.017-1.574v4.159h-1.017zm3.457 0h-.957v-4.13c.022.01.043.021.064.033l.006.003a1.73 1.73 0 01.887 1.51v2.584zm3.618 0h-2.135V45.9a3.213 3.213 0 00-1.643-2.8l-.006-.003a3.213 3.213 0 00-4.774 2.806v2.584h-2.218V40.36h10.776v8.125zm0-9.608h-1V36.61a.742.742 0 00-1.484 0v2.267h-1.027V36.61a.742.742 0 10-1.483 0v2.267h-1.027V36.61a.742.742 0 00-1.483 0v2.267h-1.027V36.61a.742.742 0 10-1.483 0v2.267h-.762v-4.273h10.776v4.273z"/><path d="M37.688 43.766h-1.483a.742.742 0 000 1.483h1.483a.742.742 0 100-1.483zm4.55 1.483h-1.484a.742.742 0 000 1.483h1.483a.742.742 0 100-1.483zM6.735 43.172H5.253a.742.742 0 100 1.484h1.483a.742.742 0 000-1.484zm5.241 1.88h-1.483a.742.742 0 100 1.483h1.483a.742.742 0 000-1.484zM49.16 38.8h-1.446v-4.97a.742.742 0 00-.742-.741c-.917 0-1.74.408-2.299 1.053a3.035 3.035 0 00-2.299-1.053.743.743 0 00-.742.742V38.8h-1.186v-.918a.742.742 0 10-1.484 0v1.66c0 .409.332.74.742.74h2.67a.74.74 0 00.742-.74V34.76c.485.265.815.78.815 1.37a.741.741 0 001.484 0c0-.59.33-1.106.816-1.37v4.781c0 .41.332.742.741.742h2.188a.742.742 0 100-1.483z"/><path d="M39.704 33.089c-.917 0-1.74.408-2.299 1.053a3.035 3.035 0 00-2.299-1.053.742.742 0 00-.742.742V38.8h-.939a.741.741 0 100 1.483h1.681c.41 0 .742-.332.742-.742v-4.78c.485.263.816.778.816 1.369a.741.741 0 101.483 0c0-.59.33-1.105.816-1.37v.65a.742.742 0 101.483 0v-1.58a.742.742 0 00-.742-.741zm-23.228 5.71h-.94v-4.968a.742.742 0 00-.741-.742c-.917 0-1.741.408-2.3 1.053a3.035 3.035 0 00-2.298-1.053.743.743 0 00-.742.742V38.8H8.27v-4.97a.742.742 0 00-.742-.741c-.917 0-1.741.408-2.3 1.053a3.035 3.035 0 00-2.298-1.053.743.743 0 00-.742.742V38.8H.741a.742.742 0 000 1.483H2.93a.74.74 0 00.741-.742v-4.78c.486.263.816.778.816 1.369a.741.741 0 101.484 0c0-.59.33-1.106.815-1.37v4.781c0 .41.332.742.742.742h2.67c.41 0 .742-.332.742-.742v-4.78c.485.264.815.778.815 1.369a.741.741 0 101.484 0c0-.59.33-1.106.816-1.37v4.781c0 .41.332.742.741.742h1.681a.742.742 0 100-1.483z"/></g><defs><clipPath id="ba"><path d="M0 0h50v50H0z"/></clipPath></defs></svg><svg viewBox="0 0 26 25" id="go" xmlns="http://www.w3.org/2000/svg"><path d="M26 12.5C26 5.596 20.404 0 13.5 0h-1C5.596 0 0 5.596 0 12.5S5.596 25 12.5 25h1C20.404 25 26 19.404 26 12.5z"/><path fill-rule="evenodd" clip-rule="evenodd" d="M19.362 12.642c0-.444-.041-.87-.118-1.279h-6.122v2.418h3.498a2.872 2.872 0 01-1.297 1.886v1.568h2.1c1.23-1.088 1.94-2.69 1.94-4.593z"/><path fill-rule="evenodd" clip-rule="evenodd" d="M13.121 18.75c1.755 0 3.226-.56 4.302-1.514l-2.1-1.568c-.583.375-1.327.596-2.202.596a3.86 3.86 0 01-3.637-2.576H7.313v1.619c1.069 2.042 3.267 3.443 5.808 3.443z"/><path fill-rule="evenodd" clip-rule="evenodd" d="M9.485 13.687a3.626 3.626 0 01-.204-1.188c0-.412.074-.812.204-1.187v-1.62H7.313a6.053 6.053 0 000 5.614l2.172-1.62z"/><path fill-rule="evenodd" clip-rule="evenodd" d="M13.122 8.736c.954 0 1.811.315 2.485.934l1.864-1.792c-1.125-1.009-2.597-1.628-4.349-1.628-2.54 0-4.739 1.4-5.809 3.443l2.172 1.62a3.86 3.86 0 013.637-2.577z"/></svg><svg viewBox="0 0 502.664 502.664" id="icon" xmlns="http://www.w3.org/2000/svg"><path d="M153.821 358.226L0 274.337v-46.463l153.821-83.414v54.574L46.636 250.523l107.185 53.431v54.272zm26.273 29.358L282.103 115.08h32.227L212.084 387.584h-31.99zm168.749-29.358v-54.272l107.164-52.999-107.164-52.59v-53.927l153.821 83.522v46.183l-153.821 84.083z"/></svg><svg viewBox="0 0 19 19" id="phone" xmlns="http://www.w3.org/2000/svg"><path d="M17.798 13.696l-2.435-2.024c-1.554-1.553-4.323 1.953-4.33 1.961-.217.215-1.952-1.17-3.371-2.59-1.42-1.418-2.805-3.154-2.59-3.37.009-.008 3.516-2.776 1.961-4.33L5.013.907c-2.18-1.9-8.986 3.262.13 12.382l.138.137.139.14c9.112 9.115 14.278 2.311 12.378.129z"/></svg><svg viewBox="0 0 26 25" id="tg" xmlns="http://www.w3.org/2000/svg"><rect width="26" height="25" rx="12.5"/><path d="M18.2 7.876l-1.954 9.807s-.273.68-1.024.354l-4.507-3.442-.021-.01c.608-.544 5.33-4.77 5.536-4.962.32-.297.121-.474-.25-.25l-6.973 4.41-2.69-.901s-.424-.15-.465-.476c-.041-.327.478-.504.478-.504l10.968-4.284s.902-.394.902.258z"/></svg><svg viewBox="0 0 26 25" id="vi" xmlns="http://www.w3.org/2000/svg"><rect width="26" height="25" rx="12.5"/><path d="M17.065 5.966a20.931 20.931 0 00-7.528 0c-1.096.228-2.477 1.501-2.715 2.502a13.756 13.756 0 000 5.914c.285 1.001 1.667 2.275 2.715 2.502.048 0 .096.046.096.091v2.866c0 .137.19.228.285.091l1.43-1.41s1.143-1.137 1.334-1.32c0 0 .047-.045.095-.045 1.43.046 2.906-.09 4.336-.318 1.096-.227 2.477-1.501 2.715-2.502a13.756 13.756 0 000-5.914c-.285-.956-1.667-2.23-2.763-2.457zm.048 8.553c-.238.455-.524.819-1 1.046l-.43.137a6.264 6.264 0 01-.476-.137c-1.525-.591-2.954-1.41-4.097-2.593a10.917 10.917 0 01-1.573-2.275c-.19-.409-.38-.773-.524-1.182-.143-.364.096-.728.334-1.001.238-.273.524-.455.857-.592.239-.136.477-.045.667.137.381.455.763.91 1.048 1.41.191.319.143.683-.19.91a.84.84 0 00-.238.182c-.048.046-.143.091-.19.182a.425.425 0 00-.049.41c.382 1.046 1.096 1.865 2.192 2.32.19.09.334.136.572.136.333-.046.476-.41.714-.591.239-.182.525-.182.81-.046.239.137.477.319.763.5.238.183.476.319.714.5.143.092.191.32.096.547zm-2.001-3.412c-.096 0-.048 0 0 0-.19 0-.239-.091-.286-.228 0-.09 0-.227-.048-.318a.86.86 0 00-.333-.5l-.286-.137c-.143-.045-.238-.045-.381-.045-.143-.046-.191-.137-.191-.273 0-.091.143-.182.238-.182.763.045 1.334.455 1.43 1.319v.182c0 .09-.048.182-.143.182zm-.477-2.002a3.693 3.693 0 00-.762-.227c-.095 0-.238-.046-.334-.046-.143 0-.238-.09-.19-.227 0-.137.095-.228.238-.182.476.045.905.136 1.334.318.858.41 1.334 1.092 1.477 2.002v.591c-.048.182-.381.228-.429 0 0-.045-.047-.136-.047-.182 0-.41-.096-.818-.286-1.182a2.524 2.524 0 00-1-.865zm2.573 2.73c-.143 0-.238-.137-.238-.273 0-.273-.048-.546-.095-.82-.191-1.455-1.43-2.638-2.907-2.865-.238-.046-.476-.046-.667-.091-.143 0-.333 0-.381-.182-.048-.137.095-.273.238-.273h.096c.095 0 1.953.045 0 0 2 .045 3.668 1.32 4.002 3.23.047.318.095.637.095 1 .095.137 0 .274-.143.274z"/></svg><svg viewBox="0 0 26 25" id="vk" xmlns="http://www.w3.org/2000/svg"><rect width="26" height="25" rx="12.5"/><path d="M13.638 16.875c-4.886 0-7.672-3.284-7.788-8.75h2.447c.08 4.011 1.885 5.71 3.314 6.061V8.125h2.304v3.46c1.411-.15 2.894-1.726 3.394-3.46h2.305a6.61 6.61 0 01-1.104 2.502 6.757 6.757 0 01-2.031 1.86 7.032 7.032 0 012.315 1.808 6.871 6.871 0 011.356 2.58h-2.537a4.317 4.317 0 00-1.368-2.11 4.454 4.454 0 00-2.33-1.017v3.127h-.277z"/></svg><svg viewBox="0 0 26 25" id="wa" xmlns="http://www.w3.org/2000/svg"><rect width="26" height="25" rx="12.5"/><path d="M18.152 7.54a6.918 6.918 0 00-4.803-1.915c-3.758 0-6.801 2.917-6.801 6.517 0 1.14.332 2.279.903 3.236L6.5 18.75l3.615-.912a7.177 7.177 0 003.234.775c3.757 0 6.801-2.916 6.801-6.517-.048-1.686-.713-3.326-1.998-4.557zm-1.521 6.926c-.143.365-.809.73-1.142.775a2.77 2.77 0 01-1.046-.046c-.238-.09-.571-.182-.951-.364-1.713-.684-2.807-2.324-2.902-2.461-.095-.091-.713-.866-.713-1.686s.428-1.185.57-1.368c.143-.182.334-.182.476-.182h.333c.095 0 .238-.045.38.274.143.319.476 1.139.524 1.184a.28.28 0 010 .274c-.048.091-.095.182-.19.273-.096.091-.19.228-.238.274-.095.09-.19.182-.095.319.095.182.428.683.95 1.14.667.546 1.19.728 1.38.82.19.09.285.045.38-.046.096-.091.429-.456.524-.638.095-.182.237-.137.38-.091.143.045.999.455 1.142.546.19.092.285.137.333.183.047.137.047.456-.095.82z"/></svg></svg>