<svg width="134" height="57" viewBox="0 0 134 57" fill="none" xmlns="http://www.w3.org/2000/svg">
<g clip-path="url(#clip0_902_1278)">
<path d="M133.635 0.65332H0.167969V42.2044H133.635V0.65332Z" fill="#1E5AD0"/>
<path d="M133.635 42.2041H0.167969V56.0545H133.635V42.2041Z" fill="#C40000"/>
<path fill-rule="evenodd" clip-rule="evenodd" d="M20.3055 11.4873H12.7041V33.3142H17.3413V25.3405H20.3055C24.6261 25.3405 27.3079 22.1179 27.3079 18.4504C27.3079 14.7829 24.6261 11.4873 20.3055 11.4873ZM22.6117 18.4631C22.6117 20.2365 21.634 21.3997 20.1534 21.3997H17.3599V15.5234H20.1534C21.634 15.5234 22.6117 16.6898 22.6117 18.4631Z" fill="white"/>
<path fill-rule="evenodd" clip-rule="evenodd" d="M38.1843 11.0674C33.5502 11.0674 29.7666 14.1024 29.7666 20.109V24.7267C29.7666 30.7651 33.5161 33.7365 38.1843 33.7365C42.8526 33.7365 46.6363 30.7651 46.6363 24.7267V20.109C46.6363 14.1024 42.8185 11.0674 38.1843 11.0674ZM42.0022 20.4332V24.3708C42.0022 28.4069 40.4161 29.6973 38.1843 29.6973C35.9526 29.6973 34.4007 28.4069 34.4007 24.3708V20.4332C34.4007 16.4923 35.9775 15.1036 38.1843 15.1036C40.3912 15.1036 42.0022 16.4923 42.0022 20.4332Z" fill="white"/>
<path d="M64.8279 32.7328C62.8434 33.3998 60.7678 33.7388 58.6792 33.737C53.7129 33.737 49.9883 30.7972 49.9883 24.759V20.0395C49.9883 14.0012 53.7129 11.0615 58.6792 11.0615C60.7675 11.0602 62.843 11.3981 64.8279 12.0626L63.9464 15.9367C62.252 15.3893 60.4868 15.1065 58.7102 15.0976C56.1867 15.0976 54.6099 16.4865 54.6099 20.4272V24.3394C54.6099 28.312 56.1867 29.6977 58.7102 29.6977C60.491 29.7111 62.2612 29.4167 63.9464 28.8269L64.8279 32.7328Z" fill="white"/>
<path d="M82.7684 32.7328C80.7839 33.3998 78.7082 33.7388 76.6196 33.737C71.6379 33.737 67.9287 30.7972 67.9287 24.759V20.0395C67.9287 14.0012 71.6534 11.0615 76.6196 11.0615C78.708 11.0602 80.7834 11.3981 82.7684 12.0626L81.8868 15.9367C80.1936 15.3893 78.4294 15.1065 76.6537 15.0976C74.1302 15.0976 72.5503 16.4865 72.5503 20.4272V24.3394C72.5503 28.312 74.1302 29.6977 76.6537 29.6977C78.4335 29.7107 80.2027 29.4163 81.8868 28.8269L82.7684 32.7328Z" fill="white"/>
<path d="M102.54 33.3142H97.9025V24.0152C97.9025 23.046 97.9335 21.8542 98.0303 20.5924L90.1772 33.3047H86.3936V11.4873H91.0277V20.9484C91.0277 21.9018 90.9966 23.046 90.9345 24.2759L98.7869 11.4873H102.54V33.3142Z" fill="white"/>
<path fill-rule="evenodd" clip-rule="evenodd" d="M116.036 33.3142H120.67L120.677 11.4873H112.952C108.631 11.4873 105.948 14.7829 105.948 18.4631C105.948 21.1104 107.277 23.564 109.673 24.6604L105.7 33.3142H110.856L114.27 25.3405H116.036L116.036 33.3142ZM116.036 15.5234V21.3997H113.165C111.682 21.3997 110.611 20.2079 110.611 18.4631C110.611 16.7184 111.682 15.5234 113.165 15.5234H116.036Z" fill="white"/>
<path d="M13.375 46.4172H11.7051V45.1143H16.5471V46.4172H14.8742V52.1695H13.375V46.4172Z" fill="white"/>
<path d="M17.5117 45.127H21.6306V46.4172H19.0109V48.0063H21.2116L21.1526 49.2585H19.0109V50.8665H21.7237V52.1727H17.5117V45.127Z" fill="white"/>
<path d="M22.2305 51.0127C23.413 50.7839 23.8724 50.231 23.8724 45.127H28.37V52.1822H26.8614V46.3981H25.3095C25.3095 51.6801 24.2387 52.1822 22.3111 52.2871L22.2305 51.0127Z" fill="white"/>
<path d="M29.7949 45.127H33.9107V46.4172H31.2941V48.0063H33.4948L33.4327 49.2585H31.2941V50.8665H34.0007V52.1727H29.7949V45.127Z" fill="white"/>
<path fill-rule="evenodd" clip-rule="evenodd" d="M35.2236 52.1822V45.127H37.4771C38.9359 45.127 39.8422 45.95 39.8422 47.11C39.8608 47.7061 39.5155 48.2511 38.9762 48.4766C39.6497 48.6761 40.1089 49.313 40.0967 50.0306C40.0967 51.2224 39.0476 52.1822 37.5298 52.1822H35.2236ZM37.3653 47.9458C37.986 47.9458 38.3244 47.628 38.3244 47.1831C38.3244 46.7382 38.0699 46.4299 37.4367 46.4299H36.7228V47.9458H37.3653ZM38.5789 50.0306C38.5789 50.5105 38.1816 50.8761 37.5174 50.8761L36.7228 50.8665V49.1853H37.6011C38.2685 49.1853 38.5789 49.5508 38.5789 50.0306Z" fill="white"/>
<path d="M46.3843 52.1822H44.8852V49.1757C44.8852 48.858 44.8852 48.4766 44.9255 48.0698L42.3803 52.1822H41.1543V45.127H42.6535V48.1843C42.6535 48.4862 42.6535 48.8612 42.6224 49.2585L45.1614 45.127H46.375L46.3843 52.1822Z" fill="white"/>
<path fill-rule="evenodd" clip-rule="evenodd" d="M48.9302 45.127C48.9023 47.2245 48.474 50.0625 47.8097 50.9078H47.1982V53.5488L48.5639 53.3422V52.1822H52.6239V53.5488L53.9896 53.3422V50.9078H53.2757V45.127H48.9302ZM51.7858 46.3981V50.9078H49.43C49.7994 50.25 50.1748 48.1938 50.2773 46.3981H51.7858Z" fill="white"/>
<path d="M54.9111 45.127H59.0299V46.4172H56.4103V48.0063H58.614L58.552 49.2585H56.4103V50.8665H59.1231V52.1727H54.9111V45.127Z" fill="white"/>
<path d="M60.3438 45.127H61.8429V47.9554H63.9629V45.127H65.462V52.1822H63.9629V49.2267H61.8429V52.1822H60.3438V45.127Z" fill="white"/>
<path d="M72.1035 52.1822H70.6074V49.1757C70.6074 48.858 70.6074 48.4766 70.6478 48.0698L68.1088 52.1822H66.9014V45.127H68.4005V48.1843C68.4005 48.4862 68.4005 48.8612 68.3695 49.2585L70.9085 45.127H72.119L72.1035 52.1822Z" fill="white"/>
<path d="M73.5312 45.127H77.647V46.4172H75.0304V48.0063H77.2311L77.1721 49.2585H75.0304V50.8665H77.7402V52.1727H73.5312V45.127Z" fill="white"/>
<path d="M86.4253 52.1822H84.9262V49.1757C84.9262 48.858 84.9262 48.4766 84.9666 48.0698L82.4213 52.1822H81.1953V45.127H82.6946V48.1843C82.6946 48.4862 82.6946 48.8612 82.6635 49.2585L85.2024 45.127H86.416L86.4253 52.1822Z" fill="white"/>
<path fill-rule="evenodd" clip-rule="evenodd" d="M92.546 45.1269H90.0908V52.1822H91.5869V49.6048H92.546C93.1396 49.6374 93.7198 49.4166 94.1487 48.9951C94.5771 48.5735 94.8168 47.9888 94.8083 47.3801C94.8168 46.7689 94.579 46.1811 94.151 45.7549C93.723 45.3287 93.1425 45.1015 92.546 45.1269ZM93.2909 47.3706C93.2909 47.9491 92.9743 48.3241 92.4963 48.3241H91.5869V46.4172H92.4963C92.9805 46.4172 93.2909 46.7922 93.2909 47.3706Z" fill="white"/>
<path fill-rule="evenodd" clip-rule="evenodd" d="M99.0695 45.127H97.3344L95.2676 52.1822H96.7855L97.2442 50.482H99.1597L99.6194 52.1822H101.136L99.0695 45.127ZM98.467 47.9014L98.8242 49.2394H97.5798L97.9369 47.9014C98.0206 47.5804 98.1202 47.1418 98.2001 46.7032C98.2847 47.1418 98.374 47.5836 98.467 47.9014Z" fill="white"/>
<path fill-rule="evenodd" clip-rule="evenodd" d="M103.173 45.127C103.145 47.2245 102.716 50.0625 102.053 50.9078H101.432V53.5488L102.801 53.3422V52.1822H106.867V53.5488L108.233 53.3422V50.9078H107.518V45.127H103.173ZM106.029 46.3981V50.9078H103.673C104.043 50.25 104.418 48.1938 104.52 46.3981H106.029Z" fill="white"/>
<path d="M114.391 52.1822H112.892V49.1757C112.892 48.858 112.892 48.4766 112.933 48.0698L110.397 52.1822H109.174V45.127H110.666V48.1843C110.666 48.4862 110.666 48.8612 110.638 49.2585L113.174 45.127H114.391V52.1822Z" fill="white"/>
<path fill-rule="evenodd" clip-rule="evenodd" d="M118.355 44.9902C116.858 44.9902 115.633 45.9723 115.633 47.9141V49.4046C115.633 51.3654 116.846 52.3189 118.355 52.3189C119.863 52.3189 121.089 51.356 121.089 49.4046V47.9141C121.089 45.9723 119.851 44.9902 118.355 44.9902ZM119.584 48.0063V49.2774C119.584 50.5964 119.065 51 118.343 51C117.619 51 117.12 50.5837 117.12 49.2774V48.0063C117.12 46.735 117.619 46.2869 118.343 46.2869C119.065 46.2869 119.584 46.735 119.584 48.0063Z" fill="white"/>
</g>
<defs>
<clipPath id="clip0_902_1278">
<rect width="133.467" height="55.4015" fill="white" transform="translate(0.167969 0.65332)"/>
</clipPath>
</defs>
</svg>
