<svg width="197" height="330" viewBox="0 0 197 330" fill="none" xmlns="http://www.w3.org/2000/svg">
<g clip-path="url(#clip0_902_4070)">
<path d="M194.534 3.50161C194.534 3.50161 187.361 -0.95482 178.052 1.17908C176.66 1.4974 175.445 1.81571 174.371 2.13403C169.31 5.27004 166.797 9.32563 166.797 9.32563C166.797 9.32563 162.338 15.916 162.526 17.6608C162.715 19.4057 162.267 20.5374 160.721 22.0819C159.176 23.6263 157.288 25.7956 158.456 27.5404C159.624 29.2853 160.391 31.0301 160.391 31.0301C160.391 31.0301 160.391 41.4992 161.17 42.855C161.948 44.2108 164.733 45.4958 164.733 45.4958L166.667 55.1868L190.865 48.4432C190.865 48.4432 188.281 39.8133 190.216 38.2571C192.151 36.7009 199.949 28.1181 200.138 18.0381C200.362 7.95805 194.534 3.50161 194.534 3.50161Z" fill="white" stroke="#263238" stroke-miterlimit="10" stroke-linecap="round" stroke-linejoin="round"/>
<path d="M177.404 4.62169C177.604 6.01285 168.284 12.3556 168.284 14.7371C168.284 17.1186 168.685 20.0895 169.075 21.0798C169.476 22.0702 170.856 26.0314 170.856 26.0314L177.604 32.9636C177.604 32.9636 181.179 37.7266 184.353 38.3161C187.031 38.823 188.718 38.7523 190.252 38.2453C193.72 34.4727 200.02 26.1375 200.174 18.0264C200.362 7.94633 194.546 3.48989 194.546 3.48989C194.546 3.48989 187.373 -0.966538 178.065 1.16736C176.672 1.48568 175.457 1.80399 174.384 2.12231C174.384 2.12231 177.203 3.23052 177.404 4.62169Z" fill="#263238" stroke="#263238" stroke-miterlimit="10" stroke-linecap="round" stroke-linejoin="round"/>
<path d="M176.011 16.3169L180.601 18.4272C183.161 19.6061 184.305 22.6242 183.161 25.1944L179.562 33.2937C178.395 35.911 175.374 37.1371 172.708 36.0643L171.245 35.4748C168.567 34.3902 167.234 31.3603 168.26 28.6605L172.378 17.8023C172.932 16.3522 174.596 15.6684 176.011 16.3169Z" fill="white" stroke="#263238" stroke-miterlimit="10" stroke-linecap="round" stroke-linejoin="round"/>
<path d="M197.058 6.21344C197.058 6.21344 188.776 4.29175 180.6 18.4274L177.273 16.6707C177.273 16.6707 177.273 4.84585 186.582 0.589844L191.431 2.72374C191.431 2.72374 181.155 5.63575 179.598 15.1263C179.598 15.1263 185.414 5.63575 194.534 3.50185L197.058 6.21344Z" fill="white" stroke="#263238" stroke-miterlimit="10" stroke-linecap="round" stroke-linejoin="round"/>
<path d="M173.015 30.0398L155.955 42.0533C155.955 42.0533 158.09 43.02 156.734 43.9868C155.377 44.9535 154.598 45.543 153.82 44.7649C153.041 43.9868 152.652 42.631 153.43 41.2752C154.209 39.9312 171.08 28.2949 171.08 28.2949L173.015 30.0398Z" fill="#263238" stroke="#263238" stroke-miterlimit="10" stroke-linecap="round" stroke-linejoin="round"/>
<path d="M135.321 319.955C137.492 317.256 146.588 315.287 146.588 315.287L150.375 309.875C150.375 309.875 149.832 307.175 149.832 305.006C149.832 302.837 150.375 297.968 150.918 296.353C151.46 294.726 144.016 256.115 144.559 240.435C145.007 227.349 147.072 204.548 147.744 197.333C147.803 196.342 147.874 195.552 147.956 195.057C148.711 190.554 151.012 166.574 151.012 166.574L209.718 165.819L205.589 182.879L208.585 224.107L208.963 245.988C208.963 245.988 215.452 279.388 216.101 288.477C216.749 297.555 217.398 323.186 217.398 323.186C217.398 323.186 212.207 325.131 209.93 325.461C207.653 325.791 204.09 324.482 202.462 323.516C200.834 322.537 199.218 322.219 197.92 320.922C196.622 319.625 194.027 319.944 195.643 315.405C197.271 310.866 197.271 310.866 197.271 310.866C197.271 310.866 197.92 304.7 197.92 299.512C197.92 294.325 189.803 262.54 188.505 254.429C187.208 246.318 181.191 204.63 181.191 204.63L172.189 224.684L171.434 227.313L166.16 257.223L173.204 311.325V327.56C173.204 327.56 160.214 330.259 153.714 329.186C147.213 328.102 140.724 328.644 138.011 327.56C135.321 326.451 133.162 322.655 135.321 319.955Z" fill="#263238" stroke="#263238" stroke-miterlimit="10" stroke-linecap="round" stroke-linejoin="round"/>
<path d="M195.702 51.7445C195.702 51.7445 211.794 68.4149 212.962 75.7715C214.13 83.14 211.416 127.704 211.416 127.704C211.416 127.704 212.584 162.389 212.384 166.079C212.195 169.757 206.178 172.669 192.021 174.603C177.863 176.536 139.733 171.054 137.22 170.288C134.695 169.51 140.405 144.988 140.016 130.062C139.627 115.137 153.041 80.4284 157.111 72.6827C161.181 64.937 164.095 62.025 164.095 62.025C164.095 62.025 182.323 48.6439 195.702 51.7445Z" fill="#704B8C" stroke="#263238" stroke-miterlimit="10" stroke-linecap="round" stroke-linejoin="round"/>
<path d="M194.345 44.1875C194.345 44.1875 186.098 45.2368 184.352 46.2153C182.606 47.182 161.96 58.1463 161.96 58.1463L164.095 62.025C164.095 62.025 186.393 51.7564 188.717 51.5559C191.042 51.3673 195.702 51.7446 195.702 51.7446L194.345 44.1875Z" fill="#704B8C" stroke="#263238" stroke-miterlimit="10" stroke-linecap="round" stroke-linejoin="round"/>
<path d="M127.947 0.708008L127.758 12.7097L122.508 22.0706L121.753 1.2739L127.947 0.708008Z" fill="white" stroke="#263238" stroke-miterlimit="10" stroke-linecap="round" stroke-linejoin="round"/>
<path d="M127.947 0.708008L146.14 3.14844L145.573 15.1384L135.451 26.3855L115.383 25.0769L122.509 22.0706L133.009 23.391L133.198 8.39476L128.136 7.82887L127.947 0.708008Z" fill="#263238" stroke="#263238" stroke-miterlimit="10" stroke-linecap="round" stroke-linejoin="round"/>
<path d="M105.826 10.623H111.053V17.8264L105.826 17.6024V10.623Z" fill="#263238" stroke="#263238" stroke-miterlimit="10" stroke-linecap="round" stroke-linejoin="round"/>
<path d="M103.407 14.1127C103.407 16.0344 104.493 17.6024 105.838 17.6024C107.183 17.6024 108.268 16.0344 108.268 14.1127C108.268 12.1911 107.183 10.623 105.838 10.623C104.493 10.623 103.407 12.1911 103.407 14.1127Z" fill="white" stroke="#263238" stroke-miterlimit="10" stroke-linecap="round" stroke-linejoin="round"/>
<path d="M121.753 1.27344L111.442 4.64524L111.253 24.6992L115.382 25.0764L122.508 22.0701L121.753 1.27344Z" fill="white" stroke="#263238" stroke-miterlimit="10" stroke-linecap="round" stroke-linejoin="round"/>
<path d="M118.946 25.266L118.191 30.8896H111.997V35.9473H101.874V32.0096L101.685 30.5123L97.3674 29.7578C97.3674 29.7578 96.4354 26.9519 97.5562 25.4428C98.677 23.9456 100.553 23.7569 100.553 23.7569L102.818 23.5801L111.253 24.7001L118.946 25.266Z" fill="#263238" stroke="#263238" stroke-miterlimit="10" stroke-linecap="round" stroke-linejoin="round"/>
<path d="M102.818 23.5796C102.818 23.5796 104.694 23.9568 104.316 25.8314C103.939 27.7059 101.685 29.769 98.8775 29.5804C96.0697 29.3918 94.1938 28.8259 97.568 25.4541C100.942 22.0705 102.818 23.5796 102.818 23.5796Z" fill="white" stroke="#263238" stroke-miterlimit="10" stroke-linecap="round" stroke-linejoin="round"/>
<path d="M108.244 35.8994V46.4274L106.062 50.3887L106.168 61.6477L97.2959 61.1172L96.5645 38.7171L98.4403 36.2177L108.244 35.8994Z" fill="white" stroke="#263238" stroke-miterlimit="10" stroke-linecap="round" stroke-linejoin="round"/>
<path d="M108.245 35.8994L117.318 36.1116L117.849 46.6397L115.973 50.3887L115.654 61.742L106.169 61.6477L106.062 50.3887L108.245 46.4274V35.8994Z" fill="#263238" stroke="#263238" stroke-miterlimit="10" stroke-linecap="round" stroke-linejoin="round"/>
<path d="M96.5644 38.7171L95.8801 34.8383L93.1076 30.3701L77.7351 30.6884L77.5699 33.2939L64.8047 34.2135L65.5715 70.3483L70.6564 70.0418L80.4958 76.9504L94.6532 79.1079L106.652 77.4102L96.3403 75.5711L96.4936 70.1951H108.185V67.7311H104.646L100.186 61.5769L97.2959 61.1171L96.5644 38.7171Z" fill="#263238" stroke="#263238" stroke-miterlimit="10" stroke-linecap="round" stroke-linejoin="round"/>
<path d="M74.6477 69.1133H101.57V67.5806H74.6477V69.1133Z" fill="white" stroke="#263238" stroke-miterlimit="10" stroke-linecap="round" stroke-linejoin="round"/>
<path d="M96.5649 38.7178L90.6542 41.1346H77.889L74.1963 45.5911V58.2058L77.889 60.658L74.8098 63.122L74.6564 67.5785H101.579L92.0346 62.2025L97.2964 61.1178L96.5649 38.7178Z" fill="white" stroke="#263238" stroke-miterlimit="10" stroke-linecap="round" stroke-linejoin="round"/>
<path d="M79.7258 56.8174H90.1904V44.6742H79.7258V56.8174Z" stroke="#263238" stroke-miterlimit="10" stroke-linecap="round" stroke-linejoin="round"/>
<path d="M82.1888 52.2051H86.9551V48.3617H82.1888V52.2051Z" fill="white" stroke="#263238" stroke-miterlimit="10" stroke-linecap="round" stroke-linejoin="round"/>
<path d="M64.8056 34.2139L14.193 37.1377L12.3525 40.0615L13.1194 65.5739L15.8919 67.4249L58.0455 69.2641L60.346 70.9617L65.5725 70.3487L64.8056 34.2139Z" fill="white" stroke="#263238" stroke-miterlimit="10" stroke-linecap="round" stroke-linejoin="round"/>
<path d="M106.652 77.4102L106.345 80.1807L93.8867 82.1849L94.6536 79.1078L106.652 77.4102Z" fill="white" stroke="#263238" stroke-miterlimit="10" stroke-linecap="round" stroke-linejoin="round"/>
<path d="M60.7235 265.488V217.705L70.5039 204.796L80.2843 217.705V265.488H84.6259L81.3697 274.719H70.5039H59.6381L56.3701 265.488H60.7235Z" fill="#263238" stroke="#263238" stroke-width="5" stroke-miterlimit="10" stroke-linecap="round" stroke-linejoin="round"/>
<path d="M105.343 208.816V217.611C105.343 219.828 89.7577 221.632 70.5273 221.632C51.2968 221.632 35.7119 219.828 35.7119 217.611V208.816H105.343Z" fill="#263238" stroke="#263238" stroke-miterlimit="10" stroke-linecap="round" stroke-linejoin="round"/>
<path d="M35.7236 208.816C35.7236 211.033 51.3085 212.836 70.539 212.836C89.7694 212.836 105.354 211.033 105.354 208.816C105.354 206.6 89.7694 204.796 70.539 204.796C51.3085 204.796 35.7236 206.6 35.7236 208.816Z" fill="white" stroke="#263238" stroke-miterlimit="10" stroke-linecap="round" stroke-linejoin="round"/>
<path d="M52.1461 205.504V183.575H55.8978V162.402H62.2686V141.605H64.522V125.111L71.2704 125.489L78.0305 125.111V141.605H80.2721V162.402H86.6547V183.575H90.4064V205.504H96.0222V215.065H71.2704H46.5186V205.504H52.1461Z" fill="#263238" stroke="#263238" stroke-miterlimit="10" stroke-linecap="round" stroke-linejoin="round"/>
<path d="M69.5119 117.919C97.3665 117.919 119.959 123.118 119.959 129.52C119.959 135.933 97.3783 141.121 69.5119 141.121C41.6455 141.121 19.0645 135.922 19.0645 129.52C19.0645 123.118 41.6573 117.919 69.5119 117.919ZM69.5119 137.124C93.7328 137.124 113.364 133.41 113.364 128.824C113.364 124.238 93.7328 120.524 69.5119 120.524C45.291 120.524 25.6594 124.238 25.6594 128.824C25.6594 133.41 45.291 137.124 69.5119 137.124Z" fill="white" stroke="#263238" stroke-miterlimit="10" stroke-linecap="round" stroke-linejoin="round"/>
<path d="M99.7144 117.212V124.58C99.7144 126.443 86.6425 127.952 70.5267 127.952C54.4108 127.952 41.3389 126.443 41.3389 124.58V117.212H99.7144Z" fill="#263238" stroke="#263238" stroke-miterlimit="10" stroke-linecap="round" stroke-linejoin="round"/>
<path d="M70.5384 120.583C86.6583 120.583 99.7262 119.074 99.7262 117.212C99.7262 115.349 86.6583 113.84 70.5384 113.84C54.4184 113.84 41.3506 115.349 41.3506 117.212C41.3506 119.074 54.4184 120.583 70.5384 120.583Z" fill="white" stroke="#263238" stroke-miterlimit="10" stroke-linecap="round" stroke-linejoin="round"/>
<path d="M51.863 87.3491L48.4062 94.3992L49.7394 107.415L54.2108 107.886V117.613H88.8845L87.4688 108.995H93.2733L88.8845 95.2009H80.2603V89.5537H89.2031L90.6188 92.3714H102.228C102.228 92.3714 105.048 89.707 103.644 87.1958C102.228 84.6847 97.9925 85.1563 97.9925 85.1563L83.8823 85.4038L51.863 87.3491Z" fill="#263238" stroke="#263238" stroke-miterlimit="10" stroke-linecap="round" stroke-linejoin="round"/>
<path d="M55.6265 96.439L65.0412 94.5527L67.0822 110.079L62.3749 111.023L62.5282 117.601H54.2108V107.887L49.7394 107.415L48.4062 94.3994L55.6265 96.439Z" fill="white" stroke="#263238" stroke-miterlimit="10" stroke-linecap="round" stroke-linejoin="round"/>
<path d="M94.6534 79.1081L93.8865 82.1852L70.9633 81.2538L63.2712 82.1852L63.1178 85.8753L47.5801 84.4841L47.8868 80.6408L52.8065 80.9473L53.5734 78.9549L61.1122 78.3418L65.1116 74.0386L65.5717 70.3485L70.6566 70.042L80.496 76.9506L94.6534 79.1081Z" fill="white" stroke="#263238" stroke-miterlimit="10" stroke-linecap="round" stroke-linejoin="round"/>
<path d="M47.5804 84.4842H44.041L44.5011 87.1015L53.5736 89.4005L83.8822 85.4038L83.7289 81.8787L70.9636 81.2539L63.2715 82.1853L63.1181 85.8754L47.5804 84.4842Z" fill="#263238" stroke="#263238" stroke-miterlimit="10" stroke-linecap="round" stroke-linejoin="round"/>
<path d="M63.1181 85.8755L53.4321 86.8776L53.5736 89.4006L44.5011 87.1016L44.041 84.4844H47.5804L63.1181 85.8755Z" fill="white" stroke="#263238" stroke-miterlimit="10" stroke-linecap="round" stroke-linejoin="round"/>
<path d="M43.6279 99.6569C43.6279 103.948 46.365 107.414 49.751 107.414C53.1252 107.414 55.8741 103.937 55.8741 99.6569C55.8741 95.3656 53.137 91.8994 49.751 91.8994C46.365 91.8877 43.6279 95.3656 43.6279 99.6569Z" fill="#263238" stroke="#263238" stroke-miterlimit="10" stroke-linecap="round" stroke-linejoin="round"/>
<path d="M44.0996 99.3395C44.0996 101.462 45.2558 103.183 46.6833 103.183C48.1109 103.183 49.267 101.462 49.267 99.3395C49.267 97.2174 48.1109 95.4961 46.6833 95.4961C45.2558 95.4961 44.0996 97.2174 44.0996 99.3395Z" fill="white" stroke="#263238" stroke-miterlimit="10" stroke-linecap="round" stroke-linejoin="round"/>
<path d="M55.6267 96.4387C57.0536 96.4387 58.2104 94.718 58.2104 92.5953C58.2104 90.4727 57.0536 88.752 55.6267 88.752C54.1997 88.752 53.043 90.4727 53.043 92.5953C53.043 94.718 54.1997 96.4387 55.6267 96.4387Z" fill="white" stroke="#263238" stroke-miterlimit="10" stroke-linecap="round" stroke-linejoin="round"/>
<path d="M73.8893 109.525C74.5381 109.525 75.1752 109.301 75.7061 108.841C76.8505 107.839 76.9567 106.106 75.9539 104.963L64.7106 92.1946C63.7077 91.051 61.9735 90.9449 60.8291 91.947C59.6847 92.9492 59.5785 94.6822 60.5813 95.8258L71.8246 108.606C72.3673 109.207 73.1224 109.525 73.8893 109.525Z" fill="white" stroke="#263238" stroke-miterlimit="10" stroke-linecap="round" stroke-linejoin="round"/>
<path d="M97.3318 137.832C98.3582 137.832 99.3965 137.466 100.234 136.735C102.051 135.132 102.24 132.361 100.635 130.534L77.1812 103.878C75.5767 102.051 72.8042 101.874 70.9755 103.477C69.1587 105.08 68.9699 107.851 70.5744 109.678L94.0167 136.334C94.9015 137.325 96.1049 137.832 97.3318 137.832Z" fill="#263238" stroke="#263238" stroke-miterlimit="10" stroke-linecap="round" stroke-linejoin="round"/>
<path d="M110.285 150.906C110.934 150.906 111.571 150.682 112.102 150.222C113.247 149.22 113.353 147.487 112.35 146.344L99.3961 131.618C98.3933 130.475 96.659 130.369 95.5146 131.371C94.3702 132.373 94.2641 134.106 95.2669 135.25L108.221 149.975C108.764 150.588 109.519 150.906 110.285 150.906Z" fill="white" stroke="#263238" stroke-miterlimit="10" stroke-linecap="round" stroke-linejoin="round"/>
<path d="M112.987 100.683C113.541 100.589 114.072 100.294 114.45 99.8227C115.287 98.7852 115.11 97.2644 114.072 96.4391L102.404 87.1018C101.366 86.2765 99.8441 86.4416 99.0183 87.4791C98.1806 88.5165 98.3576 90.0374 99.3958 90.8627L111.064 100.2C111.63 100.648 112.326 100.801 112.987 100.683Z" fill="white" stroke="#263238" stroke-miterlimit="10" stroke-linecap="round" stroke-linejoin="round"/>
<path d="M137.573 121.574C138.458 121.421 139.308 120.949 139.909 120.183C141.243 118.521 140.971 116.092 139.308 114.771L114.981 95.307C113.317 93.9748 110.887 94.2459 109.565 95.9083C108.232 97.5706 108.504 99.9992 110.167 101.32L134.494 120.784C135.391 121.515 136.512 121.763 137.573 121.574Z" fill="#263238" stroke="#263238" stroke-miterlimit="10" stroke-linecap="round" stroke-linejoin="round"/>
<path d="M150.763 130.912C151.318 130.817 151.849 130.523 152.226 130.051C153.064 129.013 152.887 127.493 151.849 126.667L138.411 115.915C137.373 115.078 135.851 115.255 135.025 116.293C134.187 117.33 134.364 118.851 135.403 119.676L148.84 130.428C149.395 130.876 150.103 131.029 150.763 130.912Z" fill="white" stroke="#263238" stroke-miterlimit="10" stroke-linecap="round" stroke-linejoin="round"/>
<path d="M93.3203 218.248L129.681 304.583" stroke="#263238" stroke-width="5" stroke-miterlimit="10" stroke-linecap="round" stroke-linejoin="round"/>
<path d="M46.5179 215.064L10.6172 303.25" stroke="#263238" stroke-width="5" stroke-miterlimit="10" stroke-linecap="round" stroke-linejoin="round"/>
<path d="M70.5391 208.816V316.855" stroke="#263238" stroke-width="5" stroke-miterlimit="10" stroke-linecap="round" stroke-linejoin="round"/>
<path d="M71.4591 297.815L139.155 307.483V313.649L74.6799 307.483L74.4086 326.535H66.0793V307.483L2.94922 313.118V307.212L71.4591 297.815Z" fill="#263238" stroke="#263238" stroke-width="5" stroke-miterlimit="10" stroke-linecap="round" stroke-linejoin="round"/>
<path d="M67.9319 280.909V283.42C45.3627 283.574 27.3239 287.087 27.3239 291.39C27.3239 295.799 46.2122 299.372 69.5128 299.372C92.8135 299.372 111.702 295.799 111.702 291.39C111.702 287.217 94.772 283.798 73.1938 283.444V280.933C98.2759 281.369 118.037 286.179 118.037 292.062C118.037 298.228 96.3057 303.227 69.5011 303.227C42.6964 303.227 20.9648 298.228 20.9648 292.062C20.9884 286.026 41.8706 281.098 67.9319 280.909Z" fill="white" stroke="#263238" stroke-miterlimit="10" stroke-linecap="round" stroke-linejoin="round"/>
<path d="M129.327 315.853C129.327 317.268 130.472 318.412 131.887 318.412C133.303 318.412 134.447 317.268 134.447 315.853C134.447 314.439 133.303 313.295 131.887 313.295C130.472 313.295 129.327 314.439 129.327 315.853Z" fill="#263238"/>
<path d="M5.65039 315.158C5.65039 316.573 6.79478 317.716 8.21052 317.716C9.62625 317.716 10.7706 316.573 10.7706 315.158C10.7706 313.743 9.62625 312.6 8.21052 312.6C6.79478 312.6 5.65039 313.743 5.65039 315.158Z" fill="#263238"/>
<path d="M122.591 137.784L116.775 138.562C116.775 138.562 115.029 138.173 114.061 138.173C113.094 138.173 109.024 137.784 107.667 137.006C106.31 136.228 105.921 138.362 107.278 139.329C108.634 140.295 110.958 141.262 110.958 141.262C110.958 141.262 105.72 145.907 105.331 147.275C104.942 148.631 105.52 150.187 106.11 150.765C106.688 151.342 109.602 156.577 110.958 157.544C112.315 158.51 115.996 158.899 116.586 158.51C117.164 158.121 117.553 157.544 118.332 156.966C119.111 156.388 123.96 150.765 123.96 150.765C123.96 150.765 121.046 143.219 122.591 137.784Z" fill="white" stroke="#263238" stroke-miterlimit="10" stroke-linecap="round" stroke-linejoin="round"/>
<path d="M110.959 141.274L112.752 140.143" stroke="#263238" stroke-miterlimit="10" stroke-linecap="round" stroke-linejoin="round"/>
<path d="M183.869 87.7965C183.869 87.7965 179.221 124.615 176.885 130.038C174.561 135.461 170.29 142.252 166.798 144.186C163.306 146.119 126.072 151.931 126.072 151.931C126.072 151.931 123.158 150.576 122.391 146.897C121.612 143.219 122.58 137.784 122.58 137.784L128.597 134.495C128.597 134.495 129.375 132.361 130.732 131.005C132.089 129.649 134.802 128.293 135.77 127.716C136.737 127.138 140.418 121.904 142.553 120.937C144.689 119.97 147.402 119.192 148.948 117.647C150.493 116.103 153.986 111.258 153.986 111.258C153.986 111.258 152.44 104.667 153.407 101.378C154.375 98.0887 155.732 81.996 157.289 77.1506C158.846 72.3051 162.327 66.3042 166.597 63.7812" fill="#704B8C"/>
<path d="M183.869 87.7965C183.869 87.7965 179.221 124.615 176.885 130.038C174.561 135.461 170.29 142.252 166.798 144.186C163.306 146.119 126.072 151.931 126.072 151.931C126.072 151.931 123.158 150.576 122.391 146.897C121.612 143.219 122.58 137.784 122.58 137.784L128.597 134.495C128.597 134.495 129.375 132.361 130.732 131.005C132.089 129.649 134.802 128.293 135.77 127.716C136.737 127.138 140.418 121.904 142.553 120.937C144.689 119.97 147.402 119.192 148.948 117.647C150.493 116.103 153.986 111.258 153.986 111.258C153.986 111.258 152.44 104.667 153.407 101.378C154.375 98.0887 155.732 81.996 157.289 77.1506C158.846 72.3051 162.327 66.3042 166.597 63.7812" stroke="#263238" stroke-miterlimit="10" stroke-linecap="round" stroke-linejoin="round"/>
<path d="M155.566 113.368C155.566 113.368 158.669 119.18 165.064 121.114" stroke="#263238" stroke-miterlimit="10" stroke-linecap="round" stroke-linejoin="round"/>
<path d="M153.432 116.28C153.432 116.28 156.145 122.093 160.805 126.749" stroke="#263238" stroke-miterlimit="10" stroke-linecap="round" stroke-linejoin="round"/>
</g>
<defs>
<clipPath id="clip0_902_4070">
<rect width="218" height="330" fill="white"/>
</clipPath>
</defs>
</svg>
