<svg width="29" height="30" viewBox="0 0 29 30" fill="none" xmlns="http://www.w3.org/2000/svg">
<circle cx="14.4424" cy="15.0162" r="10.918" fill="white"/>
<path d="M14.8891 0.814453C7.0929 0.814453 0.77832 7.12904 0.77832 14.9253C0.77832 18.0296 1.76608 20.8871 3.45937 23.2154L1.51914 28.3305L7.12818 26.7078C9.35063 28.1894 12.0317 29.0361 14.8891 29.0361C22.6853 29.0361 28.9999 22.7215 28.9999 14.9253C28.9999 7.12904 22.6853 0.814453 14.8891 0.814453ZM22.4031 20.7812L20.8862 22.2629C19.2987 23.8503 15.1008 22.1218 11.3967 18.3824C7.69261 14.6783 6.0346 10.4804 7.51623 8.92817L9.03314 7.41125C9.59757 6.84682 10.5501 6.84682 11.1498 7.41125L13.3722 9.63371C14.1483 10.4098 13.8308 11.7503 12.8078 12.0678C12.1022 12.3148 11.6084 13.0909 11.8553 13.7964C12.2433 15.4544 14.3952 17.5005 15.9827 17.8885C16.6883 18.0649 17.4996 17.6416 17.7113 16.936C18.0288 15.913 19.3693 15.5955 20.1454 16.3716L22.3678 18.5941C22.9323 19.1938 22.9323 20.1463 22.4031 20.7812Z" fill="#2BBD65"/>
</svg>
