<svg width="2100" height="375" viewBox="0 0 2100 375" fill="none" xmlns="http://www.w3.org/2000/svg">
<g clip-path="url(#clip0_4913_287)">
<path d="M-121 0H2100V466H-121V0Z" fill="#040513"/>
<mask id="mask0_4913_287" style="mask-type:luminance" maskUnits="userSpaceOnUse" x="-27" y="-816" width="1205" height="1289">
<path d="M1177.31 -816L-27 472.707V413.724L1122.19 -816H1177.31Z" fill="white"/>
</mask>
<g mask="url(#mask0_4913_287)">
<path d="M1177.31 -816H-27V472.707H1177.31V-816Z" fill="#161720"/>
</g>
<mask id="mask1_4913_287" style="mask-type:luminance" maskUnits="userSpaceOnUse" x="-27" y="-816" width="708" height="1175">
<path d="M643.449 -816L6.09131 241.322L-27 358.206L680.822 -816H643.449Z" fill="white"/>
</mask>
<g mask="url(#mask1_4913_287)">
<path d="M680.822 -816H-27V358.206H680.822V-816Z" fill="#161720"/>
</g>
<mask id="mask2_4913_287" style="mask-type:luminance" maskUnits="userSpaceOnUse" x="-27" y="-816" width="333" height="1175">
<path d="M260.538 -816L-27 199.778V358.206L6.0913 241.322L305.386 -816H260.538Z" fill="white"/>
</mask>
<g mask="url(#mask2_4913_287)">
<path d="M305.386 -816H-27V358.206H305.386V-816Z" fill="#161720"/>
</g>
<mask id="mask3_4913_287" style="mask-type:luminance" maskUnits="userSpaceOnUse" x="-27" y="-816" width="1409" height="1508">
<path d="M1381.66 -816L-27 691.387V632.399L1326.54 -816H1381.66Z" fill="white"/>
</mask>
<g mask="url(#mask3_4913_287)">
<path d="M1381.66 -816H-27V691.387H1381.66V-816Z" fill="#161720"/>
</g>
<mask id="mask4_4913_287" style="mask-type:luminance" maskUnits="userSpaceOnUse" x="-27" y="-179" width="1680" height="1570">
<path d="M-27 -178.422L1652.13 1390.82H1597.94L-27 -127.78V-178.422Z" fill="white"/>
</mask>
<g mask="url(#mask4_4913_287)">
<path d="M1652.13 -178.422H-27V1390.82H1652.13V-178.422Z" fill="#161720"/>
</g>
<mask id="mask5_4913_287" style="mask-type:luminance" maskUnits="userSpaceOnUse" x="173" y="-179" width="1681" height="1570">
<path d="M173.887 -178.421L1853.02 1390.82H1798.83L173.887 -127.78V-178.421Z" fill="white"/>
</mask>
<g mask="url(#mask5_4913_287)">
<path d="M1853.02 -178.421H173.887V1390.82H1853.02V-178.421Z" fill="#161720"/>
</g>
<mask id="mask6_4913_287" style="mask-type:luminance" maskUnits="userSpaceOnUse" x="1889" y="102" width="1205" height="1289">
<path d="M1889.68 1390.82L3094 102.115V161.098L1944.81 1390.82H1889.68Z" fill="white"/>
</mask>
<g mask="url(#mask6_4913_287)">
<path d="M3094 102.115H1889.68V1390.82H3094V102.115Z" fill="#161720"/>
</g>
<mask id="mask7_4913_287" style="mask-type:luminance" maskUnits="userSpaceOnUse" x="1685" y="-117" width="1409" height="1508">
<path d="M1685.33 1390.82L3094 -116.564V-57.5814L1740.46 1390.82H1685.33Z" fill="white"/>
</mask>
<g mask="url(#mask7_4913_287)">
<path d="M3094 -116.564H1685.33V1390.82H3094V-116.564Z" fill="#161720"/>
</g>
<mask id="mask8_4913_287" style="mask-type:luminance" maskUnits="userSpaceOnUse" x="1414" y="-816" width="1680" height="1570">
<path d="M3094 753.244L1414.87 -816H1469.05L3094 702.598V753.244Z" fill="white"/>
</mask>
<g mask="url(#mask8_4913_287)">
<path d="M3094 -816H1414.87V753.244H3094V-816Z" fill="#161720"/>
</g>
<mask id="mask9_4913_287" style="mask-type:luminance" maskUnits="userSpaceOnUse" x="1520" y="-816" width="1574" height="949">
<path d="M3094 98.5019L1627.43 -785.601L1520.05 -816L3094 132.834V98.5019Z" fill="white"/>
</mask>
<g mask="url(#mask9_4913_287)">
<path d="M3094 -816H1520.05V132.834H3094V-816Z" fill="#161720"/>
</g>
<mask id="mask10_4913_287" style="mask-type:luminance" maskUnits="userSpaceOnUse" x="1213" y="-816" width="1681" height="1570">
<path d="M2893.11 753.244L1213.98 -816H1268.17L2893.11 702.598V753.244Z" fill="white"/>
</mask>
<g mask="url(#mask10_4913_287)">
<path d="M2893.12 -816H1213.98V753.244H2893.12V-816Z" fill="#161720"/>
</g>
</g>
<defs>
<clipPath id="clip0_4913_287">
<rect width="2127" height="375" fill="white" transform="translate(-27)"/>
</clipPath>
</defs>
</svg>
