<svg width="24" height="24" viewBox="0 0 24 24" fill="none" xmlns="http://www.w3.org/2000/svg">
<path fill-rule="evenodd" clip-rule="evenodd" d="M17.345 1.32C16.481 1.25 15.405 1.25 14.034 1.25H9.966C8.595 1.25 7.519 1.25 6.655 1.32C5.775 1.393 5.048 1.541 4.39 1.877C3.30799 2.42829 2.42829 3.30799 1.877 4.39C1.541 5.048 1.393 5.775 1.321 6.655C1.25 7.519 1.25 8.595 1.25 9.966V14.228C1.25 14.8218 1.36696 15.4099 1.59422 15.9585C1.82147 16.5071 2.15456 17.0056 2.57446 17.4255C3.4225 18.2736 4.57269 18.75 5.772 18.75H6.373C6.622 18.75 6.792 19.001 6.7 19.232C6.013 20.948 7.99 22.5 9.494 21.426L12.105 19.561L12.155 19.526C12.8636 19.0266 13.7081 18.7558 14.575 18.75H15.331C16.88 18.75 17.824 18.75 18.618 18.518C19.5428 18.2469 20.3847 17.7476 21.0661 17.0661C21.7476 16.3847 22.2469 15.5428 22.518 14.618C22.75 13.824 22.75 12.88 22.75 11.331V9.966C22.75 8.595 22.75 7.519 22.68 6.655C22.607 5.775 22.459 5.048 22.123 4.39C21.5717 3.30799 20.692 2.42829 19.61 1.877C18.952 1.541 18.225 1.392 17.345 1.32ZM5.071 3.214C5.482 3.004 5.99 2.881 6.777 2.817C7.573 2.752 8.587 2.751 10 2.751H14C15.413 2.751 16.427 2.751 17.223 2.817C18.01 2.881 18.518 3.005 18.93 3.214C19.7297 3.62169 20.3797 4.27211 20.787 5.072C20.997 5.483 21.12 5.991 21.184 6.778C21.249 7.574 21.25 8.588 21.25 10.001V11.185C21.25 12.927 21.242 13.637 21.078 14.197C20.8776 14.8804 20.5086 15.5024 20.005 16.006C19.5014 16.5096 18.8794 16.8786 18.196 17.079C17.636 17.243 16.926 17.251 15.184 17.251H14.565C13.3918 17.2587 12.249 17.6251 11.29 18.301L8.623 20.206C8.337 20.41 7.962 20.116 8.093 19.79C8.2055 19.509 8.24738 19.2047 8.21497 18.9038C8.18256 18.6028 8.07684 18.3144 7.90708 18.0639C7.73732 17.8133 7.5087 17.6081 7.24125 17.4664C6.9738 17.3247 6.67568 17.2507 6.373 17.251H5.772C4.97052 17.251 4.20186 16.9326 3.63512 16.3659C3.06839 15.7991 2.75 15.0305 2.75 14.229V10C2.75 8.587 2.75 7.573 2.816 6.777C2.88 5.99 3.004 5.482 3.213 5.071C3.62052 4.27095 4.27095 3.62152 5.071 3.214Z" fill="black"/>
<path d="M9 10C9 10.2652 8.89464 10.5196 8.70711 10.7071C8.51957 10.8946 8.26522 11 8 11C7.73478 11 7.48043 10.8946 7.29289 10.7071C7.10536 10.5196 7 10.2652 7 10C7 9.73478 7.10536 9.48043 7.29289 9.29289C7.48043 9.10536 7.73478 9 8 9C8.26522 9 8.51957 9.10536 8.70711 9.29289C8.89464 9.48043 9 9.73478 9 10ZM13 10C13 10.2652 12.8946 10.5196 12.7071 10.7071C12.5196 10.8946 12.2652 11 12 11C11.7348 11 11.4804 10.8946 11.2929 10.7071C11.1054 10.5196 11 10.2652 11 10C11 9.73478 11.1054 9.48043 11.2929 9.29289C11.4804 9.10536 11.7348 9 12 9C12.2652 9 12.5196 9.10536 12.7071 9.29289C12.8946 9.48043 13 9.73478 13 10ZM17 10C17 10.2652 16.8946 10.5196 16.7071 10.7071C16.5196 10.8946 16.2652 11 16 11C15.7348 11 15.4804 10.8946 15.2929 10.7071C15.1054 10.5196 15 10.2652 15 10C15 9.73478 15.1054 9.48043 15.2929 9.29289C15.4804 9.10536 15.7348 9 16 9C16.2652 9 16.5196 9.10536 16.7071 9.29289C16.8946 9.48043 17 9.73478 17 10Z" fill="black"/>
</svg>
