<svg width="50" height="50" viewBox="0 0 50 50" fill="none" xmlns="http://www.w3.org/2000/svg">
<mask id="mask0_4922_5328" style="mask-type:luminance" maskUnits="userSpaceOnUse" x="0" y="0" width="50" height="50">
<path d="M49.4999 49.4999V0.500023H0.5V49.4999H49.4999Z" fill="white" stroke="white"/>
</mask>
<g mask="url(#mask0_4922_5328)">
<path d="M48.7018 0.732384H23.7101C23.5601 0.732384 23.4162 0.791976 23.3101 0.898051C23.204 1.00413 23.1445 1.14799 23.1445 1.29801V3.7148C23.1445 3.86482 23.204 4.0087 23.3101 4.11479C23.4162 4.22088 23.5601 4.28049 23.7101 4.28052H49.2675V1.29801C49.2675 1.14799 49.2079 1.00412 49.1018 0.898045C48.9957 0.791973 48.8518 0.732384 48.7018 0.732384Z" stroke="black" stroke-miterlimit="10" stroke-linecap="round" stroke-linejoin="round"/>
<path d="M23.7101 33.7195C23.5601 33.7195 23.4162 33.7791 23.3101 33.8852C23.204 33.9913 23.1445 34.1352 23.1445 34.2852V36.702C23.1445 36.852 23.204 36.9959 23.3101 37.102C23.4162 37.2081 23.5601 37.2677 23.7101 37.2677H49.2674V33.7195H23.7101Z" stroke="black" stroke-miterlimit="10" stroke-linecap="round" stroke-linejoin="round"/>
<path d="M36.0497 37.2677C32.7497 37.2677 30.0497 39.9676 30.0497 43.2676C30.0497 46.5676 32.7497 49.2676 36.0497 49.2676C39.3497 49.2676 42.0496 46.5676 42.0496 43.2676C42.0496 39.9676 39.3497 37.2677 36.0497 37.2677Z" stroke="black" stroke-miterlimit="10" stroke-linecap="round" stroke-linejoin="round"/>
<path d="M36.0497 40.6878C34.6308 40.6878 33.4699 41.8488 33.4699 43.2676C33.4699 44.6865 34.6308 45.8473 36.0497 45.8473C37.4685 45.8473 38.6295 44.6865 38.6295 43.2676C38.6295 41.8488 37.4685 40.6878 36.0497 40.6878Z" stroke="black" stroke-miterlimit="10" stroke-linecap="round" stroke-linejoin="round"/>
<path d="M30.0497 43.2675C30.0497 39.9676 32.7496 37.2676 36.0496 37.2676H24.9879V42.2886C24.9879 42.8293 25.4262 43.2676 25.9668 43.2676H30.0497V43.2675Z" stroke="black" stroke-miterlimit="10" stroke-linecap="round" stroke-linejoin="round"/>
<path d="M36.0497 37.2676C39.3497 37.2676 42.0497 39.9676 42.0497 43.2675L48.2885 43.2676C48.8292 43.2676 49.2675 42.8293 49.2675 42.2886V37.2676H36.0497Z" stroke="black" stroke-miterlimit="10" stroke-linecap="round" stroke-linejoin="round"/>
<path d="M27.7934 7.06094V30.9391" stroke="black" stroke-miterlimit="10" stroke-linecap="round" stroke-linejoin="round"/>
<path d="M31.3448 7.06094V30.9391" stroke="black" stroke-miterlimit="10" stroke-linecap="round" stroke-linejoin="round"/>
<path d="M34.8963 7.06094V30.9391" stroke="black" stroke-miterlimit="10" stroke-linecap="round" stroke-linejoin="round"/>
<path d="M38.4476 7.06094V30.9391" stroke="black" stroke-miterlimit="10" stroke-linecap="round" stroke-linejoin="round"/>
<path d="M41.9991 7.06094V30.9391" stroke="black" stroke-miterlimit="10" stroke-linecap="round" stroke-linejoin="round"/>
<path d="M45.5505 7.06094V30.9391" stroke="black" stroke-miterlimit="10" stroke-linecap="round" stroke-linejoin="round"/>
<path d="M6.96217 32.4645L9.16842 35.9477C9.223 36.0338 9.30957 36.0948 9.40908 36.1171C9.50859 36.1395 9.6129 36.1214 9.69908 36.0668L11.5204 34.9131C11.6065 34.8585 11.6674 34.772 11.6898 34.6725C11.7121 34.573 11.694 34.4687 11.6395 34.3826L9.43316 30.8994L6.96217 32.4645Z" stroke="black" stroke-miterlimit="10" stroke-linecap="round" stroke-linejoin="round"/>
<path d="M8.61784 42.6948C8.69975 42.824 8.82618 42.9186 8.97318 42.9608C9.12018 43.003 9.27755 42.9899 9.4155 42.9238L17.8518 37.5778C18.0853 37.3791 18.1436 37.0344 17.9748 36.768L13.2106 29.2464C13.1219 29.1064 12.9812 29.0074 12.8195 28.9711C12.6577 28.9348 12.4882 28.9643 12.3482 29.053L4.04715 34.3109C3.97781 34.3548 3.91779 34.412 3.87053 34.4791C3.82328 34.5462 3.7897 34.622 3.77173 34.702C3.75375 34.7821 3.75173 34.865 3.76578 34.9459C3.77983 35.0267 3.80967 35.104 3.8536 35.1734L8.61784 42.6948Z" stroke="black" stroke-miterlimit="10" stroke-linecap="round" stroke-linejoin="round"/>
<path d="M0.732315 38.6093L2.41463 37.5437" stroke="black" stroke-miterlimit="10" stroke-linecap="round" stroke-linejoin="round"/>
<path d="M0.732315 44.8794L5.15125 42.0804" stroke="black" stroke-miterlimit="10" stroke-linecap="round" stroke-linejoin="round"/>
<path d="M0.732315 41.701L3.71453 39.8121" stroke="black" stroke-miterlimit="10" stroke-linecap="round" stroke-linejoin="round"/>
<path d="M16.6528 16.4877L9.66373 15.9933C9.23913 15.9634 8.95846 16.4261 9.18131 16.7887L10.1895 18.4296C10.2153 18.4715 10.2326 18.5182 10.2403 18.5668C10.2481 18.6154 10.2462 18.6651 10.2347 18.713C10.2233 18.7609 10.2025 18.8061 10.1736 18.8459C10.1447 18.8858 10.1082 18.9196 10.0663 18.9454L2.54286 23.5679C2.41953 23.6438 2.33136 23.7655 2.29774 23.9063C2.26412 24.0471 2.28779 24.1955 2.36356 24.3189L3.65467 26.4203C3.73045 26.5436 3.85214 26.6318 3.99296 26.6655C4.13377 26.6991 4.28218 26.6754 4.40555 26.5997L11.9291 21.977C12.0138 21.925 12.1157 21.9087 12.2125 21.9318C12.3092 21.9549 12.3928 22.0154 12.4449 22.1002L13.4531 23.741C13.6758 24.1037 14.2155 24.0624 14.3804 23.6701L17.0978 17.212C17.2367 16.8818 17.01 16.5129 16.6528 16.4877Z" stroke="black" stroke-miterlimit="10" stroke-linecap="round" stroke-linejoin="round"/>
<path d="M16.0387 42.1704L23.7754 37.2676H23.7103C23.6361 37.2676 23.5625 37.253 23.4939 37.2246C23.4252 37.1962 23.3629 37.1545 23.3103 37.102C23.2578 37.0495 23.2161 36.9871 23.1877 36.9185C23.1593 36.8498 23.1446 36.7763 23.1446 36.702V34.2852C23.1446 34.2635 23.1461 34.2422 23.1485 34.2212L0.985799 48.266C0.526523 48.557 0.732675 49.2676 1.27642 49.2676H4.51714C4.72758 49.2676 4.93383 49.2078 5.11167 49.095L13.1515 44.0001" stroke="black" stroke-miterlimit="10" stroke-linecap="round" stroke-linejoin="round"/>
<path d="M49.2674 17.942V4.28053H24.0763V33.7196H49.2674V21.36" stroke="black" stroke-miterlimit="10" stroke-linecap="round" stroke-linejoin="round"/>
</g>
</svg>
