<svg width="56" height="48" viewBox="0 0 56 48" fill="none" xmlns="http://www.w3.org/2000/svg">
<path d="M54.2052 34.8772H52.6006V14.329C52.6006 14.1182 52.5168 13.916 52.3678 13.767C52.2187 13.6179 52.0166 13.5342 51.8058 13.5342C51.595 13.5342 51.3928 13.6179 51.2438 13.767C51.0947 13.916 51.011 14.1182 51.011 14.329V21.0928H38.4739V8.89798H41.6775V12.5975C41.6775 13.2081 42.1743 13.7047 42.7848 13.7047H46.7001C47.3106 13.7047 47.8074 13.208 47.8074 12.5975V8.89798H51.011V10.6167C51.011 10.8275 51.0947 11.0297 51.2438 11.1787C51.3928 11.3278 51.595 11.4115 51.8058 11.4115C52.0166 11.4115 52.2187 11.3278 52.3678 11.1787C52.5168 11.0297 52.6006 10.8275 52.6006 10.6167V8.56038C52.6006 7.87009 52.039 7.30846 51.3487 7.30846H38.4739V1.96278C38.4739 1.75198 38.3902 1.54982 38.2411 1.40076C38.092 1.25171 37.8899 1.16797 37.6791 1.16797C37.4683 1.16797 37.2661 1.25171 37.1171 1.40076C36.968 1.54982 36.8843 1.75198 36.8843 1.96278V29.7178H33.84C33.7172 29.7181 33.5945 29.7266 33.4728 29.743L27.2699 8.66648C26.6695 6.62608 24.7646 5.20109 22.6379 5.20109H7.15252C5.6845 5.20109 4.49017 6.39542 4.49017 7.86344V17.6744C4.49017 17.8852 4.57391 18.0873 4.72297 18.2364C4.87202 18.3854 5.07419 18.4692 5.28498 18.4692C5.49578 18.4692 5.69795 18.3854 5.847 18.2364C5.99606 18.0873 6.0798 17.8852 6.0798 17.6744V7.86344C6.0798 7.27187 6.56105 6.79061 7.15263 6.79061H22.6379C24.0645 6.79061 25.3423 7.74648 25.7451 9.11514L32.0116 30.4085C32.0065 30.413 32.002 30.4179 31.9971 30.4225C31.9554 30.4598 31.9149 30.4986 31.8753 30.5386C31.8628 30.5513 31.8502 30.564 31.8379 30.5771C31.7933 30.624 31.7496 30.6721 31.7081 30.7224L31.1452 31.4042L24.6779 9.42944C24.4134 8.53074 23.5745 7.90299 22.6378 7.90299H7.98688C7.77609 7.90299 7.57392 7.98673 7.42487 8.13579C7.27581 8.28484 7.19207 8.48701 7.19207 8.6978V23.3394H6.0798V21.3724C6.0798 21.1616 5.99606 20.9594 5.847 20.8104C5.69795 20.6613 5.49578 20.5776 5.28498 20.5776C5.07419 20.5776 4.87202 20.6613 4.72297 20.8104C4.57391 20.9594 4.49017 21.1616 4.49017 21.3724V23.3394H3.96483C2.33007 23.3394 1 24.6695 1 26.3043V39.9588C1 40.9415 1.79945 41.741 2.78211 41.741H3.51659C4.32701 44.6726 7.01646 46.8321 10.2024 46.8321C13.3883 46.8321 16.0776 44.6726 16.888 41.741H29.3803C29.605 44.5857 31.9901 46.8321 34.8914 46.8321C37.9407 46.8321 40.4217 44.3513 40.4217 41.3019C40.4217 39.6182 39.6644 38.1089 38.4738 37.0938V36.4668H54.2052C54.416 36.4668 54.6181 36.383 54.7672 36.234C54.9163 36.0849 55 35.8828 55 35.672C55 35.4612 54.9163 35.259 54.7672 35.1099C54.6181 34.9609 54.416 34.8772 54.2052 34.8772ZM43.267 8.89798H46.2177V12.1152H43.267V8.89798ZM8.78169 9.49262H22.6379C22.8707 9.49262 23.0874 9.65483 23.1532 9.87821L28.7826 29.0064L28.0908 28.0777C27.6374 27.4688 26.777 27.3056 26.132 27.7061L25.734 27.9533L24.7163 26.2019L25.7757 25.544C25.9521 25.4316 26.0771 25.2542 26.1236 25.0502C26.17 24.8462 26.1342 24.6321 26.0238 24.4544C25.9134 24.2766 25.7374 24.1496 25.534 24.1008C25.3306 24.052 25.1161 24.0854 24.9371 24.1937L21.5071 26.324C21.4176 26.3786 21.3397 26.4504 21.2781 26.5353C21.2164 26.6202 21.1722 26.7164 21.1479 26.8185C21.1236 26.9205 21.1198 27.0264 21.1366 27.1299C21.1535 27.2335 21.1906 27.3327 21.246 27.4218C21.3013 27.5109 21.3738 27.5882 21.4591 27.6491C21.5445 27.7101 21.6411 27.7536 21.7433 27.7771C21.8456 27.8005 21.9514 27.8035 22.0548 27.7859C22.1583 27.7683 22.2571 27.7303 22.3458 27.6743L23.3655 27.0409L24.3832 28.7923L23.9476 29.0629C23.2919 29.4701 23.0617 30.2958 23.4123 30.9834L24.4004 32.922H20.9673C20.0378 32.922 19.2816 32.1658 19.2816 31.2363V30.0638C19.2816 26.3559 16.2651 23.3393 12.5572 23.3393H8.78169V9.49262ZM29.6661 32.8537C29.6331 32.8645 29.5996 32.8739 29.5659 32.8822L29.5618 32.8834C29.5417 32.8882 29.5213 32.8916 29.501 32.8956C29.4145 32.9126 29.3267 32.9215 29.2385 32.9222H26.1841L24.8768 30.357L26.8797 29.1129L29.6661 32.8537ZM15.5435 40.1412C15.5413 40.1871 15.5378 40.2332 15.5344 40.2793C15.5322 40.3109 15.53 40.3424 15.5273 40.3739C15.5204 40.4493 15.5119 40.5247 15.5018 40.5998C15.4929 40.667 15.4829 40.734 15.4714 40.8012C15.0395 43.3195 12.8419 45.2424 10.2024 45.2424C7.56343 45.2424 5.3663 43.3205 4.93356 40.8031C4.92186 40.7346 4.91145 40.6659 4.90234 40.5969L4.8976 40.5596C4.88973 40.4971 4.88294 40.4344 4.87724 40.3717C4.87471 40.343 4.87271 40.3141 4.8706 40.2852C4.86672 40.2367 4.86352 40.1881 4.861 40.1395C4.85707 40.058 4.855 39.9765 4.85478 39.8949C4.85478 36.9463 7.25366 34.5475 10.2023 34.5475C10.3865 34.5475 10.5687 34.5568 10.7483 34.5751C13.4414 34.8494 15.5497 37.1305 15.5497 39.8948C15.5498 39.9776 15.5473 40.0596 15.5435 40.1412ZM17.1345 40.1508C17.1378 40.0656 17.1394 39.9804 17.1395 39.8951C17.1395 36.5482 14.7568 33.7473 11.5987 33.0994C11.1392 33.0052 10.6714 32.9579 10.2024 32.9581C6.37732 32.9581 3.26536 36.07 3.26536 39.8951C3.26536 39.9803 3.26705 40.0658 3.27032 40.1514H2.78221C2.73115 40.1514 2.6822 40.1311 2.64609 40.095C2.60999 40.0589 2.58968 40.0099 2.58963 39.9588V26.3043C2.58963 25.546 3.20662 24.929 3.96494 24.929H12.5569C15.3884 24.929 17.6918 27.2326 17.6918 30.0639V31.2364C17.6918 33.0424 19.1611 34.5116 20.967 34.5116H29.2385C29.2905 34.5116 29.3424 34.51 29.3942 34.5073C29.4272 34.5056 29.46 34.5024 29.4929 34.4997C29.5097 34.4982 29.5266 34.4973 29.5433 34.4955C29.5897 34.4907 29.6358 34.4846 29.6818 34.4777L29.6862 34.4771C30.3266 34.3806 30.9176 34.0769 31.3689 33.6125C31.37 33.6112 31.3714 33.6103 31.3726 33.609L31.3751 33.6063L31.3759 33.6054L31.3771 33.6041L31.3811 33.5998C31.4036 33.5765 31.4258 33.553 31.4476 33.5289C31.4784 33.4952 31.5075 33.4621 31.534 33.4298L32.9338 31.7342C32.9604 31.702 32.9887 31.6716 33.0181 31.6427C33.0312 31.63 33.0453 31.6184 33.059 31.6063C33.0754 31.5917 33.0914 31.5769 33.1085 31.5633C33.1293 31.5469 33.1511 31.5316 33.1731 31.5165C33.1836 31.5092 33.1938 31.5016 33.2045 31.4948C33.2303 31.4782 33.2571 31.4629 33.2844 31.4483C33.4551 31.3559 33.646 31.3074 33.84 31.307H36.8843V36.141C36.8536 36.1291 36.8224 36.1188 36.7915 36.1074L36.7905 36.1071C36.7084 36.0771 36.6256 36.049 36.5421 36.0229L36.5248 36.0175C36.447 35.9934 36.3686 35.9711 36.2897 35.9506L36.2556 35.9418C36.1823 35.9232 36.1086 35.9062 36.0346 35.8906L35.984 35.8799C35.9149 35.8662 35.8456 35.8538 35.7761 35.8427C35.7545 35.8392 35.733 35.8354 35.7112 35.8322C35.6452 35.8225 35.579 35.8141 35.5126 35.8069C35.4878 35.8041 35.4631 35.8007 35.4382 35.7983C35.3714 35.792 35.3046 35.7869 35.2377 35.783C35.2133 35.7815 35.1892 35.7792 35.1648 35.7781C35.0738 35.7735 34.9826 35.7712 34.8914 35.7711C34.8029 35.7711 34.7151 35.7736 34.6275 35.7778C34.5914 35.7794 34.5557 35.7825 34.5198 35.7849C34.4704 35.7883 34.421 35.7916 34.372 35.7962C34.3241 35.8007 34.2766 35.8064 34.229 35.8121C34.1949 35.8162 34.1609 35.8204 34.127 35.8251C34.0693 35.8331 34.012 35.8422 33.955 35.852C33.9359 35.8553 33.9168 35.8587 33.8977 35.8622C31.6963 36.2635 29.9456 37.9713 29.4825 40.1508H17.1345ZM38.8323 41.3019C38.8323 43.4748 37.0645 45.2425 34.8916 45.2425C32.7188 45.2425 30.951 43.4748 30.951 41.3019C30.951 41.2034 30.9559 41.106 30.963 41.0093L30.9636 41.0051C31.1012 39.1544 32.5297 37.667 34.3215 37.4029C34.3307 37.4015 34.34 37.4007 34.3493 37.3993C34.4014 37.3921 34.4536 37.3854 34.5063 37.3801C34.5319 37.3776 34.5578 37.3762 34.5837 37.3742C34.6212 37.3713 34.6587 37.3679 34.6964 37.366C34.7612 37.3628 34.8263 37.361 34.8918 37.361C34.9538 37.361 35.0154 37.3628 35.0766 37.3657C35.0935 37.3664 35.1104 37.3677 35.1273 37.3686C35.1743 37.3714 35.2211 37.375 35.2677 37.3794C35.283 37.3809 35.2983 37.3822 35.3135 37.3839C35.3725 37.3903 35.4312 37.3974 35.4893 37.4064L35.4914 37.4067C35.6216 37.4266 35.7496 37.453 35.8752 37.4854H35.8755C37.5738 37.9236 38.8323 39.4685 38.8323 41.3019ZM43.267 22.6823H46.2177V25.8995H43.267V22.6823ZM38.4739 34.8772V22.6823H41.6775V26.3819C41.6775 26.9924 42.1743 27.4891 42.7848 27.4891H46.7001C47.3106 27.4891 47.8074 26.9923 47.8074 26.3819V22.6823H51.011V34.8772H38.4739Z" fill="black" stroke="#F2F2F5" stroke-width="0.5"/>
<path d="M10.2024 36.3085C8.22461 36.3085 6.61568 37.9174 6.61568 39.8951C6.61568 41.8729 8.22461 43.4819 10.2024 43.4819C12.1801 43.4819 13.7891 41.8729 13.7891 39.8951C13.7891 37.9174 12.1801 36.3085 10.2024 36.3085ZM10.2024 41.8923C9.10116 41.8923 8.2052 40.9963 8.2052 39.8951C8.2052 38.794 9.10116 37.8981 10.2024 37.8981C11.3037 37.8981 12.1995 38.794 12.1995 39.8951C12.1995 40.9963 11.3037 41.8923 10.2024 41.8923ZM34.8916 38.6476C33.4281 38.6476 32.2372 39.8383 32.2372 41.302C32.2372 42.7656 33.4281 43.9563 34.8916 43.9563C36.3552 43.9563 37.546 42.7656 37.546 41.302C37.546 39.8383 36.3552 38.6476 34.8916 38.6476ZM34.8916 42.3667C34.3045 42.3667 33.8267 41.889 33.8267 41.302C33.8267 40.7149 34.3044 40.2372 34.8916 40.2372C35.4787 40.2372 35.9565 40.7149 35.9565 41.302C35.9565 41.889 35.4788 42.3667 34.8916 42.3667Z" fill="black" stroke="#F2F2F5" stroke-width="0.5"/>
</svg>
