<svg width="55" height="55" viewBox="0 0 55 55" fill="none" xmlns="http://www.w3.org/2000/svg">
<g clip-path="url(#clip0_4913_282)">
<path d="M52.7282 27.4999C52.7282 13.589 41.4109 2.27165 27.5001 2.27165C13.5893 2.27165 2.27194 13.589 2.27194 27.4999C2.27194 35.2377 5.77475 42.1718 11.2766 46.8033L7.85175 52.6279C7.49103 53.2416 7.69599 54.0316 8.30969 54.3925C8.4556 54.4784 8.617 54.5346 8.78467 54.5581C8.95233 54.5816 9.12297 54.5717 9.28684 54.5292C9.45071 54.4867 9.60459 54.4123 9.73969 54.3102C9.87479 54.2082 9.98846 54.0806 10.0742 53.9346L13.3449 48.3722C17.3837 51.12 22.2575 52.728 27.5 52.728C32.7425 52.728 37.6163 51.12 41.6552 48.3722L44.9258 53.9346C45.0116 54.0806 45.1252 54.2082 45.2603 54.3102C45.3954 54.4123 45.5493 54.4867 45.7132 54.5292C45.8771 54.5717 46.0477 54.5816 46.2154 54.5581C46.383 54.5346 46.5444 54.4784 46.6903 54.3925C47.304 54.0317 47.509 53.2416 47.1483 52.6279L43.7235 46.8032C49.2254 42.1717 52.7282 35.2377 52.7282 27.4999ZM4.85006 27.4999C4.85006 15.0106 15.0108 4.84977 27.5001 4.84977C39.9894 4.84977 50.1501 15.0106 50.1501 27.4999C50.1501 39.9892 39.9894 50.1499 27.5001 50.1499C15.0108 50.1499 4.85006 39.9892 4.85006 27.4999ZM54.001 10.8943C53.7963 11.3923 53.3154 11.6933 52.8083 11.6933C52.645 11.6933 52.4791 11.6621 52.3185 11.5961C51.6601 11.3253 51.3458 10.572 51.6167 9.91364C52.3871 8.04031 51.9596 5.90444 50.5276 4.4724C49.0956 3.04025 46.9597 2.61282 45.0862 3.38314C44.4278 3.65395 43.6745 3.33974 43.4038 2.68135C43.133 2.02297 43.4472 1.26962 44.1056 0.998913C46.9443 -0.16887 50.1806 0.479421 52.3506 2.64934C54.5208 4.81937 55.1685 8.05567 54.001 10.8943ZM2.68153 11.5961C2.52618 11.6602 2.35976 11.6932 2.19169 11.6933C1.68455 11.6933 1.20384 11.3922 0.998986 10.8943C-0.168368 8.05567 0.479386 4.81926 2.64952 2.64934C4.81955 0.479206 8.05617 -0.168225 10.8945 0.998806C11.5529 1.26962 11.8672 2.02286 11.5964 2.68135C11.3256 3.33974 10.5727 3.65427 9.91382 3.38325C8.04049 2.61282 5.90462 3.04025 4.47258 4.4724C3.04043 5.90444 2.61289 8.04031 3.38332 9.91364C3.65424 10.572 3.33992 11.3254 2.68153 11.5961ZM39.7537 27.4999C39.7537 28.2119 39.1765 28.789 38.4646 28.789H27.5001C26.7882 28.789 26.211 28.2119 26.211 27.4999V12.8195C26.211 12.1076 26.7882 11.5304 27.5001 11.5304C28.212 11.5304 28.7891 12.1076 28.7891 12.8195V26.2108H38.4646C39.1765 26.2108 39.7537 26.7879 39.7537 27.4999Z" fill="#C59E15"/>
</g>
<defs>
<clipPath id="clip0_4913_282">
<rect width="55" height="55" fill="white"/>
</clipPath>
</defs>
</svg>
