<svg width="238" height="65" viewBox="0 0 238 65" fill="none" xmlns="http://www.w3.org/2000/svg">
<path d="M73.7278 48.6658V29.9714H64.9166V48.6658H60.2598V25.8171H78.3846V48.6658H73.7278Z" fill="black"/>
<path d="M93.0506 33.2212C93.0506 31.3115 91.945 29.6699 89.1308 29.6699H86.7186V36.7389H89.0303C92.2465 36.7389 93.0506 34.9968 93.0506 33.2212ZM81.9278 48.6658V25.8171H89.2313C94.1227 25.8171 97.8749 28.1288 97.8749 33.1542C97.8749 37.744 95.0607 40.5917 89.0638 40.5917H86.7186V48.6658H81.9278Z" fill="black"/>
<path d="M103.879 37.2415C103.879 41.7308 106.995 45.1146 111.082 45.1146C115.203 45.1146 118.319 41.7308 118.319 37.2415C118.319 32.8527 115.471 29.3684 111.116 29.3684C107.028 29.3684 103.879 32.7521 103.879 37.2415ZM98.9878 37.2415C98.9878 30.742 104.08 25.0801 111.149 25.0801C118.687 25.0801 123.21 30.876 123.21 37.2415C123.21 43.9085 118.051 49.4029 111.116 49.4029C102.74 49.4029 98.9878 42.8699 98.9878 37.2415Z" fill="black"/>
<path d="M134.57 42.7359V31.5461C131.353 31.5461 129.142 33.7572 129.142 37.141C129.142 40.5917 131.688 42.7359 134.57 42.7359ZM139.36 31.5461V42.7359C142.242 42.7359 144.754 40.5917 144.754 37.141C144.754 33.7572 142.543 31.5461 139.36 31.5461ZM139.36 49.0008H134.57V46.5217C128.305 46.3206 124.284 42.5349 124.284 37.1075C124.284 31.6131 128.439 27.9613 134.57 27.7938V25.5156H139.36V27.7938C145.558 28.0283 149.646 31.5796 149.646 37.1075C149.646 42.5349 145.592 46.3206 139.36 46.5217V49.0008Z" fill="black"/>
<path d="M162.793 41.6638C162.793 39.6537 161.419 38.4141 158.974 38.4141H156.696V45.0476H159.175C161.52 45.0476 162.793 43.7745 162.793 41.6638ZM151.905 25.8171H165.373V29.9714H156.696V34.7958H159.644C164.636 34.7958 167.651 37.409 167.651 41.6638C167.651 46.0191 164.301 48.6658 159.577 48.6658H151.905V25.8171Z" fill="black"/>
<path d="M170.039 25.8171H174.696V37.543C174.696 38.5481 174.663 40.5247 174.596 41.6638H174.696C175.266 40.4577 176.137 38.9501 178.147 35.6334L184.144 25.8171H188.533V48.6658H183.909V37.3085C183.909 36.2699 183.976 34.0587 184.01 32.9867H183.909C183.239 34.2933 182.469 35.5328 179.922 39.7207L174.428 48.6658H170.039V25.8171Z" fill="black"/>
<path d="M199.197 29.9714L198.192 42.5349C197.823 47.0577 196.282 48.9003 192.429 48.9003C191.592 48.9003 190.821 48.7663 190.319 48.5988V44.612C190.553 44.7125 191.123 44.813 191.625 44.813C192.798 44.813 193.434 44.3775 193.568 42.5349L194.875 25.8171H211.157V48.6658H206.534V29.9714H199.197Z" fill="black"/>
<path d="M213.141 50.3409V44.5115H214.012C215.654 44.5115 217.262 43.3389 217.564 38.8831L218.535 25.8171H234.784V44.5115H238V50.3409H233.209V48.6658H217.932V50.3409H213.141ZM229.993 44.5115V29.9714H222.89L222.254 38.8831C222.053 41.4963 221.617 43.2719 220.478 44.5115H229.993Z" fill="black"/>
<path opacity="0.9" d="M13.9606 61.9688V10.0686L21.0499 17.2518L38.5825 35.0215V58.8729C38.5825 58.8787 38.5825 58.8787 38.5825 58.8845C38.5825 58.8903 38.5825 58.8903 38.5825 58.8961V61.9688H13.9606Z" fill="#DCC883"/>
<path opacity="0.9" fill-rule="evenodd" clip-rule="evenodd" d="M24.1106 11.3147V61.4571H0.511694V35.2311L17.8969 17.6109L24.1106 11.3147ZM24.6221 61.9686H0.000236511V35.0213L24.6221 10.0684V61.9686Z" fill="#C59E15"/>
</svg>
