<svg width="76" height="75" viewBox="0 0 76 75" fill="none" xmlns="http://www.w3.org/2000/svg">
<g clip-path="url(#clip0_902_1275)">
<path d="M75.416 0H0.708008V74.708H75.416V0Z" fill="#39A82A"/>
<path d="M36.5235 41.1179C36.5235 40.6603 36.8959 40.289 37.3538 40.289C37.8122 40.289 38.1835 40.6603 38.1835 41.1179C38.1835 41.5773 37.8122 41.9497 37.3538 41.9497C36.8959 41.9494 36.5235 41.5773 36.5235 41.1179ZM50.5241 39.7705H48.3901V37.0765H50.5615C51.235 37.0765 51.8337 37.6757 51.8337 38.3865C51.8337 39.2094 51.1976 39.7705 50.5241 39.7705ZM50.8977 45.0468H48.3901V42.2403H50.8977C51.7198 42.2403 52.3582 42.8388 52.3582 43.6251C52.3582 44.4849 51.759 45.0468 50.8977 45.0468ZM51.4221 47.703C54.0791 47.703 55.6887 46.17 55.6887 43.7741C55.6887 42.3517 54.9782 41.1929 53.6678 40.6311C54.6783 39.9576 54.9039 38.9849 54.9039 37.9741C54.9039 35.6545 53.1434 34.4935 50.6739 34.4935H43.1527V37.0765H45.3241V45.0468H43.1527V47.7026L51.4221 47.703ZM34.5452 34.4935H29.5312V39.7705H26.4995V34.4935H21.4855V37.0765H23.6554V45.0468H21.4855V47.7026H26.4995V42.2403H29.5312V47.7026H34.5452V45.0468H32.4496V37.0765H34.5452V34.4935ZM56.8474 40.556C57.8201 41.2665 58.5321 42.5026 58.5321 43.925C58.5321 46.0942 57.8571 47.4038 56.6614 48.6017C55.4634 49.8 53.4803 50.5479 51.1233 50.5479H40.3825V47.4538C42.0642 46.83 43.2621 45.2115 43.2621 43.3143C43.2621 41.4163 42.0642 39.7966 40.3825 39.1728V29.3308H43.1519V31.7999H45.8836V27.0851H31.8139V31.7999H34.5456V29.3308H37.3135V39.1702C35.6318 39.794 34.4324 41.4141 34.4324 43.3139C34.4324 45.2119 35.6318 46.8315 37.3135 47.4542V50.5475H18.7168V42.2411H20.924V39.7712H18.7168V31.6512H28.9697V24.3545H48.804V31.6512H50.1879C52.2446 31.6512 54.2274 32.1372 55.5 33.0729C56.8862 34.0833 57.7465 35.5805 57.7465 37.6391C57.7454 38.4975 57.5579 39.7705 56.8474 40.556Z" fill="white"/>
</g>
<defs>
<clipPath id="clip0_902_1275">
<rect width="74.708" height="74.708" fill="white" transform="translate(0.708008)"/>
</clipPath>
</defs>
</svg>
