<svg width="125" height="259" viewBox="0 0 125 259" fill="none" xmlns="http://www.w3.org/2000/svg">
<g clip-path="url(#clip0_902_1426)">
<path d="M55.7417 59.7129L72.9741 62.4608L86.822 60.356L88.2766 71.523L57.0218 70.7142L55.2568 64.7312L55.7417 59.7129Z" fill="#704B8C"/>
<path d="M88.2761 72.0102H88.2664L57.0213 71.2014C56.8079 71.1917 56.6334 71.0552 56.5655 70.8506L54.7909 64.8579C54.7715 64.7994 54.7715 64.7312 54.7715 64.6727L55.2564 59.6544C55.2661 59.518 55.3339 59.401 55.4406 59.3133C55.5473 59.2354 55.6733 59.1964 55.8091 59.2159L72.9736 61.9541L86.7536 59.859C86.8797 59.8395 87.0155 59.8688 87.1221 59.9467C87.2288 60.0247 87.2967 60.1416 87.3064 60.278L88.7513 71.445C88.7707 71.5814 88.7222 71.7276 88.6349 71.8348C88.5477 71.9517 88.4119 72.0102 88.2761 72.0102ZM57.3898 70.2367L87.7234 71.026L86.4045 60.9114L73.0415 62.948C72.993 62.9577 72.9445 62.9577 72.896 62.948L56.1679 60.278L55.7412 64.6825L57.3898 70.2367Z" fill="#263238"/>
<path d="M96.4598 315.102L95.8295 311.497C95.8295 311.497 97.0999 275.209 95.6161 263.964C94.1324 252.719 95.1895 252.934 95.4028 236.592C95.6161 220.251 93.9288 175.271 93.9288 175.271L93.5021 171.666L64.788 171.237L36.0739 171.666L35.6472 175.271C35.6472 175.271 33.9598 220.251 34.1732 236.592C34.3865 252.934 35.4435 252.719 33.9598 263.964C32.4858 275.209 33.7465 311.497 33.7465 311.497L33.1161 315.102C33.1161 315.102 30.7888 316.584 31.0021 317.646C31.2154 318.708 32.0591 323.375 32.0591 323.375L48.3217 323.804C48.3217 323.804 50.6491 319.984 51.0661 317.86C51.4928 315.736 50.6394 314.255 50.4358 312.559C50.2224 310.864 50.2224 307.677 50.2224 306.83C50.2224 305.982 57.3985 253.996 57.3985 253.996L64.788 194.799L72.1774 253.996C72.1774 253.996 79.3535 305.982 79.3535 306.83C79.3535 307.677 79.3535 310.864 79.1402 312.559C78.9268 314.255 78.0832 315.746 78.5099 317.86C78.9365 319.984 81.2542 323.804 81.2542 323.804L97.5168 323.375C97.5168 323.375 98.3605 318.708 98.5739 317.646C98.7775 316.584 96.4598 315.102 96.4598 315.102Z" fill="#263238"/>
<path d="M81.2546 324.291C81.0897 324.291 80.9248 324.203 80.8376 324.057C80.7406 323.901 78.4617 320.14 78.035 317.957C77.7247 316.418 78.035 315.21 78.3356 314.05C78.4714 313.514 78.5975 313.017 78.6653 312.491C78.7623 311.731 78.869 310.133 78.869 306.82C78.8302 305.855 74.156 271.886 71.6929 254.054L64.7786 198.697L57.8643 254.044C55.4012 271.877 50.7367 305.855 50.6882 306.829C50.6882 310.123 50.8046 311.731 50.8919 312.491C50.9598 313.007 51.0858 313.514 51.2216 314.05C51.5222 315.21 51.8228 316.418 51.5222 317.957C51.0858 320.14 48.8166 323.901 48.7197 324.057C48.6324 324.203 48.4675 324.301 48.293 324.291L32.0304 323.862C31.7976 323.853 31.6037 323.687 31.5649 323.463C31.5649 323.463 30.7212 318.805 30.5079 317.743C30.2751 316.554 31.9916 315.258 32.651 314.81L33.2425 311.458C33.1844 309.889 32.0207 274.858 33.4559 263.896C34.4159 256.588 34.2996 254.142 34.0474 248.792C33.9117 245.879 33.7371 242.264 33.6595 236.592C33.4462 220.427 35.1238 175.69 35.1335 175.242L35.5602 171.598C35.5893 171.354 35.793 171.169 36.0354 171.169L64.7495 170.74L93.483 171.169C93.7255 171.169 93.9291 171.354 93.9582 171.598L94.3849 175.203C94.4043 175.69 96.0723 220.427 95.8686 236.592C95.791 242.254 95.6262 245.879 95.4807 248.792C95.2286 254.142 95.1122 256.588 96.0723 263.896C97.5172 274.858 96.3438 309.889 96.2856 311.458L96.8771 314.81C97.5463 315.258 99.2627 316.554 99.0203 317.743C98.8069 318.805 97.9632 323.463 97.9632 323.463C97.9245 323.687 97.7305 323.853 97.4978 323.862L81.2643 324.291H81.2546ZM64.7786 194.302C65.021 194.302 65.2247 194.487 65.2635 194.731L72.6529 253.927C73.3899 259.248 79.8387 305.962 79.8387 306.82C79.8387 309.519 79.7709 311.458 79.6254 312.608C79.5575 313.192 79.412 313.748 79.2763 314.284C78.9951 315.385 78.7235 316.437 78.9854 317.753C79.3248 319.468 81.0218 322.43 81.5261 323.297L97.1099 322.888C97.3135 321.748 97.9245 318.415 98.099 317.538C98.1863 317.11 97.1681 316.116 96.1983 315.502C96.0819 315.424 96.0044 315.307 95.985 315.18L95.3546 311.575C95.3449 311.546 95.3449 311.507 95.3449 311.477C95.3546 311.117 96.5959 275.102 95.1413 264.032C94.1716 256.636 94.2879 254.171 94.5401 248.753C94.6758 245.849 94.8504 242.234 94.9183 236.592C95.1316 220.456 93.4539 175.749 93.4442 175.291L93.0757 172.143L64.7786 171.724L36.5009 172.143L36.1324 175.33C36.1227 175.739 34.445 220.446 34.6584 236.592C34.7359 242.244 34.9008 245.859 35.0366 248.753C35.2887 254.161 35.4148 256.636 34.4353 264.032C32.9807 275.112 34.2123 311.117 34.2317 311.477C34.2317 311.516 34.2317 311.546 34.222 311.575L33.5916 315.18C33.5723 315.317 33.485 315.434 33.3783 315.502C32.4086 316.116 31.4 317.11 31.4776 317.538C31.6522 318.415 32.2534 321.738 32.4667 322.888L48.0505 323.297C48.5548 322.44 50.2518 319.468 50.5913 317.753C50.8531 316.428 50.5913 315.385 50.3003 314.284C50.1646 313.748 50.0191 313.192 49.9512 312.608C49.8058 311.458 49.7379 309.509 49.7379 306.82C49.7379 305.962 56.1867 259.238 56.9237 253.918L64.3131 194.721C64.3325 194.487 64.5362 194.302 64.7786 194.302Z" fill="#263238"/>
<path d="M28.2675 144.06L0.484375 153.862C0.484375 153.862 2.99601 168.118 6.39981 181.478C9.79392 194.837 12.7516 198.257 14.8269 198.257C16.8924 198.257 33.7369 192.908 35.0751 189.79C36.4134 186.671 31.972 145.092 31.972 145.092L28.2675 144.06Z" fill="#263238"/>
<path d="M14.8175 198.745C11.8113 198.745 8.8148 192.976 5.92496 181.604C2.55995 168.372 0.0289145 154.096 0.00951965 153.95C-0.0292701 153.716 0.106494 153.482 0.329535 153.404L28.1127 143.602C28.2097 143.572 28.3067 143.563 28.4036 143.592L32.0983 144.635C32.2923 144.683 32.4281 144.849 32.4475 145.054C32.9032 149.322 36.8598 186.847 35.5118 189.994C34.0669 193.376 16.9412 198.745 14.8175 198.745ZM1.03745 154.184C1.47383 156.61 3.83031 169.414 6.86561 181.361C10.5021 195.636 13.4114 197.77 14.8175 197.77C16.9316 197.77 33.4463 192.343 34.6197 189.605C35.5506 187.422 33.2814 162.145 31.5165 145.482L28.2873 144.576L1.03745 154.184Z" fill="#263238"/>
<path d="M115.254 129.19C115.254 129.19 116.931 141.176 117.94 145.892C118.948 150.618 118.609 170.019 116.931 177.62C115.254 185.211 113.935 191.876 113.935 191.876C113.935 191.876 116.165 202.341 115.932 204.417C115.865 205.06 114.003 210.945 111.869 211.725C109.736 212.504 106.507 209.23 106.507 209.23C106.507 209.23 105.236 211.013 103.791 210.01C103.132 209.552 103.403 207.476 103.597 206.697C103.791 205.917 102.628 200.665 103.791 196.962C104.955 193.259 106.119 186.643 106.119 186.643C106.119 186.643 102.434 157.439 102.24 153.347C102.046 149.254 100.494 136.011 100.494 136.011L115.254 129.19Z" fill="white"/>
<path d="M111.152 212.338C109.358 212.338 107.379 210.711 106.536 209.941C105.867 210.614 104.703 211.247 103.51 210.419C102.375 209.639 103.112 206.619 103.122 206.589C103.161 206.424 103.083 205.693 103.025 205.04C102.822 202.974 102.482 199.525 103.326 196.825C104.402 193.405 105.488 187.364 105.624 186.643C105.372 184.665 101.949 157.38 101.755 153.385C101.561 149.361 100.029 136.226 100.009 136.089C99.9802 135.885 100.097 135.68 100.291 135.592L115.05 128.761C115.186 128.693 115.351 128.703 115.486 128.781C115.622 128.859 115.709 128.986 115.739 129.141C115.758 129.258 117.426 141.156 118.415 145.814C119.462 150.735 119.045 170.331 117.407 177.746C115.855 184.752 114.604 191.037 114.429 191.895C114.672 193.035 116.64 202.448 116.417 204.494C116.34 205.176 114.439 211.335 112.034 212.212C111.753 212.29 111.452 212.338 111.152 212.338ZM106.507 208.743C106.633 208.743 106.759 208.792 106.856 208.889C107.69 209.737 110.201 211.822 111.704 211.267C113.518 210.604 115.38 205.05 115.457 204.358C115.642 202.721 114.08 194.867 113.469 191.973C113.46 191.905 113.45 191.836 113.469 191.778C113.479 191.71 114.808 185.015 116.466 177.512C118.085 170.185 118.502 150.842 117.474 145.999C116.611 141.945 115.234 132.474 114.875 129.911L101.028 136.323C101.27 138.457 102.56 149.653 102.734 153.337C102.928 157.361 106.574 186.302 106.604 186.594C106.613 186.643 106.604 186.691 106.604 186.74C106.555 187.013 105.42 193.434 104.266 197.118C103.481 199.622 103.811 202.955 104.005 204.943C104.111 206.034 104.16 206.521 104.082 206.823C103.801 207.934 103.801 209.425 104.082 209.61C105.12 210.331 106.09 209.006 106.128 208.947C106.216 208.83 106.342 208.762 106.487 208.743C106.478 208.743 106.497 208.743 106.507 208.743Z" fill="#263238"/>
<path d="M106.507 209.23L107.302 205.703C107.302 205.703 108.873 205.634 109.872 207.135" fill="white"/>
<path d="M106.506 209.717C106.468 209.717 106.439 209.717 106.4 209.708C106.138 209.649 105.973 209.386 106.031 209.123L106.826 205.595C106.875 205.381 107.059 205.225 107.282 205.215C107.35 205.206 109.134 205.147 110.279 206.862C110.424 207.086 110.366 207.388 110.143 207.535C109.92 207.681 109.619 207.622 109.474 207.398C108.911 206.55 108.136 206.287 107.689 206.209L106.982 209.328C106.923 209.561 106.729 209.717 106.506 209.717Z" fill="#263238"/>
<path d="M55.8962 67.3135L46.8776 69.9055L44.4629 174.306C44.4629 174.306 62.345 177.22 74.2631 176.411C86.1813 175.602 93.1053 174.793 93.1053 174.793L90.2057 86.0908L90.6906 70.3927L85.8613 69.0967L55.8962 67.3135Z" fill="white"/>
<path d="M69.7246 177.044C58.3495 177.044 44.5404 174.822 44.3852 174.793C44.1428 174.754 43.9682 174.55 43.9779 174.306L46.3926 69.9054C46.4023 69.691 46.5381 69.5059 46.7417 69.4474L55.7603 66.8554C55.8088 66.8359 55.867 66.8359 55.9252 66.8359L85.8903 68.6191C85.9194 68.6191 85.9581 68.6289 85.9872 68.6386L90.8166 69.9346C91.0299 69.9931 91.1851 70.1977 91.1754 70.4218L90.6905 86.1199L93.59 174.783C93.5997 175.037 93.4155 175.251 93.1633 175.28C93.0955 175.29 86.0939 176.099 74.2921 176.898C72.8472 176.995 71.3053 177.044 69.7246 177.044ZM44.9574 173.897C47.7114 174.326 63.5086 176.654 74.2339 175.933C84.329 175.251 90.9038 174.559 92.6106 174.364L89.7304 86.1199L90.2056 70.7726L85.7933 69.5936L55.9543 67.8104L47.3526 70.2757L44.9574 173.897Z" fill="#263238"/>
<path d="M89.5561 94.6074H46.8389V118.423H89.5561V94.6074Z" fill="#263238"/>
<path d="M89.5556 118.91H46.8384C46.5669 118.91 46.3535 118.695 46.3535 118.422V94.6073C46.3535 94.3345 46.5669 94.1201 46.8384 94.1201H89.5556C89.8271 94.1201 90.0405 94.3345 90.0405 94.6073V118.422C90.0405 118.695 89.8271 118.91 89.5556 118.91ZM47.3233 117.935H89.0707V95.0945H47.3233V117.935Z" fill="#263238"/>
<path d="M61.0069 49.7743C61.0069 49.7743 60.6287 60.4443 59.6298 62.9583C58.631 65.4724 53.5107 68.23 53.5107 68.23C53.5107 68.23 60.5026 78.0231 70.2485 77.643C79.9945 77.263 87.1124 69.7306 87.1124 69.7306C87.1124 69.7306 83.3692 67.0899 82.7388 64.2056C82.1182 61.3213 80.363 49.2676 80.363 49.2676L61.0069 49.7743Z" fill="white"/>
<path d="M69.6958 78.1399C60.1147 78.1399 53.404 68.912 53.1228 68.5125C53.0452 68.3956 53.0162 68.2592 53.0452 68.1227C53.0743 67.9863 53.1616 67.8694 53.2877 67.8012C53.3362 67.772 58.2625 65.0923 59.1837 62.7731C60.1438 60.3663 60.522 49.8619 60.522 49.7547C60.5317 49.5014 60.7353 49.287 60.9971 49.287L80.3629 48.7803C80.6248 48.79 80.8187 48.9557 80.8575 49.1993C80.8769 49.3162 82.6127 61.2627 83.2237 64.1081C83.8055 66.778 87.3645 69.3116 87.4033 69.331C87.5196 69.409 87.5972 69.5357 87.6069 69.6818C87.6166 69.8183 87.5778 69.9644 87.4712 70.0619C87.1705 70.3737 80.1011 77.7404 70.2776 78.1204C70.0836 78.1399 69.8897 78.1399 69.6958 78.1399ZM54.238 68.3761C55.7217 70.2373 61.9863 77.4578 70.2291 77.1557C78.4041 76.8439 84.7656 71.3091 86.3754 69.7793C85.3183 68.951 82.797 66.7488 82.2733 64.3127C81.7109 61.711 80.2757 51.9667 79.9556 49.7644L61.482 50.2517C61.3947 52.3564 60.9971 60.8535 60.0953 63.1337C59.2128 65.3261 55.586 67.5965 54.238 68.3761Z" fill="#263238"/>
<path d="M54.0535 32.6527C54.0535 32.6527 51.7455 30.2264 49.6606 32.2142C47.5756 34.202 50.7564 39.0547 51.8619 40.2728C52.9577 41.4908 55.2657 40.4969 55.2657 40.4969L54.0535 32.6527Z" fill="white"/>
<path d="M53.4332 41.3544C52.7447 41.3544 52.0271 41.179 51.4937 40.5943C50.6306 39.6394 46.7808 34.28 49.3215 31.8537C51.2513 30.0217 53.4817 31.347 54.4029 32.3117C54.4708 32.3799 54.5193 32.4773 54.529 32.5747L55.7412 40.4092C55.78 40.6333 55.6539 40.8477 55.4503 40.9354C55.3824 40.9646 54.4514 41.3544 53.4332 41.3544ZM51.484 31.9219C50.9991 31.9219 50.4852 32.0875 49.9906 32.565C48.3324 34.1436 50.941 38.5383 52.2113 39.9415C52.8029 40.5943 54.015 40.3897 54.7133 40.1656L53.5884 32.8866C53.3071 32.6137 52.4635 31.9219 51.484 31.9219Z" fill="#263238"/>
<path d="M86.9954 32.6527C86.9954 32.6527 89.3034 30.2264 91.3883 32.2142C93.4733 34.202 90.2925 39.0547 89.187 40.2728C88.0912 41.4908 85.7832 40.4969 85.7832 40.4969L86.9954 32.6527Z" fill="white"/>
<path d="M87.6161 41.3548C86.5979 41.3548 85.6669 40.965 85.5991 40.9358C85.3954 40.8481 85.279 40.6337 85.3081 40.4096L86.5203 32.5751C86.5397 32.4777 86.5785 32.39 86.6464 32.312C87.5579 31.3474 89.798 30.0124 91.7278 31.8541C94.2783 34.2804 90.4187 39.6398 89.5556 40.5947C89.0223 41.1794 88.3046 41.3548 87.6161 41.3548ZM86.3264 40.166C87.0343 40.3901 88.2465 40.5947 88.8283 39.9419C90.0987 38.5387 92.7073 34.144 91.049 32.5654C89.5459 31.133 87.878 32.4874 87.4416 32.887L86.3264 40.166Z" fill="#263238"/>
<path d="M53.7241 28.3271C53.7241 28.3271 55.2369 44.9996 56.934 47.8449C58.631 50.6903 67.1163 56.9461 68.4351 57.3164C69.754 57.6964 72.3917 57.8816 73.9045 57.1313C75.4173 56.3712 83.7086 49.9302 84.465 47.8449C85.2214 45.7596 87.4809 31.5427 87.6749 29.0871C87.8591 26.6218 86.5403 18.4756 83.3401 16.1954C80.1303 13.925 58.2528 19.9859 55.7994 22.6364C53.3459 25.2868 53.7241 28.3271 53.7241 28.3271Z" fill="white"/>
<path d="M71.1012 58.1443C70.0442 58.1443 69.0066 57.9884 68.3084 57.7935C66.7665 57.355 58.223 50.953 56.5163 48.0979C54.7901 45.2038 53.3161 29.1549 53.2482 28.3754C53.2192 28.1415 52.9185 25.0526 55.4496 22.3047C57.8351 19.7224 80.1005 13.3009 83.6206 15.7955C87.0826 18.251 88.353 26.6604 88.159 29.1159C87.9748 31.4838 85.7056 45.8567 84.9201 48.0102C84.0958 50.2806 75.6978 56.7703 74.1171 57.5694C73.2832 57.9884 72.1777 58.1443 71.1012 58.1443ZM80.7987 16.1852C74.4275 16.1852 58.2036 20.7553 56.1478 22.977C53.8883 25.4228 54.1986 28.239 54.1986 28.2682C54.1986 28.2682 54.1986 28.2779 54.1986 28.2877C54.7126 34.0173 56.0411 45.4279 57.3406 47.6009C58.9503 50.2903 67.3677 56.517 68.5605 56.858C69.8406 57.2283 72.3328 57.3745 73.6808 56.7021C75.2517 55.9128 83.3297 49.5498 83.9988 47.6886C84.7067 45.7203 86.9662 31.7566 87.1796 29.0575C87.3832 26.4557 85.948 18.6603 83.0485 16.6042C82.6509 16.3119 81.8654 16.1852 80.7987 16.1852Z" fill="#263238"/>
<path d="M64.7014 33.6962C64.7014 34.6999 64.2068 35.5184 63.6056 35.5184C62.9946 35.5184 62.5098 34.6999 62.5098 33.6962C62.5098 32.6925 63.0043 31.874 63.6056 31.874C64.2068 31.874 64.7014 32.6925 64.7014 33.6962Z" fill="#263238"/>
<path d="M77.5499 35.5184C78.1551 35.5184 78.6457 34.7026 78.6457 33.6962C78.6457 32.6898 78.1551 31.874 77.5499 31.874C76.9447 31.874 76.4541 32.6898 76.4541 33.6962C76.4541 34.7026 76.9447 35.5184 77.5499 35.5184Z" fill="#263238"/>
<path d="M67.1157 41.3062C66.8539 41.3062 66.6406 41.0919 66.6309 40.8288C66.6309 40.5559 66.8345 40.3415 67.106 40.3318L73.0409 40.2246C73.3027 40.2246 73.5257 40.4292 73.5354 40.7021C73.5354 40.9749 73.3318 41.1893 73.0603 41.199L67.1157 41.3062C67.1254 41.3062 67.1254 41.3062 67.1157 41.3062Z" fill="#263238"/>
<path d="M69.947 47.2699C69.8791 47.2699 69.8016 47.2699 69.7337 47.2699C66.4366 47.153 63.7504 45.1652 63.634 45.0775C63.4207 44.9118 63.3722 44.6097 63.537 44.3954C63.7019 44.181 64.0025 44.1323 64.2158 44.2979C64.2449 44.3174 66.776 46.1981 69.7628 46.2955C72.7787 46.4027 76.6964 43.8594 76.7352 43.8399C76.9583 43.6938 77.2589 43.762 77.4044 43.9861C77.5498 44.2102 77.4819 44.5123 77.2589 44.6585C77.1037 44.7559 73.2054 47.2699 69.947 47.2699Z" fill="#263238"/>
<path d="M58.9983 31.1912C58.6977 31.1912 58.4068 31.0548 58.2129 30.8014C57.9025 30.3727 57.9801 29.7783 58.3971 29.4567C58.6201 29.2813 60.7342 27.7905 65.515 28.609C66.0387 28.6967 66.3975 29.2034 66.3102 29.7296C66.2229 30.2558 65.7284 30.6163 65.195 30.5286C61.2579 29.8562 59.5802 31.0061 59.5608 31.0158C59.3959 31.1328 59.1923 31.1912 58.9983 31.1912Z" fill="#263238"/>
<path d="M81.284 31.3086C81.1289 31.3086 80.964 31.2696 80.8185 31.1917C77.7832 29.5156 74.748 30.2757 74.7189 30.2854C74.1952 30.4219 73.6715 30.11 73.5358 29.5838C73.4 29.0674 73.7103 28.5315 74.234 28.395C74.3891 28.3561 78.0548 27.4401 81.7495 29.4767C82.215 29.7398 82.3895 30.3244 82.1374 30.8019C81.9628 31.1234 81.6331 31.3086 81.284 31.3086Z" fill="#263238"/>
<path d="M54.2085 36.0538C54.2085 36.0538 53.1127 34.4753 53.1127 33.2183C53.1127 31.9612 52.8024 29.2815 52.8024 29.2815C52.8024 29.2815 50.3004 26.6019 48.7295 23.1426C47.1585 19.6834 47.4785 14.6456 49.1949 11.1766C50.9211 7.71737 60.0076 2.67956 65.6418 1.4128C71.2857 0.15578 75.5138 -0.477601 83.0293 3.61501C90.5448 7.70763 88.6732 12.1121 88.198 13.3788C87.7326 14.6358 87.7326 14.6358 87.7326 14.6358C87.7326 14.6358 91.34 15.4251 91.9606 18.5725C92.591 21.72 92.9013 22.3533 91.9606 25.0233C91.02 27.703 89.4587 30.6945 89.1387 31.3181C88.8284 31.9515 88.3532 32.8967 88.0429 33.5203C87.7326 34.1537 86.6367 34.1537 86.6367 34.1537C86.6367 34.1537 87.4222 30.5288 86.6367 29.2718C85.8512 28.0148 83.9699 27.0696 83.3493 23.2888C82.719 19.508 82.719 17.6176 82.719 17.6176C82.719 17.6176 71.7512 19.8198 67.5231 21.7102C63.295 23.6006 60.1627 23.4447 59.2221 25.6469C58.2814 27.8491 58.9118 28.6384 57.0305 29.7395C55.1492 30.8406 55.1492 30.8406 55.1492 30.8406L54.2085 36.0538Z" fill="#263238"/>
<path d="M54.2088 36.541C54.0536 36.541 53.9081 36.4631 53.8112 36.3364C53.7627 36.2682 52.6281 34.6214 52.6281 33.228C52.6281 32.1853 52.405 30.0903 52.3372 29.5057C51.8232 28.9405 49.6995 26.4752 48.2836 23.357C46.7126 19.888 46.9163 14.6845 48.7588 10.972C50.5722 7.33733 59.746 2.25079 65.5354 0.954798C71.3538 -0.341196 75.7371 -0.886878 83.2623 3.20574C88.3825 5.99261 90.2057 9.4421 88.6929 13.4762L88.3728 14.3337C89.4687 14.704 91.9027 15.8051 92.4361 18.4946L92.63 19.4398C93.1149 21.8076 93.2992 22.6944 92.4167 25.2084C91.5633 27.625 90.2251 30.2755 89.7111 31.2791L88.4698 33.7639C88.0334 34.6409 86.7728 34.6604 86.6273 34.6604C86.4818 34.6604 86.3461 34.5922 86.2491 34.4753C86.1521 34.3583 86.123 34.2122 86.1521 34.066C86.4431 32.7408 86.7049 30.3437 86.2103 29.5446C86.0261 29.2523 85.7642 28.96 85.4539 28.6189C84.5618 27.6445 83.3399 26.2998 82.855 23.3765C82.4186 20.765 82.2829 19.0597 82.2441 18.2217C79.9555 18.6992 71.2957 20.5604 67.7076 22.1682C66.1463 22.8698 64.7596 23.279 63.528 23.6493C61.5012 24.2535 60.163 24.653 59.649 25.8515C59.3484 26.5531 59.2223 27.0988 59.106 27.5763C58.8732 28.5605 58.689 29.3303 57.2538 30.1683L55.5664 31.1524L54.6645 36.122C54.6258 36.3169 54.4803 36.4728 54.296 36.5118C54.2766 36.541 54.2379 36.541 54.2088 36.541ZM72.4012 0.964542C70.2483 0.964542 68.144 1.36406 65.7487 1.9C60.2697 3.12778 51.2995 8.04866 49.6316 11.4007C47.9054 14.8697 47.7115 19.7224 49.1661 22.9477C50.6789 26.29 53.1227 28.9307 53.1517 28.9502C53.2196 29.0282 53.2681 29.1256 53.2778 29.2231C53.2875 29.3303 53.5978 31.9417 53.5978 33.2182C53.5978 33.6567 53.7627 34.1732 53.976 34.6312L54.6742 30.7724C54.7033 30.636 54.7809 30.5093 54.907 30.4411L56.7883 29.34C57.855 28.7164 57.9617 28.2876 58.1847 27.3619C58.3011 26.8649 58.4465 26.2608 58.786 25.4812C59.4745 23.8637 61.1521 23.3667 63.2759 22.7334C64.4687 22.3728 65.8263 21.9733 67.3391 21.3009C71.5672 19.4105 82.1859 17.2668 82.632 17.1791C82.7774 17.1499 82.9229 17.1888 83.0296 17.2765C83.1459 17.3642 83.2041 17.5104 83.2041 17.6566C83.2041 17.6761 83.2138 19.5664 83.8248 23.2401C84.2611 25.871 85.3279 27.0403 86.1812 27.9758C86.5109 28.3363 86.8116 28.6676 87.0443 29.0379C87.7037 30.1098 87.4419 32.4095 87.2382 33.5885C87.4128 33.5301 87.5486 33.4424 87.6067 33.3352L88.848 30.8406C89.3426 29.8564 90.6711 27.245 91.4954 24.8868C92.2906 22.6359 92.1549 22.0025 91.67 19.6444L91.476 18.6895C90.9136 15.8831 87.6552 15.1425 87.6164 15.1328C87.4807 15.1035 87.3643 15.0159 87.2964 14.8892C87.2285 14.7625 87.2189 14.6163 87.2673 14.4897L87.7716 13.1352C88.2662 11.8295 89.7596 7.86352 82.7871 4.07298C78.5687 1.75383 75.4365 0.964542 72.4012 0.964542Z" fill="#263238"/>
<path d="M55.7414 59.7129L60.7356 78.4902C60.7356 78.4902 56.8663 95.4843 54.9365 104.391C53.0067 113.297 52.037 152.138 52.2018 156.835C52.3667 161.531 50.4272 180.63 50.4272 180.63L31.7402 179.178C31.7402 179.178 32.3803 153.278 32.71 140.172C33.03 127.066 37.7042 73.8129 37.7042 73.8129L38.189 70.4122L50.4272 68.9505L50.1072 62.9578L55.7414 59.7129Z" fill="#704B8C"/>
<path d="M50.4173 181.108C50.4076 181.108 50.3882 181.108 50.3785 181.108L31.6915 179.646C31.4297 179.627 31.2358 179.403 31.2455 179.149C31.2455 179.149 31.8855 153.249 32.2152 140.143C32.5352 127.163 37.1609 74.2811 37.2094 73.7451L37.6943 70.3151C37.7234 70.1008 37.8979 69.9254 38.121 69.8961L49.913 68.493L49.6124 62.9582C49.6027 62.773 49.6997 62.5976 49.8549 62.5099L55.4891 59.2748C55.6151 59.1969 55.78 59.1871 55.9158 59.2456C56.0515 59.3041 56.1582 59.421 56.197 59.5672L61.1912 78.3445C61.2106 78.4224 61.2106 78.5004 61.1912 78.5783C61.1524 78.744 57.3025 95.6699 55.3921 104.469C53.4623 113.346 52.5023 152.167 52.6671 156.786C52.832 161.463 50.9701 179.861 50.8925 180.65C50.8731 180.923 50.6694 181.108 50.4173 181.108ZM32.2346 178.711L49.9906 180.095C50.2815 177.123 51.8525 161.035 51.7168 156.845C51.5616 152.206 52.5313 113.21 54.4708 104.284C56.294 95.8647 59.9014 80.0302 60.2408 78.5004L55.4406 60.4539L50.6112 63.231L50.9216 68.9217C50.9313 69.1751 50.747 69.3992 50.4949 69.4284L38.6252 70.8413L38.1985 73.8718C38.15 74.3785 33.5244 127.232 33.214 140.182C32.894 152.245 32.3219 175.183 32.2346 178.711Z" fill="#263238"/>
<path d="M52.5124 86.4226C52.4542 86.4226 52.396 86.4129 52.3476 86.3934C52.173 86.3349 52.0566 86.179 52.0275 85.9939L50.0977 70.2958C50.0687 70.0327 50.2529 69.7891 50.5147 69.7501C50.7766 69.7111 51.019 69.906 51.0578 70.1691L52.8712 84.922L59.2618 78.939C59.4558 78.7538 59.7661 78.7636 59.9503 78.9585C60.1346 79.1534 60.1249 79.4652 59.931 79.6503L52.8421 86.2862C52.7548 86.3739 52.6385 86.4226 52.5124 86.4226Z" fill="#263238"/>
<path d="M86.8215 60.3564L81.9922 79.4553C81.9922 79.4553 82.9619 114.905 84.0868 119.758C85.2117 124.61 87.4712 173.176 87.4712 180.134C87.4712 187.091 87.9561 201.172 87.9561 201.172L107.768 194.857C107.768 194.857 104.228 148.893 103.899 145.98C103.579 143.066 102.609 136.918 102.609 136.918L124.515 126.881C124.515 126.881 111.792 84.9608 110.658 81.5601C109.533 78.1593 109.368 77.029 107.923 76.0545C106.469 75.0801 90.6908 70.3931 90.6908 70.3931L91.6605 66.1835L86.8215 60.3564Z" fill="#704B8C"/>
<path d="M87.9556 201.669C87.8587 201.669 87.7617 201.639 87.6744 201.581C87.5483 201.493 87.4708 201.357 87.4708 201.201C87.4611 201.064 86.9859 187.033 86.9859 180.143C86.9859 172.582 84.7167 124.62 83.6112 119.885C82.4863 115.032 81.5456 80.9365 81.5068 79.4846C81.5068 79.4358 81.5068 79.3969 81.5262 79.3481L86.3556 60.2493C86.404 60.0739 86.5398 59.9375 86.7144 59.8985C86.8889 59.8595 87.0732 59.918 87.1895 60.0641L92.0189 65.8912C92.1158 66.0082 92.1546 66.1641 92.1158 66.3103L91.2528 70.0716C94.1426 70.9388 106.807 74.7488 108.184 75.6648C109.552 76.5808 109.901 77.6624 110.667 80.0302C110.803 80.4493 110.948 80.9072 111.123 81.4237C112.238 84.7855 124.854 126.335 124.98 126.754C125.048 126.988 124.942 127.241 124.719 127.339L103.142 137.22C103.355 138.594 104.102 143.456 104.373 145.941C104.693 148.825 108.097 192.957 108.243 194.838C108.262 195.062 108.117 195.276 107.903 195.345L88.0914 201.659C88.0526 201.659 88.0041 201.669 87.9556 201.669ZM82.4766 79.5138C82.5251 81.258 83.4754 115.003 84.5518 119.651C85.6573 124.425 87.9459 172.553 87.9459 180.134C87.9459 186.165 88.3144 197.683 88.4114 200.519L107.244 194.516C106.904 190.063 103.714 148.767 103.413 146.038C103.093 143.164 102.133 137.054 102.124 136.996C102.085 136.781 102.201 136.567 102.405 136.479L123.923 126.618C122.605 122.272 111.249 84.8927 110.202 81.716C110.027 81.1996 109.882 80.7416 109.746 80.3128C109.018 78.0424 108.747 77.1947 107.651 76.4638C106.633 75.7817 96.8676 72.7415 90.5449 70.8608C90.3024 70.7829 90.1569 70.5393 90.2054 70.2859L91.117 66.3103L87.0441 61.3991L82.4766 79.5138Z" fill="#263238"/>
<path d="M90.3708 88.5272C90.2447 88.5272 90.1186 88.4785 90.0313 88.381L83.1074 81.4236C82.9134 81.2287 82.9134 80.9266 83.1074 80.7317C83.3013 80.5368 83.602 80.5368 83.7959 80.7317L89.9344 86.8999L90.3805 73.6184C90.3902 73.3455 90.6423 73.1312 90.8847 73.1506C91.1563 73.1604 91.3599 73.3845 91.3502 73.6573L90.8653 88.0595C90.8556 88.2543 90.7393 88.4297 90.555 88.4979C90.4871 88.5174 90.4289 88.5272 90.3708 88.5272Z" fill="#263238"/>
<path d="M102.609 137.405C102.357 137.405 102.134 137.2 102.124 136.937L101.154 117.195L103.889 83.139C103.908 82.8759 104.151 82.6712 104.413 82.6907C104.674 82.7102 104.878 82.9441 104.859 83.2169L102.124 117.205L103.094 136.889C103.103 137.161 102.9 137.386 102.628 137.395C102.628 137.405 102.619 137.405 102.609 137.405Z" fill="#263238"/>
<path d="M103.259 108.757C103.23 108.757 103.2 108.757 103.171 108.747C102.91 108.698 102.735 108.445 102.783 108.182L105.363 93.7797C105.411 93.5166 105.664 93.3412 105.925 93.39C106.187 93.4387 106.362 93.692 106.313 93.9551L103.734 108.357C103.695 108.591 103.482 108.757 103.259 108.757Z" fill="#263238"/>
<path d="M102.124 131.578L123.07 121.707L124.515 126.881L102.609 136.918L102.124 131.578Z" fill="#263238"/>
<path d="M102.609 137.405C102.521 137.405 102.444 137.386 102.366 137.337C102.23 137.259 102.143 137.113 102.124 136.957L101.639 131.617C101.619 131.412 101.736 131.217 101.92 131.13L122.857 121.259C122.983 121.2 123.138 121.2 123.264 121.259C123.39 121.317 123.487 121.434 123.526 121.571L124.981 126.754C125.048 126.988 124.932 127.232 124.719 127.329L102.812 137.366C102.744 137.395 102.676 137.405 102.609 137.405ZM102.638 131.87L103.026 136.187L123.933 126.608L122.75 122.389L102.638 131.87Z" fill="#263238"/>
<path d="M20.8779 161.736L48.6611 162.321L47.9144 187.715L21.4695 186.38L20.8779 161.736Z" fill="white"/>
<path d="M47.9148 188.202C47.9051 188.202 47.8954 188.202 47.8954 188.202L21.4408 186.867C21.1887 186.857 20.985 186.643 20.9753 186.389L20.3838 161.736C20.3838 161.6 20.4323 161.473 20.5293 161.376C20.6262 161.278 20.762 161.239 20.8784 161.229L48.6615 161.824C48.7876 161.824 48.9137 161.882 49.0009 161.98C49.0882 162.077 49.1367 162.204 49.1367 162.331L48.3997 187.724C48.3997 187.851 48.3415 187.978 48.2445 188.065C48.1573 188.153 48.0409 188.202 47.9148 188.202ZM21.9451 185.922L47.4493 187.208L48.1573 162.808L21.3729 162.233L21.9451 185.922Z" fill="#263238"/>
<path d="M47.915 187.715L51.6098 186.526L52.7929 162.321H48.6617L47.915 187.715Z" fill="white"/>
<path d="M47.9146 188.202C47.8079 188.202 47.7109 188.173 47.6236 188.105C47.4976 188.007 47.4297 187.861 47.4297 187.705L48.1667 162.311C48.1764 162.048 48.3897 161.834 48.6516 161.834H52.7924C52.9281 161.834 53.0542 161.892 53.1415 161.99C53.2288 162.087 53.2772 162.214 53.2772 162.35L52.0942 186.555C52.0845 186.76 51.9487 186.935 51.7547 186.994L48.06 188.183C48.0212 188.192 47.9727 188.202 47.9146 188.202ZM49.1267 162.818L48.4188 187.052L51.1438 186.175L52.2881 162.818H49.1267Z" fill="#263238"/>
<path d="M8.75691 122.379C8.75691 122.379 5.94466 129.064 6.39074 138.71C6.83682 148.357 15.8457 179.247 16.8834 181.624C17.921 184.002 20.132 189.79 20.5781 190.238C21.0242 190.687 24.1274 190.531 24.1274 190.531C24.1274 190.531 24.4183 191.125 25.3104 191.125C26.2026 191.125 29.1506 190.531 29.1506 190.531C29.1506 190.531 30.3337 191.573 31.5168 191.719C32.6999 191.866 35.0661 189.79 35.0661 189.79L33.7375 185.483C33.7375 185.483 37.5777 186.224 38.7608 185.775C39.9439 185.327 41.2724 183.252 40.39 182.657C39.5075 182.063 37.5777 182.209 36.5498 181.917C35.5121 181.624 33.4466 179.393 32.7096 178.204C31.9726 177.015 31.0804 176.567 30.3434 176.275C29.6064 175.982 24.5831 174.043 24.5831 174.043C24.5831 174.043 22.0715 155.48 22.0715 153.405C22.0715 151.329 25.0292 145.239 25.0292 141.673C25.0292 138.106 23.7007 131.87 23.7007 131.87V129.2L8.75691 122.379Z" fill="white"/>
<path d="M31.633 192.216C31.5748 192.216 31.5166 192.216 31.4584 192.207C30.4305 192.08 29.4316 191.378 29.0244 191.057C28.3067 191.193 26.0957 191.612 25.3102 191.612C24.612 191.612 24.1465 191.31 23.8944 191.027C22.4301 191.086 20.7039 191.047 20.2385 190.579C19.9282 190.267 19.356 188.932 17.7947 185.074C17.2905 183.826 16.7959 182.618 16.4468 181.819C15.4091 179.432 6.36143 148.474 5.91535 138.739C5.46927 129.093 8.20395 122.466 8.32032 122.194C8.3688 122.077 8.46578 121.979 8.59184 121.93C8.71791 121.882 8.85368 121.891 8.97005 121.94L23.8944 128.771C24.069 128.849 24.1756 129.024 24.1756 129.219V131.84C24.3114 132.484 25.5042 138.252 25.5042 141.692C25.5042 143.797 24.5441 146.642 23.7102 149.156C23.1186 150.93 22.5562 152.606 22.5562 153.424C22.5562 155.305 24.709 171.363 25.029 173.712C26.0763 174.111 29.8971 175.583 30.5275 175.836C31.3711 176.177 32.3312 176.694 33.1264 177.96C33.9022 179.208 35.8804 181.225 36.695 181.459C37.0538 181.556 37.5581 181.605 38.0915 181.653C39.0418 181.741 40.0309 181.829 40.671 182.267C41.0492 182.521 41.2237 182.949 41.1655 183.466C41.0492 184.508 39.9728 185.863 38.9448 186.243C37.9848 186.604 35.6865 186.311 34.4452 186.107L35.541 189.653C35.5992 189.839 35.541 190.034 35.3956 190.16C34.9786 190.521 32.9712 192.216 31.633 192.216ZM29.1504 190.053C29.2668 190.053 29.3832 190.092 29.4704 190.17C29.4801 190.18 30.5565 191.115 31.5748 191.242C32.176 191.32 33.5725 190.404 34.5034 189.634L33.2718 185.639C33.2233 185.473 33.2621 185.298 33.3688 185.171C33.4852 185.044 33.6597 184.986 33.8246 185.015C35.2598 185.288 37.8199 185.619 38.586 185.337C39.2648 185.083 40.0988 184.041 40.1764 183.359C40.2055 183.144 40.1376 183.096 40.1085 183.076C39.6624 182.784 38.7703 182.696 37.9751 182.628C37.3932 182.579 36.8405 182.521 36.4041 182.394C35.1531 182.033 33.0003 179.617 32.2827 178.467C31.6136 177.385 30.8281 177.005 30.1493 176.733C29.4123 176.44 24.389 174.511 24.389 174.511C24.2241 174.443 24.1077 174.296 24.0787 174.121C23.972 173.361 21.567 155.5 21.567 153.414C21.567 152.43 22.1295 150.764 22.7792 148.835C23.5938 146.389 24.5247 143.621 24.5247 141.682C24.5247 138.213 23.2156 132.045 23.2059 131.987C23.1962 131.957 23.1962 131.918 23.1962 131.889V129.531L9.02823 123.051C8.42699 124.717 6.51659 130.71 6.8754 138.7C7.32148 148.357 16.2916 179.071 17.3292 181.439C17.6783 182.248 18.1729 183.456 18.6869 184.723C19.5209 186.769 20.6555 189.576 20.9367 189.917C21.1985 190.072 22.7986 190.121 24.1077 190.063C24.3114 190.034 24.4763 190.16 24.5635 190.336C24.5732 190.355 24.7672 190.657 25.3102 190.657C25.9988 190.657 28.2486 190.238 29.0534 190.072C29.0922 190.053 29.1213 190.053 29.1504 190.053Z" fill="#263238"/>
<path d="M38.179 70.3936C38.179 70.3936 29.8004 72.1768 29.4804 73.1415C29.1604 74.1159 4.18945 122.672 4.18945 122.672L30.1204 133.352L32.0502 122.672L38.179 70.3936Z" fill="#704B8C"/>
<path d="M30.1199 133.848C30.0617 133.848 29.9939 133.838 29.9357 133.809L4.00472 123.129C3.87866 123.071 3.78168 122.973 3.73319 122.847C3.68471 122.72 3.6944 122.574 3.75259 122.457C12.3251 105.794 28.6265 74.0083 29.0144 72.9851C29.3538 71.9717 34.125 70.7537 38.0718 69.9156C38.227 69.8864 38.3822 69.9254 38.4985 70.0326C38.6149 70.1398 38.6731 70.2957 38.6537 70.4516L32.5346 122.73L30.5951 133.439C30.566 133.585 30.4787 133.712 30.3527 133.78C30.2848 133.829 30.2072 133.848 30.1199 133.848ZM4.86779 122.428L29.7611 132.679L31.5842 122.584L37.6257 71.007C34.1056 71.7866 30.3236 72.8487 29.9163 73.3456C29.6254 74.2519 8.34918 115.655 4.86779 122.428Z" fill="#263238"/>
<path d="M6.84655 117.711L30.8477 128.089L30.1204 133.36L4.18945 122.671L6.84655 117.711Z" fill="#263238"/>
<path d="M30.1202 133.848C30.062 133.848 29.9941 133.838 29.9359 133.809L4.00496 123.129C3.87889 123.071 3.78192 122.973 3.73343 122.837C3.68494 122.71 3.69464 122.564 3.76252 122.437L6.41962 117.477C6.53599 117.253 6.80752 117.166 7.04026 117.263L31.0414 127.641C31.2451 127.728 31.3614 127.943 31.3323 128.157L30.605 133.429C30.5856 133.575 30.4984 133.711 30.3626 133.789C30.2947 133.819 30.2074 133.848 30.1202 133.848ZM4.86803 122.428L29.7226 132.669L30.3141 128.391L7.05965 118.335L4.86803 122.428Z" fill="#263238"/>
<path d="M35.0657 71.1525C35.0657 71.1525 31.5164 88.0784 30.7794 100.999C30.0424 113.92 26.3477 149.409 26.3477 149.409L31.3709 151.192C31.3709 151.192 38.6149 97.8909 39.3519 89.7154C40.0889 81.5497 42.746 69.9637 42.746 69.9637C42.746 69.9637 37.2767 69.8175 35.0657 71.1525Z" fill="#263238"/>
<path d="M31.3714 151.68C31.3132 151.68 31.2648 151.67 31.2066 151.651L26.1833 149.867C25.97 149.79 25.8342 149.585 25.8633 149.361C25.9021 149.01 29.5677 113.736 30.295 100.98C31.0223 88.1762 34.5522 71.2308 34.591 71.0652C34.6201 70.9287 34.6977 70.8216 34.814 70.7436C37.122 69.3502 42.5332 69.4768 42.7562 69.4866C42.9017 69.4866 43.0375 69.5645 43.1247 69.6717C43.212 69.7887 43.2508 69.9348 43.212 70.081C43.1829 70.1979 40.5549 81.7254 39.8276 89.7645C39.1003 97.8523 31.9145 150.725 31.8466 151.261C31.8272 151.407 31.7399 151.534 31.6139 151.612C31.546 151.651 31.4587 151.68 31.3714 151.68ZM26.8621 149.078L30.9641 150.53C31.7593 144.664 38.1693 97.2676 38.8579 89.6671C39.4979 82.6122 41.5828 72.9166 42.1356 70.4415C40.7392 70.4513 37.219 70.5585 35.4831 71.4647C35.0662 73.4817 31.9339 89.0727 31.2551 101.019C30.5762 113.092 27.2694 145.2 26.8621 149.078Z" fill="#263238"/>
</g>
<defs>
<clipPath id="clip0_902_1426">
<rect width="125" height="343" fill="white"/>
</clipPath>
</defs>
</svg>
