<svg width="20" height="20" viewBox="0 0 20 20" fill="none" xmlns="http://www.w3.org/2000/svg">
<path d="M15.2412 9.59406L6.78391 4.71125C6.71265 4.67008 6.63181 4.6484 6.54951 4.64839C6.46722 4.64838 6.38637 4.67004 6.31511 4.71119C6.24384 4.75234 6.18466 4.81153 6.14353 4.8828C6.10239 4.95408 6.08075 5.03493 6.08078 5.11723V14.8829C6.08079 14.9651 6.10245 15.046 6.14359 15.1172C6.18474 15.1885 6.24391 15.2476 6.31516 15.2888C6.38642 15.3299 6.46725 15.3516 6.54953 15.3516C6.63181 15.3516 6.71264 15.33 6.78391 15.2888L15.2412 10.406C15.3125 10.3649 15.3717 10.3057 15.4128 10.2344C15.454 10.1632 15.4756 10.0823 15.4756 10C15.4756 9.91775 15.454 9.83691 15.4128 9.76564C15.3717 9.69438 15.3125 9.6352 15.2412 9.59406ZM7.01828 14.0709V5.92914L14.0693 10L7.01828 14.0709ZM10 0C4.48598 0 0 4.48598 0 10C0 15.514 4.48598 20 10 20C15.5141 20 20 15.514 20 10C20 4.48598 15.514 0 10 0ZM10 19.0625C5.00293 19.0625 0.9375 14.9971 0.9375 10C0.9375 5.00293 5.00289 0.9375 10 0.9375C14.9971 0.9375 19.0625 5.00293 19.0625 10C19.0625 14.9971 14.9971 19.0625 10 19.0625Z" fill="black"/>
</svg>
