<svg width="33" height="34" viewBox="0 0 33 34" fill="none" xmlns="http://www.w3.org/2000/svg">
<circle cx="16.5002" cy="17.825" r="11.55" fill="white"/>
<path d="M18.5713 10.718H14.3604V17.0687H18.5713C20.3223 17.0687 21.7467 15.6442 21.7467 13.8933C21.7467 12.117 20.3069 10.718 18.5713 10.718Z" fill="#C59E15"/>
<path d="M16.5 0.5C7.40186 0.5 0 7.90186 0 17C0 26.0981 7.40186 33.5 16.5 33.5C25.5981 33.5 33 26.0981 33 17C33 7.90186 25.5981 0.5 16.5 0.5ZM18.5711 19.0023H14.3602V21.2109H18.5711C19.1051 21.2109 19.5379 21.6438 19.5379 22.1777C19.5379 22.7116 19.1051 23.1445 18.5711 23.1445H14.3602V25.2844C14.3602 25.8183 13.9273 26.2512 13.3934 26.2512C12.8594 26.2512 12.4266 25.8183 12.4266 25.2844V23.1445H11.3223C10.7884 23.1445 10.3555 22.7116 10.3555 22.1777C10.3555 21.6438 10.7884 21.2109 11.3223 21.2109H12.4266V19.0023H11.3223C10.7884 19.0023 10.3555 18.5694 10.3555 18.0355C10.3555 17.5016 10.7884 17.0687 11.3223 17.0687H12.4266V9.75115C12.4266 9.21722 12.8594 8.78435 13.3934 8.78435H18.5711C21.3288 8.78435 23.6801 11.0066 23.6801 13.8934C23.6801 16.7105 21.3883 19.0023 18.5711 19.0023Z" fill="#C59E15"/>
</svg>
