<svg width="30" height="30" viewBox="0 0 30 30" fill="none" xmlns="http://www.w3.org/2000/svg">
<circle cx="13.3438" cy="15.0157" r="10.918" fill="white"/>
<path d="M14.6988 29.6231C22.8186 29.6231 29.3975 23.0442 29.3975 14.9243C29.3975 6.8045 22.8186 0.225586 14.6988 0.225586C6.57892 0.225586 0 6.8045 0 14.9243C0 23.0442 6.57892 29.6231 14.6988 29.6231ZM6.72591 14.6059L20.898 9.14161C21.5557 8.90398 22.1302 9.30207 21.9171 10.2967L21.9183 10.2955L19.5053 21.6637C19.3264 22.4697 18.8475 22.6657 18.1775 22.286L14.5028 19.5777L12.7303 21.2852C12.5344 21.4812 12.369 21.6466 11.9893 21.6466L12.2502 17.907L19.0606 11.7543C19.357 11.4934 18.9945 11.3464 18.6037 11.6061L10.1875 16.905L6.55932 15.7732C5.77171 15.5233 5.75456 14.9856 6.72591 14.6059Z" fill="#2A92FA"/>
</svg>
