<svg width="70" height="70" viewBox="0 0 70 70" fill="none" xmlns="http://www.w3.org/2000/svg">
<g clip-path="url(#clip0_905_80)">
<path d="M35.0757 36.3691C32.6619 36.3691 30.6982 38.3328 30.6982 40.7465C30.6982 43.1603 32.6619 45.124 35.0757 45.124C37.4893 45.1239 39.453 43.1602 39.453 40.7465C39.4532 38.3328 37.4895 36.3691 35.0757 36.3691ZM35.0757 43.0474C33.807 43.0472 32.7749 42.0151 32.7749 40.7465C32.7749 39.8516 33.2895 39.0765 34.0373 38.6962V40.7465C34.0373 41.3199 34.5022 41.7849 35.0757 41.7849H37.1261C36.7459 42.5326 35.9707 43.0474 35.0757 43.0474ZM36.1141 39.7083V38.6963C36.5499 38.9182 36.9042 39.2725 37.1261 39.7083H36.1141ZM37.6086 1.88273C37.5267 1.63078 37.3516 1.41966 37.1192 1.29257C36.8868 1.16549 36.6145 1.13206 36.3583 1.19913L36.1262 1.25983L36.1123 1.02044C36.0965 0.756228 35.9805 0.508013 35.7878 0.326517C35.5951 0.145021 35.3405 0.0439453 35.0758 0.0439453C34.8111 0.0439453 34.5564 0.145021 34.3637 0.326517C34.1711 0.508013 34.055 0.756228 34.0392 1.02044L34.0253 1.25983L33.7933 1.19913C33.537 1.13217 33.2649 1.16567 33.0325 1.29277C32.8002 1.41986 32.6252 1.63095 32.5434 1.88283C32.4615 2.13471 32.479 2.40835 32.5923 2.64774C32.7056 2.88713 32.9061 3.07418 33.1528 3.17062L33.376 3.25784L33.2465 3.45964C33.1039 3.68266 33.0519 3.95172 33.1011 4.21183C33.1502 4.47193 33.2969 4.70344 33.511 4.85904C33.7252 5.01464 33.9907 5.08258 34.2532 5.04897C34.5158 5.01536 34.7556 4.88274 34.9237 4.67821L35.0758 4.49269L35.2279 4.67821C35.3253 4.7972 35.4479 4.89305 35.5869 4.95881C35.7259 5.02457 35.8777 5.0586 36.0315 5.05843C36.2178 5.05838 36.4007 5.00818 36.561 4.9131C36.7212 4.81802 36.853 4.68156 36.9423 4.51804C37.0317 4.35452 37.0754 4.16997 37.0688 3.98374C37.0623 3.79752 37.0057 3.61649 36.9051 3.45964L36.7757 3.25784L36.9989 3.17062C37.2457 3.07423 37.4462 2.88718 37.5595 2.64776C37.6729 2.40833 37.6904 2.13465 37.6086 1.88273Z" fill="#E1262E"/>
<path d="M68.9613 67.8804H44.6621V48.4454H45.2613C45.5367 48.4454 45.8009 48.336 45.9956 48.1413C46.1903 47.9465 46.2997 47.6824 46.2997 47.407C46.2997 47.1316 46.1903 46.8675 45.9956 46.6728C45.8009 46.478 45.5367 46.3686 45.2613 46.3686H42.0576V35.8123C42.3242 35.789 42.5715 35.6635 42.7479 35.4621C42.9242 35.2608 43.016 34.9991 43.0039 34.7317C42.9919 34.4643 42.8771 34.2119 42.6834 34.0272C42.4897 33.8425 42.2322 33.7397 41.9645 33.7403H40.5884V22.0234C40.5884 21.45 40.1236 20.985 39.5501 20.985H38.8975L36.0944 6.78733C36.0478 6.55142 35.9207 6.339 35.7349 6.18633C35.5491 6.03366 35.3161 5.9502 35.0757 5.9502C34.8352 5.9502 34.6022 6.03366 34.4164 6.18633C34.2306 6.339 34.1036 6.55142 34.057 6.78733L31.2537 20.985H30.6011C30.3257 20.985 30.0616 21.0944 29.8669 21.2892C29.6722 21.4839 29.5628 21.748 29.5628 22.0234V33.7403H28.1867C27.919 33.7397 27.6615 33.8425 27.4678 34.0272C27.2741 34.2119 27.1593 34.4643 27.1473 34.7317C27.1352 34.9991 27.227 35.2608 27.4033 35.4621C27.5796 35.6635 27.8269 35.789 28.0936 35.8123V37.6673C28.0936 37.9427 28.203 38.2068 28.3977 38.4016C28.5924 38.5963 28.8566 38.7057 29.132 38.7057C29.4073 38.7057 29.6715 38.5963 29.8662 38.4016C30.0609 38.2068 30.1703 37.9427 30.1703 37.6673V35.817H39.9809V46.3685H30.1703V41.1285C30.1703 40.8531 30.0609 40.589 29.8662 40.3942C29.6715 40.1995 29.4073 40.0901 29.132 40.0901C28.8566 40.0901 28.5924 40.1995 28.3977 40.3942C28.203 40.589 28.0936 40.8531 28.0936 41.1285V46.3685H24.8231C24.5477 46.3685 24.2836 46.4779 24.0889 46.6726C23.8941 46.8674 23.7847 47.1315 23.7847 47.4069C23.7847 47.6823 23.8941 47.9464 24.0889 48.1411C24.2836 48.3359 24.5477 48.4453 24.8231 48.4453H25.4224V67.8804H1.12334C0.847945 67.8804 0.583829 67.9898 0.389095 68.1845C0.194361 68.3793 0.0849609 68.6434 0.0849609 68.9188C0.0849609 69.1942 0.194361 69.4583 0.389095 69.653C0.583829 69.8477 0.847945 69.9571 1.12334 69.9571H68.9611C69.5345 69.9571 69.9995 69.4923 69.9995 68.9188C69.9995 68.7824 69.9727 68.6474 69.9206 68.5214C69.8684 68.3954 69.7919 68.2809 69.6955 68.1845C69.5991 68.0881 69.4846 68.0116 69.3586 67.9594C69.2327 67.9072 69.0976 67.8804 68.9613 67.8804ZM35.0757 12.3489L36.7807 20.9849H33.3704L35.0757 12.3489ZM31.6396 23.0616H38.0385L38.043 23.0618L38.0471 23.0616H38.5115V29.3994H37.673V24.4175C37.6699 24.1442 37.5591 23.8831 37.3648 23.691C37.1704 23.4988 36.9081 23.391 36.6347 23.391C36.3614 23.391 36.0991 23.4988 35.9047 23.691C35.7103 23.8831 35.5996 24.1442 35.5964 24.4175V29.3994H34.5548V24.4175C34.5548 24.1421 34.4454 23.878 34.2506 23.6832C34.0559 23.4885 33.7918 23.3791 33.5164 23.3791C33.241 23.3791 32.9769 23.4885 32.7821 23.6832C32.5874 23.878 32.478 24.1421 32.478 24.4175V29.3994H31.6395L31.6396 23.0616ZM38.5118 33.7403H31.6396V31.4763H38.5118V33.7403ZM32.6799 67.8804V64.2617C32.6801 63.8308 32.7953 63.4078 33.0135 63.0363C33.2318 62.6648 33.5452 62.3582 33.9215 62.1483C33.9812 62.115 34.0425 62.0853 34.104 62.0574V67.8804H32.6799ZM37.5196 67.8804H36.1808V62.0987C36.2107 62.1136 36.2408 62.1282 36.2702 62.1445L36.2777 62.1486C36.6541 62.3584 36.9677 62.665 37.186 63.0365C37.4043 63.4081 37.5195 63.8312 37.5196 64.2621V67.8804ZM42.5854 67.8804H39.5963V64.2621C39.596 63.4629 39.3828 62.6782 38.9786 61.9887C38.5744 61.2992 37.9938 60.7298 37.2965 60.3391L37.2872 60.3339C35.9169 59.5705 34.2808 59.5708 32.9107 60.3345C32.2115 60.7246 31.629 61.2942 31.2234 61.9845C30.8177 62.6749 30.6037 63.461 30.6033 64.2617V67.8804H27.4993V56.5054H42.5854V67.8804ZM42.5855 54.4288H41.1841V51.2543C41.1841 50.9789 41.0747 50.7148 40.88 50.52C40.6853 50.3253 40.4211 50.2159 40.1457 50.2159C39.8703 50.2159 39.6062 50.3253 39.4115 50.52C39.2168 50.7148 39.1074 50.9789 39.1074 51.2543V54.4288H37.6703V51.2543C37.6703 50.9789 37.5609 50.7148 37.3662 50.52C37.1714 50.3253 36.9073 50.2159 36.6319 50.2159C36.3565 50.2159 36.0924 50.3253 35.8977 50.52C35.703 50.7148 35.5936 50.9789 35.5936 51.2543V54.4288H34.1565V51.2543C34.1565 50.9789 34.0471 50.7148 33.8524 50.52C33.6576 50.3253 33.3935 50.2159 33.1181 50.2159C32.8427 50.2159 32.5786 50.3253 32.3839 50.52C32.1891 50.7148 32.0797 50.9789 32.0797 51.2543V54.4288H30.6427V51.2543C30.6427 50.9789 30.5333 50.7148 30.3386 50.52C30.1438 50.3253 29.8797 50.2159 29.6043 50.2159C29.3289 50.2159 29.0648 50.3253 28.8701 50.52C28.6753 50.7148 28.5659 50.9789 28.5659 51.2543V54.4288H27.4987V48.4453H42.5852V54.4288H42.5855Z" fill="#E1262E"/>
<path d="M52.7636 61.2717H50.687C50.4116 61.2717 50.1474 61.3811 49.9527 61.5758C49.758 61.7705 49.6486 62.0347 49.6486 62.3101C49.6486 62.5855 49.758 62.8496 49.9527 63.0443C50.1474 63.239 50.4116 63.3484 50.687 63.3484H52.7636C53.039 63.3484 53.3031 63.239 53.4978 63.0443C53.6925 62.8496 53.8019 62.5855 53.8019 62.3101C53.8019 62.0347 53.6925 61.7705 53.4978 61.5758C53.3031 61.3811 53.039 61.2717 52.7636 61.2717ZM59.1321 63.3484H57.0554C56.7801 63.3484 56.5159 63.4578 56.3212 63.6526C56.1265 63.8473 56.0171 64.1114 56.0171 64.3868C56.0171 64.6622 56.1265 64.9263 56.3212 65.1211C56.5159 65.3158 56.7801 65.4252 57.0554 65.4252H59.1321C59.4075 65.4252 59.6716 65.3158 59.8663 65.1211C60.061 64.9263 60.1704 64.6622 60.1704 64.3868C60.1704 64.1114 60.061 63.8473 59.8663 63.6526C59.6716 63.4578 59.4075 63.3484 59.1321 63.3484ZM9.43043 60.441H7.35381C7.07841 60.441 6.8143 60.5504 6.61956 60.7451C6.42483 60.9398 6.31543 61.204 6.31543 61.4794C6.31543 61.7548 6.42483 62.0189 6.61956 62.2136C6.8143 62.4083 7.07841 62.5177 7.35381 62.5177H9.43043C9.70583 62.5177 9.96994 62.4083 10.1647 62.2136C10.3594 62.0189 10.4688 61.7548 10.4688 61.4794C10.4688 61.204 10.3594 60.9398 10.1647 60.7451C9.96994 60.5504 9.70583 60.441 9.43043 60.441ZM16.768 63.0714H14.6914C14.416 63.0714 14.1519 63.1808 13.9571 63.3756C13.7624 63.5703 13.653 63.8344 13.653 64.1098C13.653 64.3852 13.7624 64.6493 13.9571 64.8441C14.1519 65.0388 14.416 65.1482 14.6914 65.1482H16.768C17.0434 65.1482 17.3075 65.0388 17.5022 64.8441C17.697 64.6493 17.8064 64.3852 17.8064 64.1098C17.8064 63.8344 17.697 63.5703 17.5022 63.3756C17.3075 63.1808 17.0434 63.0714 16.768 63.0714ZM68.8231 54.3191H66.7991V47.3626C66.7991 46.7892 66.3343 46.3242 65.7607 46.3242C64.4765 46.3242 63.3233 46.8958 62.5421 47.798C61.7609 46.8958 60.6078 46.3242 59.3235 46.3242C59.1871 46.3242 59.0521 46.3511 58.9261 46.4033C58.8001 46.4554 58.6856 46.5319 58.5892 46.6284C58.4928 46.7248 58.4163 46.8392 58.3641 46.9652C58.312 47.0912 58.2851 47.2262 58.2851 47.3626V54.3193H56.6238V53.0344C56.6238 52.759 56.5144 52.4949 56.3197 52.3001C56.125 52.1054 55.8608 51.996 55.5854 51.996C55.31 51.996 55.0459 52.1054 54.8512 52.3001C54.6565 52.4949 54.5471 52.759 54.5471 53.0344V55.3575C54.5471 55.9309 55.0119 56.3959 55.5854 56.3959H59.3233C59.8967 56.3959 60.3617 55.931 60.3617 55.3575V48.6644C61.0413 49.0341 61.5037 49.7546 61.5037 50.5812C61.5037 50.8566 61.6131 51.1207 61.8079 51.3155C62.0026 51.5102 62.2667 51.6196 62.5421 51.6196C62.8175 51.6196 63.0816 51.5102 63.2763 51.3155C63.4711 51.1207 63.5805 50.8566 63.5805 50.5812C63.5805 49.7546 64.0427 49.034 64.7225 48.6644V55.3575C64.7225 55.9309 65.1873 56.3959 65.7609 56.3959H68.8231C69.0985 56.3959 69.3626 56.2865 69.5573 56.0917C69.7521 55.897 69.8615 55.6329 69.8615 55.3575C69.8615 55.0821 69.7521 54.818 69.5573 54.6233C69.3626 54.4285 69.0985 54.3191 68.8231 54.3191Z" fill="#E1262E"/>
<path d="M55.586 46.3242C54.3018 46.3242 53.1485 46.8958 52.3672 47.798C51.586 46.8958 50.4328 46.3242 49.1486 46.3242C48.8732 46.3242 48.609 46.4336 48.4143 46.6284C48.2196 46.8231 48.1102 47.0872 48.1102 47.3626V54.3193H46.7952C46.5198 54.3193 46.2557 54.4286 46.061 54.6234C45.8663 54.8181 45.7569 55.0822 45.7569 55.3576C45.7569 55.6329 45.8663 55.897 46.061 56.0918C46.2557 56.2865 46.5198 56.3959 46.7952 56.3959H49.1486C49.722 56.3959 50.1869 55.931 50.1869 55.3575V48.6644C50.8667 49.034 51.3289 49.7546 51.3289 50.5812C51.3289 50.8566 51.4383 51.1207 51.6331 51.3155C51.8278 51.5102 52.0919 51.6196 52.3673 51.6196C52.6427 51.6196 52.9068 51.5102 53.1016 51.3155C53.2963 51.1207 53.4057 50.8566 53.4057 50.5812C53.4057 49.7548 53.8681 49.0341 54.5477 48.6644V49.5732C54.5477 49.8486 54.6571 50.1127 54.8518 50.3074C55.0466 50.5022 55.3107 50.6116 55.5861 50.6116C55.8615 50.6116 56.1256 50.5022 56.3203 50.3074C56.5151 50.1127 56.6245 49.8486 56.6245 49.5732V47.3626C56.6244 47.0872 56.5149 46.8231 56.3202 46.6284C56.1254 46.4337 55.8613 46.3243 55.586 46.3242ZM23.0663 54.3191H21.7513V47.3626C21.7513 46.7892 21.2865 46.3242 20.713 46.3242C19.4288 46.3242 18.2755 46.8958 17.4942 47.798C16.713 46.8958 15.5599 46.3242 14.2756 46.3242C14.1392 46.3242 14.0042 46.3511 13.8782 46.4033C13.7522 46.4554 13.6377 46.5319 13.5413 46.6284C13.4449 46.7248 13.3684 46.8392 13.3162 46.9652C13.264 47.0912 13.2372 47.2262 13.2372 47.3626V54.3193H11.5761V47.3626C11.5761 46.7892 11.1112 46.3242 10.5377 46.3242C9.25348 46.3242 8.10025 46.8958 7.31904 47.798C6.53783 46.8958 5.38461 46.3242 4.10041 46.3242C3.96405 46.3242 3.82902 46.3511 3.70304 46.4033C3.57706 46.4554 3.46259 46.5319 3.36616 46.6284C3.26974 46.7248 3.19326 46.8392 3.14107 46.9652C3.08889 47.0912 3.06203 47.2262 3.06203 47.3626V54.3193H1.03818C0.76487 54.3224 0.503815 54.4332 0.311652 54.6275C0.11949 54.8219 0.0117188 55.0842 0.0117188 55.3576C0.0117188 55.6309 0.11949 55.8932 0.311652 56.0876C0.503815 56.282 0.76487 56.3927 1.03818 56.3959H4.10041C4.67381 56.3959 5.13879 55.931 5.13879 55.3575V48.6644C5.81855 49.034 6.2808 49.7546 6.2808 50.5812C6.2808 50.8566 6.3902 51.1207 6.58493 51.3155C6.77967 51.5102 7.04378 51.6196 7.31918 51.6196C7.59457 51.6196 7.85869 51.5102 8.05342 51.3155C8.24816 51.1207 8.35756 50.8566 8.35756 50.5812C8.35756 49.7546 8.8198 49.034 9.49957 48.6644V55.3575C9.49957 55.9309 9.96441 56.3959 10.5379 56.3959H14.2758C14.8492 56.3959 15.3142 55.931 15.3142 55.3575V48.6644C15.9938 49.0341 16.4562 49.7546 16.4562 50.5812C16.4562 50.8566 16.5656 51.1207 16.7604 51.3155C16.9551 51.5102 17.2192 51.6196 17.4946 51.6196C17.77 51.6196 18.0341 51.5102 18.2289 51.3155C18.4236 51.1207 18.533 50.8566 18.533 50.5812C18.533 49.7546 18.9952 49.034 19.675 48.6644V55.3575C19.675 55.9309 20.1398 56.3959 20.7134 56.3959H23.0667C23.3421 56.3958 23.6062 56.2864 23.8009 56.0916C23.9956 55.8968 24.1049 55.6327 24.1049 55.3573C24.1048 55.0819 23.9954 54.8178 23.8006 54.6231C23.6058 54.4284 23.3417 54.3191 23.0663 54.3191Z" fill="#E1262E"/>
</g>
<defs>
<clipPath id="clip0_905_80">
<rect width="70" height="70" fill="white"/>
</clipPath>
</defs>
</svg>
