<svg width="209" height="330" viewBox="0 0 209 330" fill="none" xmlns="http://www.w3.org/2000/svg">
<g clip-path="url(#clip0_902_3913)">
<path d="M56.2475 0.75H86.575C93.7408 0.75 99.5425 6.55289 99.5425 13.7203V26.4656C99.5425 33.633 93.7408 39.4359 86.575 39.4359H85.4206L89.8281 50.5769L77.85 39.4359H56.2475C49.0816 39.4359 43.2799 33.633 43.2799 26.4656V13.7203C43.2799 6.55289 49.0816 0.75 56.2475 0.75Z" fill="white" stroke="#263238" stroke-miterlimit="10" stroke-linecap="round" stroke-linejoin="round"/>
<path d="M85.0458 24.3666C83.5224 24.3666 82.2874 23.1314 82.2874 21.6076C82.2874 20.0839 83.5224 18.8486 85.0458 18.8486C86.5692 18.8486 87.8042 20.0839 87.8042 21.6076C87.8042 23.1314 86.5692 24.3666 85.0458 24.3666Z" fill="#263238"/>
<path d="M70.8788 24.3666C69.3554 24.3666 68.1204 23.1314 68.1204 21.6076C68.1204 20.0839 69.3554 18.8486 70.8788 18.8486C72.4022 18.8486 73.6372 20.0839 73.6372 21.6076C73.6372 23.1314 72.4022 24.3666 70.8788 24.3666Z" fill="#263238"/>
<path d="M53.8489 21.6076C53.8489 23.1221 55.0782 24.3666 56.6073 24.3666C58.1214 24.3666 59.3657 23.1371 59.3657 21.6076C59.3657 20.0932 58.1364 18.8486 56.6073 18.8486C55.0782 18.8636 53.8489 20.0932 53.8489 21.6076Z" fill="#263238"/>
<path d="M81.118 319.279H92.0767V328.906H81.118V319.279Z" fill="#CCCCCC" stroke="#263238" stroke-miterlimit="10" stroke-linecap="round" stroke-linejoin="round"/>
<path d="M81.1328 319.279H88.0288V328.906H81.1328V319.279Z" fill="#CCCCCC" stroke="#263238" stroke-miterlimit="10" stroke-linecap="round" stroke-linejoin="round"/>
<path d="M60.9546 318.68H65.0322V328.996H60.9546V318.68Z" fill="#CCCCCC" stroke="#263238" stroke-miterlimit="10" stroke-linecap="round" stroke-linejoin="round"/>
<path d="M90.0976 147.427H223.88C229.052 147.427 233.25 151.625 233.25 156.798V222.4H80.728V156.798C80.728 151.625 84.9256 147.427 90.0976 147.427Z" fill="#CCCCCC" stroke="#263238" stroke-miterlimit="10" stroke-linecap="round" stroke-linejoin="round"/>
<path d="M54.8229 221.425H233.25V296.413H54.8229V221.425Z" fill="#878787" stroke="#263238" stroke-miterlimit="10" stroke-linecap="round" stroke-linejoin="round"/>
<path d="M54.8229 277.354H233.25V296.413H54.8229V277.354Z" stroke="#263238" stroke-miterlimit="10" stroke-linecap="round" stroke-linejoin="round"/>
<path d="M54.8233 221.425H218.379V296.413H54.8233V221.425Z" fill="#CCCCCC" stroke="#263238" stroke-miterlimit="10" stroke-linecap="round" stroke-linejoin="round"/>
<path d="M54.8233 277.354H218.379V296.413H54.8233V277.354Z" stroke="#263238" stroke-miterlimit="10" stroke-linecap="round" stroke-linejoin="round"/>
<path d="M218.379 296.188V328.996H212.247V319.639H60.9547V328.996H54.8233V296.188H218.379Z" fill="white" stroke="#263238" stroke-miterlimit="10" stroke-linecap="round" stroke-linejoin="round"/>
<path d="M55.4076 222.4H89.4829V186.833C89.4829 183.174 86.5146 180.205 82.8567 180.205H59.6051C57.2815 180.205 55.4076 182.079 55.4076 184.404V222.4Z" fill="#878787" stroke="#263238" stroke-miterlimit="10" stroke-linecap="round" stroke-linejoin="round"/>
<path d="M55.4078 222.4H72.438V186.803C72.438 183.159 69.4847 180.205 65.8418 180.205H59.6054C57.2817 180.205 55.4078 182.079 55.4078 184.404V222.4Z" fill="#CCCCCC" stroke="#263238" stroke-miterlimit="10" stroke-linecap="round" stroke-linejoin="round"/>
<path d="M199.175 222.4H233.25V186.833C233.25 183.174 230.282 180.205 226.624 180.205H203.372C201.049 180.205 199.175 182.079 199.175 184.404V222.4Z" fill="#878787" stroke="#263238" stroke-miterlimit="10" stroke-linecap="round" stroke-linejoin="round"/>
<path d="M199.175 222.4H216.22V186.803C216.22 183.159 213.266 180.205 209.624 180.205H203.387C201.063 180.205 199.19 182.079 199.19 184.404V222.4H199.175Z" fill="#CCCCCC" stroke="#263238" stroke-miterlimit="10" stroke-linecap="round" stroke-linejoin="round"/>
<path d="M39.6816 275.885L39.022 287.7H37.4929L36.3985 278.734L39.6816 275.885Z" fill="#704B8C" stroke="#263238" stroke-miterlimit="10" stroke-linecap="round" stroke-linejoin="round"/>
<path d="M92.421 172.332C92.421 172.332 76.875 172.107 72.9473 175.616C69.0045 179.125 40.7758 236.479 34.4195 245.895C28.0782 255.312 18.004 268.447 15.5904 271.296C13.1768 274.145 5.74104 285.091 2.89268 286.62C0.0443268 288.15 0.0443344 289.035 2.66782 289.679C5.29131 290.339 11.6476 290.114 15.1406 289.679C18.6486 289.244 23.2359 287.49 25.2148 284.431C27.1787 281.372 29.8172 279.618 32.4407 279.183C35.0641 278.748 39.2317 278.748 39.6665 275.899C40.1012 273.05 38.3472 262.764 38.3472 262.764C38.3472 262.764 47.1022 250.289 53.0088 246.12C58.9154 241.952 72.0478 225.548 77.0849 218.095C82.122 210.643 89.3478 197.958 92.1812 197.298C95.0295 196.638 102.255 201.676 102.255 201.676L101.386 172.782L92.421 172.332Z" fill="white" stroke="#263238" stroke-miterlimit="10" stroke-linecap="round" stroke-linejoin="round"/>
<path d="M2.90786 286.605C3.91228 286.065 5.50135 284.341 7.22536 282.212C7.6751 282.722 8.19979 283.261 8.81444 283.756C11.228 285.72 16.0403 288.135 20.4178 286.17C24.7952 284.206 28.9478 277.189 32.8906 272.81C35.8439 269.526 38.1825 268.462 39.1719 268.132C39.5617 271.086 39.9065 274.43 39.6816 275.869C39.2469 278.718 35.0793 278.718 32.4558 279.153C29.8323 279.588 27.2088 281.342 25.23 284.401C23.2661 287.46 18.6638 289.214 15.1558 289.649C11.6478 290.084 5.30647 290.309 2.68298 289.649C0.0594902 289.019 0.0595055 288.15 2.90786 286.605Z" fill="#704B8C" stroke="#263238" stroke-miterlimit="10" stroke-linecap="round" stroke-linejoin="round"/>
<path d="M107.742 314.195L106.003 328.65H104.249L103.155 316.385L107.742 314.195Z" fill="#704B8C" stroke="#263238" stroke-miterlimit="10" stroke-linecap="round" stroke-linejoin="round"/>
<path d="M104.025 200.132C104.025 200.132 93.0811 192.035 84.9858 196.624C76.8904 201.227 79.9487 230.991 83.6665 250.919C87.3844 270.847 89.3632 305.649 89.3632 305.649C89.3632 305.649 84.9858 314.841 83.4566 317.914C81.9275 320.973 79.7388 324.707 77.7599 325.577C75.7961 326.446 72.2881 327.541 74.0421 328.635C75.7961 329.73 87.6093 329.07 89.1384 328.635C90.6675 328.201 94.3853 318.784 101.176 317.255C107.968 315.725 109.497 310.687 108.177 306.534C106.858 302.38 102.93 301.285 102.046 296.682C101.176 292.079 104.235 217.646 105.329 209.774C106.438 201.887 104.025 200.132 104.025 200.132Z" fill="white" stroke="#263238" stroke-miterlimit="10" stroke-linecap="round" stroke-linejoin="round"/>
<path d="M77.7597 325.577C78.5842 325.217 79.4537 324.332 80.2933 323.222C82.0023 324.992 84.6108 327.391 85.87 327.121C87.8339 326.686 90.2475 324.497 93.5306 320.553C96.8137 316.61 99.872 315.74 101.416 314.421C102.495 313.506 105.074 307.193 106.513 303.52C107.203 304.374 107.817 305.334 108.192 306.548C109.511 310.702 107.967 315.74 101.191 317.27C94.4001 318.799 90.6823 328.216 89.1531 328.65C87.624 329.085 75.7958 329.745 74.0568 328.65C72.2879 327.556 75.7958 326.461 77.7597 325.577Z" fill="#704B8C" stroke="#263238" stroke-miterlimit="10" stroke-linecap="round" stroke-linejoin="round"/>
<path d="M125.327 138.295C125.327 138.295 104.819 142.853 100.082 143.378C95.3448 143.903 90.0828 143.723 90.0828 143.723C90.0828 143.723 87.2794 139.509 86.3949 138.984C85.5254 138.46 79.5589 137.41 79.5589 137.41C79.5589 137.41 76.7555 134.606 75.871 135.131C75.0015 135.656 75.6911 137.065 76.3957 138.46C77.1003 139.869 80.4284 141.968 80.9531 142.148C81.4778 142.328 67.281 146.527 67.281 146.527C67.281 146.527 64.1178 146.707 64.6575 147.936C65.1822 149.166 69.5596 154.954 72.378 155.478C75.1814 156.003 78.5095 155.299 85.0007 155.299C91.492 155.299 96.3942 153.364 105.869 153.364C115.343 153.364 137.95 154.414 137.95 154.414C137.95 154.414 136.376 148.971 135.672 146.692C134.967 144.427 125.327 138.295 125.327 138.295Z" fill="white" stroke="#263238" stroke-miterlimit="10" stroke-linecap="round" stroke-linejoin="round"/>
<path d="M77.3102 151.46C77.3851 152.765 76.4707 154.879 75.0015 155.479C73.2475 156.183 72.1981 154.954 73.0676 153.904C73.8022 153.019 74.2219 151.64 75.1814 150.95C76.6056 149.931 77.2502 150.455 77.3102 151.46Z" stroke="#263238" stroke-miterlimit="10" stroke-linecap="round" stroke-linejoin="round"/>
<path d="M72.3783 155.478C72.3783 155.478 69.7548 155.658 69.395 154.249C69.0502 152.839 72.3783 146.002 73.2478 146.886C74.1172 147.771 72.3783 155.478 72.3783 155.478Z" fill="white" stroke="#263238" stroke-miterlimit="10" stroke-linecap="round" stroke-linejoin="round"/>
<path d="M66.0668 150.395C66.0668 150.395 64.1329 142.508 65.3622 141.803C66.5915 141.098 68.5254 149.001 67.9857 150.575C67.461 152.149 66.0668 150.395 66.0668 150.395Z" fill="white" stroke="#263238" stroke-miterlimit="10" stroke-linecap="round" stroke-linejoin="round"/>
<path d="M69.3945 154.249C69.3945 154.249 65.7067 151.97 66.0664 150.396C66.4112 148.821 68.8698 143.738 69.5744 145.313C70.264 146.887 69.3945 154.249 69.3945 154.249Z" fill="white" stroke="#263238" stroke-miterlimit="10" stroke-linecap="round" stroke-linejoin="round"/>
<path d="M89.7378 149.346C89.7378 149.346 86.7545 147.592 85.0005 147.937C83.2465 148.281 79.9185 150.396 79.9185 150.396" stroke="#263238" stroke-miterlimit="10" stroke-linecap="round" stroke-linejoin="round"/>
<path d="M156.554 81.0456C156.554 81.0456 181.29 91.5568 185.233 97.2397C189.175 102.938 188.516 161.161 188.516 161.161C188.516 161.161 200.988 182.184 195.307 202.981C189.61 223.779 166.418 226.403 163.135 226.628C159.852 226.853 155.909 226.628 155.909 226.628V263.409C155.909 263.409 155.909 266.258 152.192 266.693C148.474 267.128 141.473 266.258 141.473 266.258C141.473 266.258 142.342 277.429 134.472 282.452C126.601 287.476 122.434 283.982 118.281 286.171C114.129 288.36 111.94 289.68 106.243 289.89C100.546 290.115 92.8859 286.171 92.8859 286.171L92.4511 172.332C92.4511 172.332 107.547 172.332 113.469 173.862C113.469 173.862 121.564 172.992 122.659 172.992C123.753 172.992 129 166.649 130.094 164.46C131.189 162.271 132.283 162.496 132.943 159.212C133.602 155.928 132.943 145.642 132.943 145.642C132.943 145.642 123.093 140.394 122.224 135.131C121.354 129.868 122.659 121.561 125.732 112.369C128.79 103.178 131.863 90.912 134.712 87.4183C137.515 83.8946 150.872 79.2912 156.554 81.0456Z" fill="#704B8C" stroke="#263238" stroke-miterlimit="10" stroke-linecap="round" stroke-linejoin="round"/>
<path d="M153.931 225.533L140.573 226.628L141.668 261.22" stroke="#263238" stroke-miterlimit="10" stroke-linecap="round" stroke-linejoin="round"/>
<path d="M138.834 228.157L136.646 257.502" stroke="#263238" stroke-miterlimit="10" stroke-linecap="round" stroke-linejoin="round"/>
<path d="M158.083 147.816C158.083 147.816 141.443 143.003 139.704 142.118" stroke="#263238" stroke-miterlimit="10" stroke-linecap="round" stroke-linejoin="round"/>
<path d="M135.986 143.663L142.327 145.627" stroke="#263238" stroke-miterlimit="10" stroke-linecap="round" stroke-linejoin="round"/>
<path d="M190.479 186.353C190.479 186.353 184.138 177.161 176.253 174.972" stroke="#263238" stroke-miterlimit="10" stroke-linecap="round" stroke-linejoin="round"/>
<path d="M187.196 179.125C187.196 179.125 185.008 176.501 181.949 175.406" stroke="#263238" stroke-miterlimit="10" stroke-linecap="round" stroke-linejoin="round"/>
<path d="M156.554 116.298L162.896 83.8945C170.511 87.4182 182.564 93.4311 185.218 97.2547C187.286 100.254 188.096 117.827 188.381 133.781C184.528 133.631 177.902 133.002 172.52 130.528C164.44 126.794 156.554 116.298 156.554 116.298Z" fill="white" stroke="#263238" stroke-miterlimit="10" stroke-linecap="round" stroke-linejoin="round"/>
<path d="M154.8 111.035L132.688 123.3L126.347 114.769L134.982 87.0736C138.355 83.6249 151.037 79.3664 156.539 81.0608C156.539 81.0608 158.923 82.0804 162.341 83.6399L154.8 111.035Z" fill="white" stroke="#263238" stroke-miterlimit="10" stroke-linecap="round" stroke-linejoin="round"/>
<path d="M172.311 89.1426C172.311 89.1426 186.972 91.7666 193.329 101.183C199.685 110.6 201.649 167.729 200.554 168.824C199.46 169.918 141.893 179.335 140.589 179.545C139.27 179.77 130.515 178.225 127.457 177.131C124.398 176.036 119.136 173.622 119.136 173.622H116.078C116.078 173.622 118.267 170.113 120.021 169.243C121.775 168.374 126.152 169.468 127.681 169.678C129.21 169.903 142.568 173.187 142.568 173.187L181.29 157.443L174.499 106.866" fill="white"/>
<path d="M172.311 89.1426C172.311 89.1426 186.972 91.7666 193.329 101.183C199.685 110.6 201.649 167.729 200.554 168.824C199.46 169.918 141.893 179.335 140.589 179.545C139.27 179.77 130.515 178.225 127.457 177.131C124.398 176.036 119.136 173.622 119.136 173.622H116.078C116.078 173.622 118.267 170.113 120.021 169.243C121.775 168.374 126.152 169.468 127.681 169.678C129.21 169.903 142.568 173.187 142.568 173.187L181.29 157.443L174.499 106.866" stroke="#263238" stroke-miterlimit="10" stroke-linecap="round" stroke-linejoin="round"/>
<path d="M139.269 85.8591C139.269 85.8591 138.609 95.0508 136.211 97.24C133.797 99.4292 128.325 107.316 130.304 111.035C132.268 114.754 135.551 111.695 135.551 111.695C135.551 111.695 136.421 116.523 128.535 117.168C120.65 117.827 118.806 107.931 118.686 103.583C118.431 94.0761 124.158 90.0126 127.441 85.6342C130.724 81.2558 132.478 78.8417 132.478 78.8417C132.478 78.8417 138.834 77.987 139.269 85.8591Z" fill="#263238" stroke="#263238" stroke-miterlimit="10" stroke-linecap="round" stroke-linejoin="round"/>
<path d="M123.124 32.4485C123.124 32.4485 116.663 31.069 116.018 33.948C115.388 36.8269 115.523 40.7405 117.232 42.8547C118.941 44.984 121.01 46.0336 121.01 46.0336C121.01 46.0336 124.593 34.8926 125.643 34.1279C126.692 33.3632 126.692 33.3632 126.692 33.3632L123.124 32.4485Z" fill="#263238" stroke="#263238" stroke-miterlimit="10" stroke-linecap="round" stroke-linejoin="round"/>
<path d="M139.914 95.95C139.914 92.4862 135.611 81.9301 135.611 81.9301C135.611 81.9301 126.377 82.9347 124.533 82.05C122.689 81.1654 121.19 69.9494 121.19 69.9494C121.19 69.9494 116.737 67.2804 116.227 66.5906C115.718 65.9009 119.376 59.0034 119.93 57.414C120.485 55.8246 118.041 49.9617 118.821 43.9939C119.6 38.026 124.143 33.2428 124.143 33.2428C124.143 33.2428 130.844 31.3835 140.888 31.4134C150.932 31.4434 159.672 38.8957 160.062 49.152C160.452 59.4083 155.939 69.6795 155.16 70.7741C154.38 71.8687 159.118 83.5645 159.912 86.2785" fill="white"/>
<path d="M139.914 95.95C139.914 92.4862 135.611 81.9301 135.611 81.9301C135.611 81.9301 126.377 82.9347 124.533 82.05C122.689 81.1654 121.19 69.9494 121.19 69.9494C121.19 69.9494 116.737 67.2804 116.227 66.5907C115.718 65.9009 119.376 59.0034 119.93 57.414C120.485 55.8246 118.041 49.9617 118.821 43.9939C119.6 38.026 124.143 33.2428 124.143 33.2428C124.143 33.2428 130.844 31.3835 140.888 31.4134C150.932 31.4434 159.672 38.8957 160.062 49.152C160.452 59.4083 155.939 69.6795 155.16 70.7741C154.38 71.8687 159.118 83.5645 159.912 86.2785" stroke="#263238" stroke-miterlimit="10" stroke-linecap="round" stroke-linejoin="round"/>
<path d="M148.579 61.1027C148.579 61.1027 141.623 61.1777 139.27 54.7301C136.916 48.2824 136.421 48.2524 131.579 45.0586C126.752 41.8797 120.186 33.1079 120.38 30.8437C120.575 28.5946 131.474 23.3915 146.45 24.9509C161.427 26.5103 170.541 37.6813 168.233 50.5766C165.924 63.4719 166.164 80.1308 167.573 82.7849C168.982 85.4389 174.049 85.3339 178.247 86.8634C184.603 89.1875 185.593 94.1507 185.593 94.1507C185.593 94.1507 176.883 90.8369 175.384 92.8012C173.885 94.7505 158.698 105.247 152.372 102.083C146.061 98.919 147.14 65.946 146.915 64.4015C146.735 62.8271 148.579 61.1027 148.579 61.1027Z" fill="#263238" stroke="#263238" stroke-miterlimit="10" stroke-linecap="round" stroke-linejoin="round"/>
<path d="M142.762 61.2679C142.762 61.2679 148.519 51.6564 152.836 53.2458C157.154 54.8352 153.361 64.5967 150.378 66.1111C147.41 67.6256 144.486 65.8112 144.486 65.8112" fill="white"/>
<path d="M142.762 61.2679C142.762 61.2679 148.519 51.6564 152.836 53.2458C157.154 54.8352 153.361 64.5967 150.378 66.1111C147.41 67.6256 144.486 65.8112 144.486 65.8112" stroke="#263238" stroke-miterlimit="10" stroke-linecap="round" stroke-linejoin="round"/>
<path d="M121.894 52.5406C121.894 52.5406 124.128 48.9269 127.876 52.2557" stroke="#263238" stroke-miterlimit="10" stroke-linecap="round" stroke-linejoin="round"/>
<path d="M123.634 58.074C123.649 59.2735 124.083 60.2482 124.623 60.2482C125.163 60.2482 125.598 59.2585 125.583 58.059C125.568 56.8594 125.133 55.8848 124.593 55.8848C124.054 55.8848 123.619 56.8594 123.634 58.074Z" fill="#263238"/>
<path d="M124 73C127.103 73.6298 129.5 70.5 129.5 70.5C129.5 70.5 129.24 74.358 127.186 74.6129C125.148 74.8678 124 73 124 73Z" fill="#263238" stroke="#263238" stroke-miterlimit="10" stroke-linecap="round" stroke-linejoin="round"/>
</g>
<defs>
<clipPath id="clip0_902_3913">
<rect width="234" height="330" fill="white" transform="matrix(-1 0 0 1 234 0)"/>
</clipPath>
</defs>
</svg>
