<svg width="26" height="25" viewBox="0 0 26 25" fill="none" xmlns="http://www.w3.org/2000/svg">
<path d="M26 12.5C26 5.59644 20.4036 0 13.5 0H12.5C5.59644 0 0 5.59644 0 12.5C0 19.4036 5.59644 25 12.5 25H13.5C20.4036 25 26 19.4036 26 12.5Z" fill="white"/>
<path fill-rule="evenodd" clip-rule="evenodd" d="M19.3621 12.6417C19.3621 12.1985 19.3207 11.7724 19.2439 11.3633H13.1221V13.7809H16.6203C16.4696 14.5622 16.0116 15.2241 15.3232 15.6673V17.2355H17.4239C18.653 16.1474 19.3621 14.5451 19.3621 12.6417Z" fill="#321B20"/>
<path fill-rule="evenodd" clip-rule="evenodd" d="M13.1211 18.75C14.8762 18.75 16.3475 18.1904 17.423 17.2358L15.3223 15.6676C14.7402 16.0426 13.9957 16.2642 13.1211 16.2642C11.4282 16.2642 9.99523 15.1648 9.4841 13.6875H7.3125V15.3068C8.38205 17.3494 10.5802 18.75 13.1211 18.75Z" fill="#321B20"/>
<path fill-rule="evenodd" clip-rule="evenodd" d="M9.48503 13.6867C9.35503 13.3117 9.28117 12.9111 9.28117 12.4992C9.28117 12.0873 9.35503 11.6867 9.48503 11.3117V9.69238H7.31344C6.87321 10.5361 6.62207 11.4907 6.62207 12.4992C6.62207 13.5077 6.87321 14.4623 7.31344 15.306L9.48503 13.6867Z" fill="#321B20"/>
<path fill-rule="evenodd" clip-rule="evenodd" d="M13.1221 8.7358C14.0764 8.7358 14.9333 9.05114 15.6069 9.67046L17.4712 7.87784C16.3455 6.86932 14.8742 6.25 13.1221 6.25C10.5812 6.25 8.38302 7.65057 7.31348 9.69319L9.48507 11.3125C9.99621 9.83524 11.4292 8.7358 13.1221 8.7358Z" fill="#321B20"/>
</svg>
